<?xml version="1.0" encoding="UTF-8" standalone="no"?>
<!-- Generated by IcoMoon.io -->

<svg
   version="1.1"
   width="1024"
   height="1024"
   viewBox="0 0 1024 1024"
   id="svg1"
   sodipodi:docname="ArrowDown.svg"
   inkscape:version="1.4 (86a8ad7, 2024-10-11)"
   xmlns:inkscape="http://www.inkscape.org/namespaces/inkscape"
   xmlns:sodipodi="http://sodipodi.sourceforge.net/DTD/sodipodi-0.dtd"
   xmlns="http://www.w3.org/2000/svg"
   xmlns:svg="http://www.w3.org/2000/svg">
  <defs
     id="defs1">
    <clipPath
       clipPathUnits="userSpaceOnUse"
       id="clipPath25">
      <rect
         style="fill:#ff0000;stroke:none;stroke-width:3;stroke-linecap:square;stroke-linejoin:miter;paint-order:stroke markers fill;stop-color:#000000"
         id="rect25-8"
         width="78"
         height="45.033199"
         x="763.61322"
         y="452.82422" />
    </clipPath>
    <clipPath
       clipPathUnits="userSpaceOnUse"
       id="clipPath33">
      <rect
         style="fill:#000000;stroke:none;stroke-width:0.999995;stroke-linecap:butt;stroke-linejoin:bevel;paint-order:stroke markers fill;stop-color:#000000"
         id="rect33"
         width="46.19186"
         height="80.006783"
         x="74.999985"
         y="399.99661" />
    </clipPath>
    <linearGradient
       id="swatch185"
       inkscape:swatch="solid">
      <stop
         style="stop-color:#000000;stop-opacity:1;"
         offset="0"
         id="stop185" />
    </linearGradient>
    <linearGradient
       id="swatch120"
       inkscape:swatch="solid">
      <stop
         style="stop-color:#000000;stop-opacity:1;"
         offset="0"
         id="stop120" />
    </linearGradient>
  </defs>
  <sodipodi:namedview
     id="namedview1"
     pagecolor="#ffffff"
     bordercolor="#000000"
     borderopacity="0.25"
     inkscape:showpageshadow="2"
     inkscape:pageopacity="0.0"
     inkscape:pagecheckerboard="0"
     inkscape:deskcolor="#d1d1d1"
     showgrid="true"
     inkscape:zoom="0.56982422"
     inkscape:cx="77.216795"
     inkscape:cy="643.1808"
     inkscape:window-width="2560"
     inkscape:window-height="1369"
     inkscape:window-x="-8"
     inkscape:window-y="-8"
     inkscape:window-maximized="1"
     inkscape:current-layer="svg1">
    <inkscape:grid
       id="grid2"
       units="px"
       originx="0"
       originy="0"
       spacingx="1"
       spacingy="1"
       empcolor="#0099e5"
       empopacity="0.30196078"
       color="#0099e5"
       opacity="0.14901961"
       empspacing="5"
       enabled="true"
       visible="true" />
  </sodipodi:namedview>
  <path
     d="m 551.69285,798.89325 q 56.96617,-60.61201 116.66672,-123.04694 59.70055,-62.43493 123.95839,-126.69277 3.19011,-3.1901 6.38022,-4.5573 3.64582,-1.36718 8.20312,0 4.55729,0.91147 10.02606,5.01302 5.92447,4.10157 13.67188,11.84897 7.29166,7.29168 10.9375,13.21616 4.10156,5.46875 4.55729,10.02604 0.91146,4.10157 -0.45573,7.29168 -0.91145,3.19009 -3.64583,5.92448 L 543.48972,896.87506 q -5.92448,5.46875 -11.84896,8.65886 -5.46876,3.64584 -15.49481,3.64584 -7.7474,0 -14.12761,-2.73438 -5.92448,-2.73437 -13.21615,-9.57032 L 190.29944,597.91659 q -2.73437,-2.73439 -4.10157,-5.92448 -0.91145,-3.19011 -0.45573,-7.29168 0.91146,-4.55729 4.5573,-10.02604 4.10156,-5.92448 11.39324,-13.21616 7.74739,-7.7474 13.21615,-11.84897 5.92448,-4.10155 10.48178,-5.01302 4.55729,-1.36718 7.7474,0 3.64582,1.3672 6.83593,4.5573 64.25785,64.25784 123.9584,126.69277 59.70055,62.43493 116.66672,123.04694 v -638.9326 q 0,-3.19011 1.82292,-5.92449 2.27864,-2.73437 6.38021,-4.5573 4.55729,-2.27864 10.93751,-3.19009 6.83594,-1.3672 16.40625,-1.3672 9.57032,0 15.95054,1.3672 6.83593,0.91145 10.9375,3.19009 4.55729,1.82293 6.3802,4.5573 2.27866,2.73438 2.27866,5.92449 z"
     id="text4"
     style="-inkscape-font-specification:Calibri;stroke-width:28"
     aria-label="↓" />
</svg>
