<?xml version="1.0" encoding="UTF-8" standalone="no"?>
<!-- Generated by IcoMoon.io -->

<svg
   version="1.1"
   width="1024"
   height="1024"
   viewBox="0 0 1024 1024"
   id="svg1"
   sodipodi:docname="ArrowUp.svg"
   inkscape:version="1.4 (86a8ad7, 2024-10-11)"
   xmlns:inkscape="http://www.inkscape.org/namespaces/inkscape"
   xmlns:sodipodi="http://sodipodi.sourceforge.net/DTD/sodipodi-0.dtd"
   xmlns="http://www.w3.org/2000/svg"
   xmlns:svg="http://www.w3.org/2000/svg">
  <defs
     id="defs1">
    <clipPath
       clipPathUnits="userSpaceOnUse"
       id="clipPath25">
      <rect
         style="fill:#ff0000;stroke:none;stroke-width:3;stroke-linecap:square;stroke-linejoin:miter;paint-order:stroke markers fill;stop-color:#000000"
         id="rect25-8"
         width="78"
         height="45.033199"
         x="763.61322"
         y="452.82422" />
    </clipPath>
    <clipPath
       clipPathUnits="userSpaceOnUse"
       id="clipPath33">
      <rect
         style="fill:#000000;stroke:none;stroke-width:0.999995;stroke-linecap:butt;stroke-linejoin:bevel;paint-order:stroke markers fill;stop-color:#000000"
         id="rect33"
         width="46.19186"
         height="80.006783"
         x="74.999985"
         y="399.99661" />
    </clipPath>
    <linearGradient
       id="swatch185"
       inkscape:swatch="solid">
      <stop
         style="stop-color:#000000;stop-opacity:1;"
         offset="0"
         id="stop185" />
    </linearGradient>
    <linearGradient
       id="swatch120"
       inkscape:swatch="solid">
      <stop
         style="stop-color:#000000;stop-opacity:1;"
         offset="0"
         id="stop120" />
    </linearGradient>
  </defs>
  <sodipodi:namedview
     id="namedview1"
     pagecolor="#ffffff"
     bordercolor="#000000"
     borderopacity="0.25"
     inkscape:showpageshadow="2"
     inkscape:pageopacity="0.0"
     inkscape:pagecheckerboard="0"
     inkscape:deskcolor="#d1d1d1"
     showgrid="true"
     inkscape:zoom="0.80585314"
     inkscape:cx="425.63587"
     inkscape:cy="523.04816"
     inkscape:window-width="2560"
     inkscape:window-height="1369"
     inkscape:window-x="-8"
     inkscape:window-y="-8"
     inkscape:window-maximized="1"
     inkscape:current-layer="svg1">
    <inkscape:grid
       id="grid2"
       units="px"
       originx="0"
       originy="0"
       spacingx="1"
       spacingy="1"
       empcolor="#0099e5"
       empopacity="0.30196078"
       color="#0099e5"
       opacity="0.14901961"
       empspacing="5"
       enabled="true"
       visible="true" />
  </sodipodi:namedview>
  <path
     d="m 480.59906,255.27317 q -56.96617,60.612 -116.66672,123.04693 -59.70055,61.97919 -123.9584,126.23704 -3.19011,3.19011 -6.83593,4.55729 -3.19011,1.3672 -7.7474,0.45573 -4.5573,-1.36718 -10.48178,-5.46875 -5.46876,-4.10157 -13.21615,-11.84896 -7.29168,-7.29167 -11.39324,-12.76042 -3.64584,-5.92449 -4.5573,-10.02605 -0.45572,-4.10156 0.45573,-7.29167 1.3672,-3.19011 4.10157,-5.92448 L 488.80219,157.29135 q 5.92448,-5.46876 11.39324,-9.11459 5.92448,-3.64583 15.95052,-3.64583 7.74741,0 13.67188,3.19011 6.38021,2.73436 13.67189,9.57031 l 298.50275,298.95848 q 2.73438,2.73437 3.64583,5.92448 1.36719,3.19011 0.45573,7.29167 -0.45573,4.10156 -4.55729,10.02605 -3.64584,5.46875 -10.9375,12.76042 -7.74741,7.74739 -13.67188,11.84896 -5.46877,4.10157 -10.02606,5.46875 -4.5573,0.91147 -8.20312,-0.45573 -3.19011,-1.36718 -6.38022,-4.55729 Q 728.06012,440.29929 668.35957,378.3201 608.65902,315.88517 551.69285,255.27317 v 638.47687 q 0,3.64584 -2.27866,6.38021 -1.82291,2.73438 -6.3802,4.55729 -4.10157,1.82293 -10.9375,3.19011 -6.38022,1.36718 -15.95054,1.36718 -9.57031,0 -16.40625,-1.36718 -6.38022,-1.36718 -10.93751,-3.19011 -4.10157,-1.82291 -6.38021,-4.55729 -1.82292,-2.73437 -1.82292,-6.38021 z"
     id="text4"
     style="-inkscape-font-specification:Calibri;stroke-width:28"
     aria-label="↑" />
</svg>
