<?xml version="1.0" encoding="UTF-8" standalone="no"?>
<!-- Generated by IcoMoon.io -->

<svg
   version="1.1"
   width="1024"
   height="1024"
   viewBox="0 0 1024 1024"
   id="svg1"
   sodipodi:docname="wafer.svg"
   inkscape:version="1.4 (86a8ad7, 2024-10-11)"
   xmlns:inkscape="http://www.inkscape.org/namespaces/inkscape"
   xmlns:sodipodi="http://sodipodi.sourceforge.net/DTD/sodipodi-0.dtd"
   xmlns:xlink="http://www.w3.org/1999/xlink"
   xmlns="http://www.w3.org/2000/svg"
   xmlns:svg="http://www.w3.org/2000/svg">
  <defs
     id="defs1">
    <pattern
       inkscape:collect="always"
       xlink:href="#pattern298"
       preserveAspectRatio="xMidYMid"
       id="pattern313"
       patternTransform="translate(775.92203,406.21433)" />
    <pattern
       inkscape:collect="always"
       xlink:href="#pattern298"
       preserveAspectRatio="xMidYMid"
       id="pattern312"
       patternTransform="translate(775.92203,237.21433)" />
    <pattern
       inkscape:collect="always"
       xlink:href="#pattern298"
       preserveAspectRatio="xMidYMid"
       id="pattern311"
       patternTransform="translate(775.92203,68.21433)" />
    <pattern
       inkscape:collect="always"
       xlink:href="#pattern298"
       preserveAspectRatio="xMidYMid"
       id="pattern310"
       patternTransform="translate(775.92203,-100.78567)" />
    <pattern
       inkscape:collect="always"
       xlink:href="#pattern298"
       preserveAspectRatio="xMidYMid"
       id="pattern309"
       patternTransform="translate(619.92203,406.21433)" />
    <pattern
       inkscape:collect="always"
       xlink:href="#pattern298"
       preserveAspectRatio="xMidYMid"
       id="pattern308"
       patternTransform="translate(619.92203,237.21433)" />
    <pattern
       inkscape:collect="always"
       xlink:href="#pattern298"
       preserveAspectRatio="xMidYMid"
       id="pattern307"
       patternTransform="translate(619.92203,68.21433)" />
    <pattern
       inkscape:collect="always"
       xlink:href="#pattern298"
       preserveAspectRatio="xMidYMid"
       id="pattern306"
       patternTransform="translate(619.92203,-100.78567)" />
    <pattern
       inkscape:collect="always"
       xlink:href="#pattern298"
       preserveAspectRatio="xMidYMid"
       id="pattern305"
       patternTransform="translate(463.92203,406.21433)" />
    <pattern
       inkscape:collect="always"
       xlink:href="#pattern298"
       preserveAspectRatio="xMidYMid"
       id="pattern304"
       patternTransform="translate(463.92203,237.21433)" />
    <pattern
       inkscape:collect="always"
       xlink:href="#pattern298"
       preserveAspectRatio="xMidYMid"
       id="pattern303"
       patternTransform="translate(463.92203,68.21433)" />
    <pattern
       inkscape:collect="always"
       xlink:href="#pattern298"
       preserveAspectRatio="xMidYMid"
       id="pattern302"
       patternTransform="translate(463.92203,-100.78567)" />
    <pattern
       inkscape:collect="always"
       xlink:href="#pattern298"
       preserveAspectRatio="xMidYMid"
       id="pattern301"
       patternTransform="translate(307.92203,406.21433)" />
    <pattern
       inkscape:collect="always"
       xlink:href="#pattern298"
       preserveAspectRatio="xMidYMid"
       id="pattern300"
       patternTransform="translate(307.92203,237.21433)" />
    <pattern
       inkscape:collect="always"
       xlink:href="#pattern298"
       preserveAspectRatio="xMidYMid"
       id="pattern299"
       patternTransform="translate(307.92203,68.21433)" />
    <pattern
       inkscape:collect="always"
       xlink:href="#circle"
       preserveAspectRatio="xMidYMid"
       id="pattern298"
       patternTransform="translate(307.92203,-100.78567)" />
    <pattern
       patternUnits="userSpaceOnUse"
       width="10"
       height="10"
       patternTransform="translate(307.92203,-100.78567)"
       preserveAspectRatio="xMidYMid"
       id="circle"
       style="fill:#000000"
       x="0"
       y="0"
       inkscape:label="Circle"
       inkscape:collect="always"
       inkscape:isstock="true">
      <circle
         style="display:inline;fill-opacity:1;stroke-width:6;stroke-linecap:square;paint-order:markers fill stroke;stop-color:#000000"
         id="path10"
         cx="5"
         cy="5"
         r="5" />
    </pattern>
    <clipPath
       clipPathUnits="userSpaceOnUse"
       id="clipPath25">
      <rect
         style="fill:#ff0000;stroke:none;stroke-width:3;stroke-linecap:square;stroke-linejoin:miter;paint-order:stroke markers fill;stop-color:#000000"
         id="rect25-8"
         width="78"
         height="45.033199"
         x="763.61322"
         y="452.82422" />
    </clipPath>
    <clipPath
       clipPathUnits="userSpaceOnUse"
       id="clipPath33">
      <rect
         style="fill:#000000;stroke:none;stroke-width:0.999995;stroke-linecap:butt;stroke-linejoin:bevel;paint-order:stroke markers fill;stop-color:#000000"
         id="rect33"
         width="46.19186"
         height="80.006783"
         x="74.999985"
         y="399.99661" />
    </clipPath>
    <linearGradient
       id="swatch185"
       inkscape:swatch="solid">
      <stop
         style="stop-color:#000000;stop-opacity:1;"
         offset="0"
         id="stop185" />
    </linearGradient>
    <linearGradient
       id="swatch120"
       inkscape:swatch="solid">
      <stop
         style="stop-color:#000000;stop-opacity:1;"
         offset="0"
         id="stop120" />
    </linearGradient>
  </defs>
  <sodipodi:namedview
     id="namedview1"
     pagecolor="#ffffff"
     bordercolor="#000000"
     borderopacity="0.25"
     inkscape:showpageshadow="2"
     inkscape:pageopacity="0.0"
     inkscape:pagecheckerboard="0"
     inkscape:deskcolor="#d1d1d1"
     showgrid="true"
     inkscape:zoom="0.80585314"
     inkscape:cx="430.59955"
     inkscape:cy="551.58934"
     inkscape:window-width="2560"
     inkscape:window-height="1369"
     inkscape:window-x="-8"
     inkscape:window-y="-8"
     inkscape:window-maximized="1"
     inkscape:current-layer="svg1">
    <inkscape:grid
       id="grid2"
       units="px"
       originx="0"
       originy="0"
       spacingx="1"
       spacingy="1"
       empcolor="#0099e5"
       empopacity="0.30196078"
       color="#0099e5"
       opacity="0.14901961"
       empspacing="5"
       enabled="true"
       visible="true" />
  </sodipodi:namedview>
  <path
     d="M 512.08398,40 C 389.45188,40.110441 271.86572,88.929903 185.2168,175.70898 98.567873,262.48807 49.926371,380.14521 50,502.77734 50.073629,625.40947 98.858264,743.00862 185.61133,829.68359 272.36439,916.35856 390.00653,965.03681 512.63867,965 635.27082,964.96319 752.88493,916.21532 839.58594,829.48828 926.28695,742.76124 975,625.13215 975,502.5 h -33.43359 c 0,113.77956 -45.18279,222.88324 -125.625,303.34961 -80.44222,80.46637 -189.53295,125.68264 -303.3125,125.7168 C 398.84936,931.60056 289.73075,886.45126 209.24023,806.0332 128.74972,725.61515 83.501907,616.53735 83.433594,502.75781 83.36528,388.97828 128.48306,279.84669 208.87695,199.33203 289.27085,118.81738 398.33377,73.536062 512.11328,73.433594 625.89279,73.331124 735.03739,118.41544 815.57617,198.78516 896.11496,279.15487 941.42978,388.2049 941.56641,501.98437 L 975,501.94531 C 974.85274,379.31325 925.99845,261.74201 839.19336,175.11914 752.38827,88.496273 634.71609,39.889558 512.08398,40 Z"
     id="path185" />
  <g
     id="rect185">
    <path
       style="fill:url(#pattern298)"
       d="M 230,200 H 330 V 300 H 230 Z"
       id="path313" />
    <path
       d="M 220,190 V 310 H 340 V 190 Z m 20,20 h 80 v 80 h -80 z"
       id="path314" />
  </g>
  <use
     x="0"
     y="0"
     inkscape:tiled-clone-of="#rect185"
     xlink:href="#rect185"
     id="use257"
     style="display:none" />
  <g
     id="use258">
    <path
       style="fill:url(#pattern299)"
       d="M 230,369 H 330 V 469 H 230 Z"
       id="path315" />
    <path
       d="M 220,359 V 479 H 340 V 359 Z m 20,20 h 80 v 80 h -80 z"
       id="path316" />
  </g>
  <g
     id="use259">
    <path
       style="fill:url(#pattern300)"
       d="M 230,538 H 330 V 638 H 230 Z"
       id="path317" />
    <path
       d="M 220,528 V 648 H 340 V 528 Z m 20,20 h 80 v 80 h -80 z"
       id="path318" />
  </g>
  <g
     id="use260">
    <path
       style="fill:url(#pattern301)"
       d="M 230,707 H 330 V 807 H 230 Z"
       id="path319" />
    <path
       d="M 220,697 V 817 H 340 V 697 Z m 20,20 h 80 v 80 h -80 z"
       id="path320" />
  </g>
  <g
     id="use261">
    <path
       style="fill:url(#pattern302)"
       d="M 386,200 H 486 V 300 H 386 Z"
       id="path321" />
    <path
       d="M 376,190 V 310 H 496 V 190 Z m 20,20 h 80 v 80 h -80 z"
       id="path322" />
  </g>
  <g
     id="use262">
    <path
       style="fill:url(#pattern303)"
       d="M 386,369 H 486 V 469 H 386 Z"
       id="path323" />
    <path
       d="M 376,359 V 479 H 496 V 359 Z m 20,20 h 80 v 80 h -80 z"
       id="path324" />
  </g>
  <g
     id="use263">
    <path
       style="fill:url(#pattern304)"
       d="M 386,538 H 486 V 638 H 386 Z"
       id="path325" />
    <path
       d="M 376,528 V 648 H 496 V 528 Z m 20,20 h 80 v 80 h -80 z"
       id="path326" />
  </g>
  <g
     id="use264">
    <path
       style="fill:url(#pattern305)"
       d="M 386,707 H 486 V 807 H 386 Z"
       id="path327" />
    <path
       d="M 376,697 V 817 H 496 V 697 Z m 20,20 h 80 v 80 h -80 z"
       id="path328" />
  </g>
  <g
     id="use265">
    <path
       style="fill:url(#pattern306)"
       d="M 542,200 H 642 V 300 H 542 Z"
       id="path329" />
    <path
       d="M 532,190 V 310 H 652 V 190 Z m 20,20 h 80 v 80 h -80 z"
       id="path330" />
  </g>
  <g
     id="use266">
    <path
       style="fill:url(#pattern307)"
       d="M 542,369 H 642 V 469 H 542 Z"
       id="path331" />
    <path
       d="M 532,359 V 479 H 652 V 359 Z m 20,20 h 80 v 80 h -80 z"
       id="path332" />
  </g>
  <g
     id="use267">
    <path
       style="fill:url(#pattern308)"
       d="M 542,538 H 642 V 638 H 542 Z"
       id="path333" />
    <path
       d="M 532,528 V 648 H 652 V 528 Z m 20,20 h 80 v 80 h -80 z"
       id="path334" />
  </g>
  <g
     id="use268">
    <path
       style="fill:url(#pattern309)"
       d="M 542,707 H 642 V 807 H 542 Z"
       id="path335" />
    <path
       d="M 532,697 V 817 H 652 V 697 Z m 20,20 h 80 v 80 h -80 z"
       id="path336" />
  </g>
  <g
     id="use269">
    <path
       style="fill:url(#pattern310)"
       d="M 698,200 H 798 V 300 H 698 Z"
       id="path337" />
    <path
       d="M 688,190 V 310 H 808 V 190 Z m 20,20 h 80 v 80 h -80 z"
       id="path338" />
  </g>
  <g
     id="use270">
    <path
       style="fill:url(#pattern311)"
       d="M 698,369 H 798 V 469 H 698 Z"
       id="path339" />
    <path
       d="M 688,359 V 479 H 808 V 359 Z m 20,20 h 80 v 80 h -80 z"
       id="path340" />
  </g>
  <g
     id="use271">
    <path
       style="fill:url(#pattern312)"
       d="M 698,538 H 798 V 638 H 698 Z"
       id="path341" />
    <path
       d="M 688,528 V 648 H 808 V 528 Z m 20,20 h 80 v 80 h -80 z"
       id="path342" />
  </g>
  <g
     id="use272">
    <path
       style="fill:url(#pattern313)"
       d="M 698,707 H 798 V 807 H 698 Z"
       id="path343" />
    <path
       d="M 688,697 V 817 H 808 V 697 Z m 20,20 h 80 v 80 h -80 z"
       id="path344" />
  </g>
</svg>
