{
  "accessors": [
    {
      "bufferView": 2,
      "componentType": 5126,
      "count": 2403,
      "max": [
        7.944097518920898,
        7.559528827667236,
        9.732160568237305
      ],
      "min": [
        -7.944099426269531,
        -12.455924987792969,
        -8.022420883178711
      ],
      "type": "VEC3"
    },
    {
      "bufferView": 2,
      "byteOffset": 28836,
      "componentType": 5126,
      "count": 2403,
      "max": [
        0.9997808933258057,
        0.9999297857284546,
        0.9956075549125671
      ],
      "min": [
        -0.9996504783630371,
        -0.9998729825019836,
        -0.9998973608016968
      ],
      "type": "VEC3"
    },
    {
      "bufferView": 3,
      "componentType": 5126,
      "count": 2403,
      "max": [
        0.9999992847442627,
        0.9922862648963928,
        0.999937117099762,
        1.0
      ],
      "min": [
        -0.9999867677688599,
        -0.9958747029304504,
        -0.9999035000801086,
        -1.0
      ],
      "type": "VEC4"
    },
    {
      "bufferView": 1,
      "componentType": 5126,
      "count": 2403,
      "max": [
        0.9865964651107788,
        0.9913080334663391
      ],
      "min": [
        0.013902068138122559,
        0.008107662200927734
      ],
      "type": "VEC2"
    },
    {
      "bufferView": 1,
      "byteOffset": 19224,
      "componentType": 5126,
      "count": 2403,
      "max": [
        0.9865964651107788,
        0.9913080334663391
      ],
      "min": [
        0.013902068138122559,
        0.008107662200927734
      ],
      "type": "VEC2"
    },
    {
      "bufferView": 1,
      "byteOffset": 38448,
      "componentType": 5126,
      "count": 2403,
      "max": [
        0.9865964651107788,
        0.9913080334663391
      ],
      "min": [
        0.013902068138122559,
        0.008107662200927734
      ],
      "type": "VEC2"
    },
    {
      "bufferView": 1,
      "byteOffset": 57672,
      "componentType": 5126,
      "count": 2403,
      "max": [
        0.9865964651107788,
        0.9913080334663391
      ],
      "min": [
        0.013902068138122559,
        0.008107662200927734
      ],
      "type": "VEC2"
    },
    {
      "bufferView": 0,
      "componentType": 5125,
      "count": 9102,
      "type": "SCALAR"
    }
  ],
  "asset": {
    "extras": {
      "author": "PaulCarstens (https://sketchfab.com/PaulCarstens)",
      "license": "CC-BY-4.0 (http://creativecommons.org/licenses/by/4.0/)",
      "source": "https://sketchfab.com/3d-models/medieval-knight-helm-f9a8cb4c7ba346b7a6ebe49de56b70b8",
      "title": "Medieval Knight Helm"
    },
    "generator": "Sketchfab-12.66.0",
    "version": "2.0"
  },
  "bufferViews": [
    {
      "buffer": 0,
      "byteLength": 36408,
      "name": "floatBufferViews",
      "target": 34963
    },
    {
      "buffer": 0,
      "byteLength": 76896,
      "byteOffset": 36408,
      "byteStride": 8,
      "name": "floatBufferViews",
      "target": 34962
    },
    {
      "buffer": 0,
      "byteLength": 57672,
      "byteOffset": 113304,
      "byteStride": 12,
      "name": "floatBufferViews",
      "target": 34962
    },
    {
      "buffer": 0,
      "byteLength": 38448,
      "byteOffset": 170976,
      "byteStride": 16,
      "name": "floatBufferViews",
      "target": 34962
    }
  ],
  "buffers": [
    {
      "byteLength": 209424,
      "uri": "scene.bin"
    }
  ],
  "images": [
    {
      "uri": "textures/MAT_Helm_baseColor.png"
    },
    {
      "uri": "textures/MAT_Helm_metallicRoughness.png"
    },
    {
      "uri": "textures/MAT_Helm_normal.png"
    }
  ],
  "materials": [
    {
      "doubleSided": true,
      "name": "MAT_Helm",
      "normalTexture": {
        "index": 2
      },
      "pbrMetallicRoughness": {
        "baseColorTexture": {
          "index": 0
        },
        "metallicRoughnessTexture": {
          "index": 1
        }
      }
    }
  ],
  "meshes": [
    {
      "name": "Helm_01:MESH_Helm_MAT_Helm_0",
      "primitives": [
        {
          "attributes": {
            "NORMAL": 1,
            "POSITION": 0,
            "TANGENT": 2,
            "TEXCOORD_0": 3,
            "TEXCOORD_1": 4,
            "TEXCOORD_2": 5,
            "TEXCOORD_3": 6
          },
          "indices": 7,
          "material": 0,
          "mode": 4
        }
      ]
    }
  ],
  "nodes": [
    {
      "children": [
        1
      ],
      "matrix": [
        1.0,
        0.0,
        0.0,
        0.0,
        0.0,
        2.220446049250313e-16,
        -1.0,
        0.0,
        0.0,
        1.0,
        2.220446049250313e-16,
        0.0,
        0.0,
        0.0,
        0.0,
        1.0
      ],
      "name": "Sketchfab_model"
    },
    {
      "children": [
        2
      ],
      "matrix": [
        1.0,
        0.0,
        0.0,
        0.0,
        0.0,
        0.0,
        1.0,
        0.0,
        0.0,
        -1.0,
        0.0,
        0.0,
        0.0,
        0.0,
        0.0,
        1.0
      ],
      "name": "712310d4aa2d47b290538615fda14103.fbx"
    },
    {
      "children": [
        3
      ],
      "name": "RootNode"
    },
    {
      "children": [
        4
      ],
      "matrix": [
        0.198484405875206,
        -1.0899772004813012e-17,
        0.0,
        0.0,
        1.0899772004813012e-17,
        0.198484405875206,
        0.0,
        0.0,
        0.0,
        0.0,
        0.198484405875206,
        0.0,
        -7.643848221050575e-07,
        2.5032167434692383,
        0.6851915121078491,
        1.0
      ],
      "name": "Helm_01:MESH_Helm"
    },
    {
      "mesh": 0,
      "name": "Helm_01:MESH_Helm_MAT_Helm_0"
    }
  ],
  "samplers": [
    {
      "magFilter": 9729,
      "minFilter": 9987,
      "wrapS": 10497,
      "wrapT": 10497
    }
  ],
  "scene": 0,
  "scenes": [
    {
      "name": "Sketchfab_Scene",
      "nodes": [
        0
      ]
    }
  ],
  "textures": [
    {
      "sampler": 0,
      "source": 0
    },
    {
      "sampler": 0,
      "source": 1
    },
    {
      "sampler": 0,
      "source": 2
    }
  ]
}
