{
  "accessors": [
    {
      "bufferView": 2,
      "componentType": 5126,
      "count": 602,
      "max": [
        0.116068996489048,
        0.7454720139503479,
        0.9188529849052429
      ],
      "min": [
        -0.12724600732326508,
        -0.7860749959945679,
        -0.9188519716262817
      ],
      "type": "VEC3"
    },
    {
      "bufferView": 2,
      "byteOffset": 7224,
      "componentType": 5126,
      "count": 602,
      "max": [
        1.0,
        1.0,
        1.0
      ],
      "min": [
        -1.0,
        -1.0,
        -1.0
      ],
      "type": "VEC3"
    },
    {
      "bufferView": 3,
      "componentType": 5126,
      "count": 602,
      "max": [
        1.0,
        1.0,
        1.0,
        1.0
      ],
      "min": [
        -1.0,
        -1.0,
        -1.0,
        -1.0
      ],
      "type": "VEC4"
    },
    {
      "bufferView": 1,
      "componentType": 5126,
      "count": 602,
      "max": [
        0.9988340139389038,
        0.9957810044288635
      ],
      "min": [
        0.005315289832651615,
        0.0008651139796711504
      ],
      "type": "VEC2"
    },
    {
      "bufferView": 0,
      "componentType": 5125,
      "count": 2196,
      "type": "SCALAR"
    },
    {
      "bufferView": 2,
      "byteOffset": 14448,
      "componentType": 5126,
      "count": 104,
      "max": [
        0.14410999417304993,
        -0.10731600224971771,
        0.14879600703716278
      ],
      "min": [
        -0.021395299583673477,
        -0.4049080014228821,
        -0.14879600703716278
      ],
      "type": "VEC3"
    },
    {
      "bufferView": 2,
      "byteOffset": 15696,
      "componentType": 5126,
      "count": 104,
      "max": [
        0.7440718412399292,
        1.0,
        1.0
      ],
      "min": [
        -2.7984884809484356e-07,
        -1.0,
        -1.0
      ],
      "type": "VEC3"
    },
    {
      "bufferView": 3,
      "byteOffset": 9632,
      "componentType": 5126,
      "count": 104,
      "max": [
        0.739162027835846,
        0.7436590194702148,
        0.9943580031394958,
        1.0
      ],
      "min": [
        -1.0,
        -0.7440680265426636,
        -0.7436580061912537,
        1.0
      ],
      "type": "VEC4"
    },
    {
      "bufferView": 1,
      "byteOffset": 4816,
      "componentType": 5126,
      "count": 104,
      "max": [
        0.48645099997520447,
        0.8939999938011169
      ],
      "min": [
        0.2851420044898987,
        0.2271769940853119
      ],
      "type": "VEC2"
    },
    {
      "bufferView": 0,
      "byteOffset": 8784,
      "componentType": 5125,
      "count": 414,
      "type": "SCALAR"
    },
    {
      "bufferView": 2,
      "byteOffset": 16944,
      "componentType": 5126,
      "count": 348,
      "max": [
        0.12167699635028839,
        0.07083550095558167,
        0.6403970122337341
      ],
      "min": [
        0.05818679928779602,
        -0.7085919976234436,
        -0.6403970122337341
      ],
      "type": "VEC3"
    },
    {
      "bufferView": 2,
      "byteOffset": 21120,
      "componentType": 5126,
      "count": 348,
      "max": [
        0.7763858437538147,
        1.0,
        0.7763858437538147
      ],
      "min": [
        -0.7763858437538147,
        -1.0,
        -0.7763858437538147
      ],
      "type": "VEC3"
    },
    {
      "bufferView": 3,
      "byteOffset": 11296,
      "componentType": 5126,
      "count": 348,
      "max": [
        1.0,
        0.776386022567749,
        1.0,
        1.0
      ],
      "min": [
        -1.0,
        -0.8543350100517273,
        -1.0,
        -1.0
      ],
      "type": "VEC4"
    },
    {
      "bufferView": 1,
      "byteOffset": 5648,
      "componentType": 5126,
      "count": 348,
      "max": [
        0.9916849732398987,
        0.9946500062942505
      ],
      "min": [
        0.003029969986528158,
        0.0008651139796711504
      ],
      "type": "VEC2"
    },
    {
      "bufferView": 0,
      "byteOffset": 10440,
      "componentType": 5125,
      "count": 900,
      "type": "SCALAR"
    },
    {
      "bufferView": 2,
      "byteOffset": 25296,
      "componentType": 5126,
      "count": 144,
      "max": [
        0.12107499688863754,
        0.33144599199295044,
        0.667273998260498
      ],
      "min": [
        0.0886216014623642,
        0.2629689872264862,
        0.21986700594425201
      ],
      "type": "VEC3"
    },
    {
      "bufferView": 2,
      "byteOffset": 27024,
      "componentType": 5126,
      "count": 144,
      "max": [
        1.0,
        1.0,
        0.8042028546333313
      ],
      "min": [
        -1.0,
        -1.0,
        -0.8042111396789551
      ],
      "type": "VEC3"
    },
    {
      "bufferView": 3,
      "byteOffset": 16864,
      "componentType": 5126,
      "count": 144,
      "max": [
        1.0,
        1.0,
        0.19614599645137787,
        1.0
      ],
      "min": [
        -1.0,
        -1.0,
        -1.0,
        1.0
      ],
      "type": "VEC4"
    },
    {
      "bufferView": 1,
      "byteOffset": 8432,
      "componentType": 5126,
      "count": 144,
      "max": [
        0.9265649914741516,
        0.9057160019874573
      ],
      "min": [
        0.05240989848971367,
        0.42091798782348633
      ],
      "type": "VEC2"
    },
    {
      "bufferView": 0,
      "byteOffset": 14040,
      "componentType": 5125,
      "count": 480,
      "type": "SCALAR"
    },
    {
      "bufferView": 2,
      "byteOffset": 28752,
      "componentType": 5126,
      "count": 186,
      "max": [
        0.1545809954404831,
        0.7052919864654541,
        0.161763995885849
      ],
      "min": [
        -0.1370690017938614,
        -0.2975269854068756,
        -0.45402398705482483
      ],
      "type": "VEC3"
    },
    {
      "bufferView": 2,
      "byteOffset": 30984,
      "componentType": 5126,
      "count": 186,
      "max": [
        0.7336739301681519,
        1.0,
        1.0
      ],
      "min": [
        -0.692974328994751,
        -1.0,
        -1.0
      ],
      "type": "VEC3"
    },
    {
      "bufferView": 3,
      "byteOffset": 19168,
      "componentType": 5126,
      "count": 186,
      "max": [
        1.0,
        1.0,
        1.0,
        1.0
      ],
      "min": [
        -1.0,
        -0.999987006187439,
        -1.0,
        1.0
      ],
      "type": "VEC4"
    },
    {
      "bufferView": 1,
      "byteOffset": 9584,
      "componentType": 5126,
      "count": 186,
      "max": [
        0.9879130125045776,
        0.9890159964561462
      ],
      "min": [
        0.05746519938111305,
        0.1355919986963272
      ],
      "type": "VEC2"
    },
    {
      "bufferView": 0,
      "byteOffset": 15960,
      "componentType": 5125,
      "count": 540,
      "type": "SCALAR"
    },
    {
      "bufferView": 2,
      "byteOffset": 33216,
      "componentType": 5126,
      "count": 378,
      "max": [
        0.20428000390529633,
        0.3476890027523041,
        0.8992689847946167
      ],
      "min": [
        -0.0720100998878479,
        -0.6334369778633118,
        -0.8992689847946167
      ],
      "type": "VEC3"
    },
    {
      "bufferView": 2,
      "byteOffset": 37752,
      "componentType": 5126,
      "count": 378,
      "max": [
        1.0,
        1.0,
        1.0
      ],
      "min": [
        -2.5288110805377073e-07,
        -1.0,
        -1.0
      ],
      "type": "VEC3"
    },
    {
      "bufferView": 3,
      "byteOffset": 22144,
      "componentType": 5126,
      "count": 378,
      "max": [
        1.0,
        1.0,
        1.0,
        1.0
      ],
      "min": [
        -1.0,
        -0.7715179920196533,
        -1.0,
        -1.0
      ],
      "type": "VEC4"
    },
    {
      "bufferView": 1,
      "byteOffset": 11072,
      "componentType": 5126,
      "count": 378,
      "max": [
        0.9837769865989685,
        0.9944409728050232
      ],
      "min": [
        0.0008651139796711504,
        0.0008651139796711504
      ],
      "type": "VEC2"
    },
    {
      "bufferView": 0,
      "byteOffset": 18120,
      "componentType": 5125,
      "count": 1212,
      "type": "SCALAR"
    },
    {
      "bufferView": 2,
      "byteOffset": 42288,
      "componentType": 5126,
      "count": 60,
      "max": [
        0.08993220329284668,
        0.40816599130630493,
        0.6436349749565125
      ],
      "min": [
        -0.058734599500894547,
        -0.7860749959945679,
        -0.6436349749565125
      ],
      "type": "VEC3"
    },
    {
      "bufferView": 2,
      "byteOffset": 43008,
      "componentType": 5126,
      "count": 60,
      "max": [
        0.987430214881897,
        0.9953806400299072,
        1.0
      ],
      "min": [
        -2.5051403440556896e-07,
        -1.0,
        -1.0
      ],
      "type": "VEC3"
    },
    {
      "bufferView": 3,
      "byteOffset": 28192,
      "componentType": 5126,
      "count": 60,
      "max": [
        1.0,
        0.9931319952011108,
        0.9119740128517151,
        1.0
      ],
      "min": [
        -1.0,
        -1.0,
        -0.7071070075035095,
        1.0
      ],
      "type": "VEC4"
    },
    {
      "bufferView": 1,
      "byteOffset": 14096,
      "componentType": 5126,
      "count": 60,
      "max": [
        0.8251060247421265,
        0.682121992111206
      ],
      "min": [
        0.05746519938111305,
        0.19324199855327606
      ],
      "type": "VEC2"
    },
    {
      "bufferView": 0,
      "byteOffset": 22968,
      "componentType": 5125,
      "count": 204,
      "type": "SCALAR"
    },
    {
      "bufferView": 2,
      "byteOffset": 43728,
      "componentType": 5126,
      "count": 258,
      "max": [
        0.11918599903583527,
        0.15406900644302368,
        0.4700720012187958
      ],
      "min": [
        -0.018165400251746178,
        -0.7860749959945679,
        -0.4700720012187958
      ],
      "type": "VEC3"
    },
    {
      "bufferView": 2,
      "byteOffset": 46824,
      "componentType": 5126,
      "count": 258,
      "max": [
        1.0,
        1.0,
        1.0
      ],
      "min": [
        -0.9045397043228149,
        -1.0,
        -1.0
      ],
      "type": "VEC3"
    },
    {
      "bufferView": 3,
      "byteOffset": 29152,
      "componentType": 5126,
      "count": 258,
      "max": [
        1.0,
        0.8833960294723511,
        1.0,
        1.0
      ],
      "min": [
        -1.0,
        -1.0,
        -0.9999880194664001,
        1.0
      ],
      "type": "VEC4"
    },
    {
      "bufferView": 1,
      "byteOffset": 14576,
      "componentType": 5126,
      "count": 258,
      "max": [
        0.9991350173950195,
        0.9189779758453369
      ],
      "min": [
        0.03784620016813278,
        0.10196699947118759
      ],
      "type": "VEC2"
    },
    {
      "bufferView": 0,
      "byteOffset": 23784,
      "componentType": 5125,
      "count": 756,
      "type": "SCALAR"
    },
    {
      "bufferView": 2,
      "byteOffset": 49920,
      "componentType": 5126,
      "count": 326,
      "max": [
        0.15967999398708344,
        0.786076009273529,
        1.0
      ],
      "min": [
        -0.20428000390529633,
        -0.7860749959945679,
        -1.0
      ],
      "type": "VEC3"
    },
    {
      "bufferView": 2,
      "byteOffset": 53832,
      "componentType": 5126,
      "count": 326,
      "max": [
        1.0,
        1.0,
        1.0
      ],
      "min": [
        -2.9504195708796033e-07,
        -1.0,
        -1.0
      ],
      "type": "VEC3"
    },
    {
      "bufferView": 3,
      "byteOffset": 33280,
      "componentType": 5126,
      "count": 326,
      "max": [
        1.0,
        1.0,
        1.0,
        1.0
      ],
      "min": [
        -1.0,
        -1.0,
        -1.0,
        1.0
      ],
      "type": "VEC4"
    },
    {
      "bufferView": 1,
      "byteOffset": 16640,
      "componentType": 5126,
      "count": 326,
      "max": [
        0.9807419776916504,
        0.9746800065040588
      ],
      "min": [
        0.0008651139796711504,
        0.0008651139796711504
      ],
      "type": "VEC2"
    },
    {
      "bufferView": 0,
      "byteOffset": 26808,
      "componentType": 5125,
      "count": 1176,
      "type": "SCALAR"
    },
    {
      "bufferView": 2,
      "byteOffset": 57744,
      "componentType": 5126,
      "count": 48,
      "max": [
        1.9691400527954102,
        -0.5891789793968201,
        0.34921398758888245
      ],
      "min": [
        0.1828639954328537,
        -0.7906590104103088,
        -0.34911999106407166
      ],
      "type": "VEC3"
    },
    {
      "bufferView": 2,
      "byteOffset": 58320,
      "componentType": 5126,
      "count": 48,
      "max": [
        0.7071068286895752,
        0.7203445434570313,
        0.7071068286895752
      ],
      "min": [
        -0.7071068286895752,
        -1.1520197062964144e-07,
        -0.7071068286895752
      ],
      "type": "VEC3"
    },
    {
      "bufferView": 3,
      "byteOffset": 38496,
      "componentType": 5126,
      "count": 48,
      "max": [
        0.9499329924583435,
        1.0,
        0.7071070075035095,
        1.0
      ],
      "min": [
        -0.9499329924583435,
        -1.0,
        -0.7071070075035095,
        1.0
      ],
      "type": "VEC4"
    },
    {
      "bufferView": 1,
      "byteOffset": 19248,
      "componentType": 5126,
      "count": 48,
      "max": [
        0.9827229976654053,
        0.9928460121154785
      ],
      "min": [
        0.004378709942102432,
        0.4001069962978363
      ],
      "type": "VEC2"
    },
    {
      "bufferView": 0,
      "byteOffset": 31512,
      "componentType": 5125,
      "count": 120,
      "type": "SCALAR"
    },
    {
      "bufferView": 2,
      "byteOffset": 58896,
      "componentType": 5126,
      "count": 118,
      "max": [
        1.940000057220459,
        -0.3366129994392395,
        1.6805100440979004
      ],
      "min": [
        1.8111799955368042,
        -1.0003900527954102,
        -1.6804200410842896
      ],
      "type": "VEC3"
    },
    {
      "bufferView": 2,
      "byteOffset": 60312,
      "componentType": 5126,
      "count": 118,
      "max": [
        1.0,
        0.7223992347717285,
        0.850321888923645
      ],
      "min": [
        -0.7956741452217102,
        -0.7006040215492249,
        -0.850321888923645
      ],
      "type": "VEC3"
    },
    {
      "bufferView": 3,
      "byteOffset": 39264,
      "componentType": 5126,
      "count": 118,
      "max": [
        0.8503220081329346,
        1.0,
        1.0,
        1.0
      ],
      "min": [
        -0.8164970278739929,
        -0.8888630270957947,
        -1.0,
        -1.0
      ],
      "type": "VEC4"
    },
    {
      "bufferView": 1,
      "byteOffset": 19632,
      "componentType": 5126,
      "count": 118,
      "max": [
        0.5696060061454773,
        0.9595440030097961
      ],
      "min": [
        0.27438899874687195,
        0.6599820256233215
      ],
      "type": "VEC2"
    },
    {
      "bufferView": 0,
      "byteOffset": 31992,
      "componentType": 5125,
      "count": 300,
      "type": "SCALAR"
    },
    {
      "bufferView": 2,
      "byteOffset": 61728,
      "componentType": 5126,
      "count": 304,
      "max": [
        1.5715899467468262,
        -0.3044779896736145,
        1.7827999591827393
      ],
      "min": [
        0.07057970017194748,
        -0.6145889759063721,
        -1.7826999425888062
      ],
      "type": "VEC3"
    },
    {
      "bufferView": 2,
      "byteOffset": 65376,
      "componentType": 5126,
      "count": 304,
      "max": [
        0.8457478880882263,
        0.7015989422798157,
        0.7274303436279297
      ],
      "min": [
        -0.8457478880882263,
        -1.1520305776002715e-07,
        -0.7274309992790222
      ],
      "type": "VEC3"
    },
    {
      "bufferView": 3,
      "byteOffset": 41152,
      "componentType": 5126,
      "count": 304,
      "max": [
        0.8164970278739929,
        1.0,
        0.8521270155906677,
        1.0
      ],
      "min": [
        -0.6613579988479614,
        -1.0,
        -0.8521270155906677,
        -1.0
      ],
      "type": "VEC4"
    },
    {
      "bufferView": 1,
      "byteOffset": 20576,
      "componentType": 5126,
      "count": 304,
      "max": [
        0.9983900189399719,
        0.9986649751663208
      ],
      "min": [
        0.1100429967045784,
        0.005356539972126484
      ],
      "type": "VEC2"
    },
    {
      "bufferView": 0,
      "byteOffset": 33192,
      "componentType": 5125,
      "count": 768,
      "type": "SCALAR"
    },
    {
      "bufferView": 2,
      "byteOffset": 69024,
      "componentType": 5126,
      "count": 28,
      "max": [
        1.792829990386963,
        -0.6494420170783997,
        -1.0626200437545776
      ],
      "min": [
        1.7402499914169312,
        -0.7709389925003052,
        -1.144320011138916
      ],
      "type": "VEC3"
    },
    {
      "bufferView": 2,
      "byteOffset": 69360,
      "componentType": 5126,
      "count": 28,
      "max": [
        0.7778195142745972,
        0.7952398657798767,
        0.7168269753456116
      ],
      "min": [
        -0.7778191566467285,
        -0.7071068286895752,
        -5.872371389159525e-08
      ],
      "type": "VEC3"
    },
    {
      "bufferView": 3,
      "byteOffset": 46016,
      "componentType": 5126,
      "count": 28,
      "max": [
        0.7952399849891663,
        0.7778199911117554,
        1.0,
        1.0
      ],
      "min": [
        -0.7952399849891663,
        -0.7071070075035095,
        -1.0,
        1.0
      ],
      "type": "VEC4"
    },
    {
      "bufferView": 1,
      "byteOffset": 23008,
      "componentType": 5126,
      "count": 28,
      "max": [
        0.5816140174865723,
        0.7416750192642212
      ],
      "min": [
        0.3474169969558716,
        0.54790198802948
      ],
      "type": "VEC2"
    },
    {
      "bufferView": 0,
      "byteOffset": 36264,
      "componentType": 5125,
      "count": 72,
      "type": "SCALAR"
    },
    {
      "bufferView": 2,
      "byteOffset": 69696,
      "componentType": 5126,
      "count": 275,
      "max": [
        2.738219976425171,
        0.20233799517154694,
        0.8078280091285706
      ],
      "min": [
        1.909250020980835,
        -0.8113309741020203,
        0.5254769921302795
      ],
      "type": "VEC3"
    },
    {
      "bufferView": 2,
      "byteOffset": 72996,
      "componentType": 5126,
      "count": 275,
      "max": [
        1.0,
        1.0,
        0.5773503184318542
      ],
      "min": [
        -1.0,
        -1.0,
        -1.0
      ],
      "type": "VEC3"
    },
    {
      "bufferView": 3,
      "byteOffset": 46464,
      "componentType": 5126,
      "count": 275,
      "max": [
        1.0,
        1.0,
        1.0,
        1.0
      ],
      "min": [
        -1.0,
        -0.9999539852142334,
        -1.0,
        -1.0
      ],
      "type": "VEC4"
    },
    {
      "bufferView": 1,
      "byteOffset": 23232,
      "componentType": 5126,
      "count": 275,
      "max": [
        0.9912930130958557,
        0.9970149993896484
      ],
      "min": [
        0.0026040400844067335,
        0.005003270227462053
      ],
      "type": "VEC2"
    },
    {
      "bufferView": 0,
      "byteOffset": 36552,
      "componentType": 5125,
      "count": 831,
      "type": "SCALAR"
    },
    {
      "bufferView": 2,
      "byteOffset": 76296,
      "componentType": 5126,
      "count": 104,
      "max": [
        2.390130043029785,
        -0.2879529893398285,
        0.760828971862793
      ],
      "min": [
        1.9060100317001343,
        -0.7948499917984009,
        0.639045000076294
      ],
      "type": "VEC3"
    },
    {
      "bufferView": 2,
      "byteOffset": 77544,
      "componentType": 5126,
      "count": 104,
      "max": [
        1.0,
        0.9915285706520081,
        1.0
      ],
      "min": [
        -1.0,
        -1.0,
        -1.0
      ],
      "type": "VEC3"
    },
    {
      "bufferView": 3,
      "byteOffset": 50864,
      "componentType": 5126,
      "count": 104,
      "max": [
        0.6410120129585266,
        1.0,
        1.0,
        1.0
      ],
      "min": [
        -1.0,
        -1.0,
        -1.0,
        1.0
      ],
      "type": "VEC4"
    },
    {
      "bufferView": 1,
      "byteOffset": 25432,
      "componentType": 5126,
      "count": 104,
      "max": [
        0.9966300129890442,
        0.22281600534915924
      ],
      "min": [
        0.7155669927597046,
        0.012231400236487389
      ],
      "type": "VEC2"
    },
    {
      "bufferView": 0,
      "byteOffset": 39876,
      "componentType": 5125,
      "count": 282,
      "type": "SCALAR"
    },
    {
      "bufferView": 2,
      "byteOffset": 78792,
      "componentType": 5126,
      "count": 30,
      "max": [
        2.1347200870513916,
        -0.4170129895210266,
        0.730089008808136
      ],
      "min": [
        1.9651999473571777,
        -0.814179003238678,
        0.5620189905166626
      ],
      "type": "VEC3"
    },
    {
      "bufferView": 2,
      "byteOffset": 79152,
      "componentType": 5126,
      "count": 30,
      "max": [
        1.0,
        0.7071073651313782,
        1.3906700218677798e-15
      ],
      "min": [
        -1.0,
        -6.362969884321501e-08,
        -0.7275570631027222
      ],
      "type": "VEC3"
    },
    {
      "bufferView": 3,
      "byteOffset": 52528,
      "componentType": 5126,
      "count": 30,
      "max": [
        1.3906700218677798e-15,
        0.7071070075035095,
        1.0,
        1.0
      ],
      "min": [
        -0.7600579857826233,
        -0.7071059942245483,
        -1.0,
        1.0
      ],
      "type": "VEC4"
    },
    {
      "bufferView": 1,
      "byteOffset": 26264,
      "componentType": 5126,
      "count": 30,
      "max": [
        0.9972699880599976,
        0.9605780243873596
      ],
      "min": [
        0.5913789868354797,
        0.014304099604487419
      ],
      "type": "VEC2"
    },
    {
      "bufferView": 0,
      "byteOffset": 41004,
      "componentType": 5125,
      "count": 72,
      "type": "SCALAR"
    },
    {
      "bufferView": 2,
      "byteOffset": 79512,
      "componentType": 5126,
      "count": 16,
      "max": [
        2.2028799057006836,
        -0.341948002576828,
        0.724593997001648
      ],
      "min": [
        2.039789915084839,
        -0.40269699692726135,
        0.5707060098648071
      ],
      "type": "VEC3"
    },
    {
      "bufferView": 2,
      "byteOffset": 79704,
      "componentType": 5126,
      "count": 16,
      "max": [
        0.7090149521827698,
        0.705191969871521,
        0.0015141097828745842
      ],
      "min": [
        -0.6736220121383667,
        -0.7099781632423401,
        -0.7076172232627869
      ],
      "type": "VEC3"
    },
    {
      "bufferView": 3,
      "byteOffset": 53008,
      "componentType": 5126,
      "count": 16,
      "max": [
        0.9423779845237732,
        0.6344349980354309,
        0.9999960064888,
        1.0
      ],
      "min": [
        -0.9423779845237732,
        -0.7090129852294922,
        -0.7563430070877075,
        -1.0
      ],
      "type": "VEC4"
    },
    {
      "bufferView": 1,
      "byteOffset": 26504,
      "componentType": 5126,
      "count": 16,
      "max": [
        0.990103006362915,
        0.7170389890670776
      ],
      "min": [
        0.363523006439209,
        0.4528760015964508
      ],
      "type": "VEC2"
    },
    {
      "bufferView": 0,
      "byteOffset": 41292,
      "componentType": 5125,
      "count": 30,
      "type": "SCALAR"
    },
    {
      "bufferView": 2,
      "byteOffset": 79896,
      "componentType": 5126,
      "count": 426,
      "max": [
        2.824769973754883,
        0.25382599234580994,
        0.6960179805755615
      ],
      "min": [
        2.5779099464416504,
        -0.8073329925537109,
        -0.7965689897537231
      ],
      "type": "VEC3"
    },
    {
      "bufferView": 2,
      "byteOffset": 85008,
      "componentType": 5126,
      "count": 426,
      "max": [
        0.7071068286895752,
        1.0,
        1.0
      ],
      "min": [
        -1.0,
        -1.0,
        -1.0
      ],
      "type": "VEC3"
    },
    {
      "bufferView": 3,
      "byteOffset": 53264,
      "componentType": 5126,
      "count": 426,
      "max": [
        1.0,
        1.0,
        1.0,
        1.0
      ],
      "min": [
        -1.0,
        -1.0,
        -1.0,
        1.0
      ],
      "type": "VEC4"
    },
    {
      "bufferView": 1,
      "byteOffset": 26632,
      "componentType": 5126,
      "count": 426,
      "max": [
        0.996163010597229,
        0.9939529895782471
      ],
      "min": [
        -0.00770741980522871,
        0.0051917401142418385
      ],
      "type": "VEC2"
    },
    {
      "bufferView": 0,
      "byteOffset": 41412,
      "componentType": 5125,
      "count": 1557,
      "type": "SCALAR"
    },
    {
      "bufferView": 2,
      "byteOffset": 90120,
      "componentType": 5126,
      "count": 32,
      "max": [
        2.7332301139831543,
        0.20044200122356415,
        -0.7969369888305664
      ],
      "min": [
        1.9082599878311157,
        -0.7948499917984009,
        -0.9090359807014465
      ],
      "type": "VEC3"
    },
    {
      "bufferView": 2,
      "byteOffset": 90504,
      "componentType": 5126,
      "count": 32,
      "max": [
        0.7071068286895752,
        0.9045397043228149,
        0.5773503184318542
      ],
      "min": [
        -0.7071068286895752,
        -0.9045397043228149,
        -4.907158768219233e-07
      ],
      "type": "VEC3"
    },
    {
      "bufferView": 3,
      "byteOffset": 60080,
      "componentType": 5126,
      "count": 32,
      "max": [
        0.9534649848937988,
        0.7071070075035095,
        1.0,
        1.0
      ],
      "min": [
        -0.40824899077415466,
        -0.7071070075035095,
        -1.0,
        -1.0
      ],
      "type": "VEC4"
    },
    {
      "bufferView": 1,
      "byteOffset": 30040,
      "componentType": 5126,
      "count": 32,
      "max": [
        0.9938390254974365,
        0.9893270134925842
      ],
      "min": [
        0.10513100028038025,
        -0.0024964800104498863
      ],
      "type": "VEC2"
    },
    {
      "bufferView": 0,
      "byteOffset": 47640,
      "componentType": 5125,
      "count": 78,
      "type": "SCALAR"
    },
    {
      "bufferView": 2,
      "byteOffset": 90888,
      "componentType": 5126,
      "count": 32,
      "max": [
        2.0058999061584473,
        0.11674299836158752,
        -0.7578240036964417
      ],
      "min": [
        1.9331799745559692,
        0.035005200654268265,
        -0.800121009349823
      ],
      "type": "VEC3"
    },
    {
      "bufferView": 2,
      "byteOffset": 91272,
      "componentType": 5126,
      "count": 32,
      "max": [
        0.7071068286895752,
        0.7071068286895752,
        0.7236009836196899
      ],
      "min": [
        -0.7092681527137756,
        -0.7071068286895752,
        -1.1520197062964144e-07
      ],
      "type": "VEC3"
    },
    {
      "bufferView": 3,
      "byteOffset": 60592,
      "componentType": 5126,
      "count": 32,
      "max": [
        0.9560480117797852,
        0.7071070075035095,
        1.0,
        1.0
      ],
      "min": [
        -1.2207499899830054e-08,
        -0.7071070075035095,
        -1.0,
        1.0
      ],
      "type": "VEC4"
    },
    {
      "bufferView": 1,
      "byteOffset": 30296,
      "componentType": 5126,
      "count": 32,
      "max": [
        0.7033510208129883,
        0.9833499789237976
      ],
      "min": [
        0.28317201137542725,
        0.6455559730529785
      ],
      "type": "VEC2"
    },
    {
      "bufferView": 0,
      "byteOffset": 47952,
      "componentType": 5125,
      "count": 84,
      "type": "SCALAR"
    },
    {
      "bufferView": 2,
      "byteOffset": 91656,
      "componentType": 5126,
      "count": 33,
      "max": [
        2.471060037612915,
        0.22232399880886078,
        -0.7631030082702637
      ],
      "min": [
        2.4213500022888184,
        -0.2646310031414032,
        -0.8214269876480103
      ],
      "type": "VEC3"
    },
    {
      "bufferView": 2,
      "byteOffset": 92052,
      "componentType": 5126,
      "count": 33,
      "max": [
        1.0,
        9.817117785360097e-08,
        0.9730308651924133
      ],
      "min": [
        -1.0,
        -0.7152543663978577,
        -4.970649797119515e-15
      ],
      "type": "VEC3"
    },
    {
      "bufferView": 3,
      "byteOffset": 61104,
      "componentType": 5126,
      "count": 33,
      "max": [
        1.0,
        0.9753090143203735,
        0.9999989867210388,
        1.0
      ],
      "min": [
        0.0,
        -0.9753090143203735,
        -1.0,
        1.0
      ],
      "type": "VEC4"
    },
    {
      "bufferView": 1,
      "byteOffset": 30552,
      "componentType": 5126,
      "count": 33,
      "max": [
        0.29702800512313843,
        0.694471001625061
      ],
      "min": [
        0.009222050197422504,
        -0.0024965100456029177
      ],
      "type": "VEC2"
    },
    {
      "bufferView": 0,
      "byteOffset": 48288,
      "componentType": 5125,
      "count": 75,
      "type": "SCALAR"
    },
    {
      "bufferView": 2,
      "byteOffset": 92448,
      "componentType": 5126,
      "count": 14,
      "max": [
        2.296570062637329,
        0.1406940072774887,
        -0.7686330080032349
      ],
      "min": [
        1.9432300329208374,
        0.008485590107738972,
        -0.9347299933433533
      ],
      "type": "VEC3"
    },
    {
      "bufferView": 2,
      "byteOffset": 92616,
      "componentType": 5126,
      "count": 14,
      "max": [
        0.34936803579330444,
        0.9999982118606567,
        0.7271211743354797
      ],
      "min": [
        -0.7071068286895752,
        -1.0,
        -0.0006035861442796886
      ],
      "type": "VEC3"
    },
    {
      "bufferView": 3,
      "byteOffset": 61632,
      "componentType": 5126,
      "count": 14,
      "max": [
        1.0,
        0.7071070075035095,
        1.0,
        1.0
      ],
      "min": [
        -8.146029983890912e-08,
        -0.7071070075035095,
        -0.6049529910087585,
        1.0
      ],
      "type": "VEC4"
    },
    {
      "bufferView": 1,
      "byteOffset": 30816,
      "componentType": 5126,
      "count": 14,
      "max": [
        0.995061993598938,
        0.9572179913520813
      ],
      "min": [
        0.6353660225868225,
        0.644411027431488
      ],
      "type": "VEC2"
    },
    {
      "bufferView": 0,
      "byteOffset": 48588,
      "componentType": 5125,
      "count": 36,
      "type": "SCALAR"
    },
    {
      "bufferView": 2,
      "byteOffset": 92784,
      "componentType": 5126,
      "count": 93,
      "max": [
        2.8678200244903564,
        -0.7671369910240173,
        1.355180025100708
      ],
      "min": [
        -0.16161000728607178,
        -0.9798550009727478,
        -1.342479944229126
      ],
      "type": "VEC3"
    },
    {
      "bufferView": 2,
      "byteOffset": 93900,
      "componentType": 5126,
      "count": 93,
      "max": [
        0.9045397043228149,
        0.9045397043228149,
        1.0
      ],
      "min": [
        -0.9041032791137695,
        -0.9045397043228149,
        -0.7071068286895752
      ],
      "type": "VEC3"
    },
    {
      "bufferView": 3,
      "byteOffset": 61856,
      "componentType": 5126,
      "count": 93,
      "max": [
        0.9996399879455566,
        1.0,
        0.7071070075035095,
        1.0
      ],
      "min": [
        -0.9534649848937988,
        -0.9999989867210388,
        -0.9534649848937988,
        -1.0
      ],
      "type": "VEC4"
    },
    {
      "bufferView": 1,
      "byteOffset": 30928,
      "componentType": 5126,
      "count": 93,
      "max": [
        0.9985430240631104,
        1.0
      ],
      "min": [
        0.0,
        0.0
      ],
      "type": "VEC2"
    },
    {
      "bufferView": 0,
      "byteOffset": 48732,
      "componentType": 5125,
      "count": 273,
      "type": "SCALAR"
    },
    {
      "bufferView": 2,
      "byteOffset": 95016,
      "componentType": 5126,
      "count": 16,
      "max": [
        2.1906299591064453,
        -0.7865840196609497,
        0.36323899030685425
      ],
      "min": [
        -0.16161000728607178,
        -0.9641720056533813,
        -0.36314499378204346
      ],
      "type": "VEC3"
    },
    {
      "bufferView": 2,
      "byteOffset": 95208,
      "componentType": 5126,
      "count": 16,
      "max": [
        0.5773503184318542,
        0.5773503184318542,
        0.5773503184318542
      ],
      "min": [
        -0.5773503184318542,
        -0.5773503184318542,
        -0.5773503184318542
      ],
      "type": "VEC3"
    },
    {
      "bufferView": 3,
      "byteOffset": 63344,
      "componentType": 5126,
      "count": 16,
      "max": [
        0.8164970278739929,
        0.8164970278739929,
        0.8164970278739929,
        1.0
      ],
      "min": [
        -0.40824800729751587,
        -0.8164970278739929,
        -0.40824800729751587,
        1.0
      ],
      "type": "VEC4"
    },
    {
      "bufferView": 1,
      "byteOffset": 31672,
      "componentType": 5126,
      "count": 16,
      "max": [
        1.0,
        0.8616250157356262
      ],
      "min": [
        0.0,
        0.0
      ],
      "type": "VEC2"
    },
    {
      "bufferView": 0,
      "byteOffset": 49824,
      "componentType": 5125,
      "count": 36,
      "type": "SCALAR"
    },
    {
      "bufferView": 2,
      "byteOffset": 95400,
      "componentType": 5126,
      "count": 146,
      "max": [
        2.6235098838806152,
        0.3318049907684326,
        -0.13126899302005768
      ],
      "min": [
        2.210249900817871,
        0.1509220004081726,
        -0.2264920026063919
      ],
      "type": "VEC3"
    },
    {
      "bufferView": 2,
      "byteOffset": 97152,
      "componentType": 5126,
      "count": 146,
      "max": [
        1.0,
        1.0,
        1.0
      ],
      "min": [
        -1.0,
        -1.0,
        -1.0
      ],
      "type": "VEC3"
    },
    {
      "bufferView": 3,
      "byteOffset": 63600,
      "componentType": 5126,
      "count": 146,
      "max": [
        1.0,
        1.0,
        1.0,
        1.0
      ],
      "min": [
        -1.0,
        -1.0,
        -1.0,
        -1.0
      ],
      "type": "VEC4"
    },
    {
      "bufferView": 1,
      "byteOffset": 31800,
      "componentType": 5126,
      "count": 146,
      "max": [
        0.9934790134429932,
        0.9991220235824585
      ],
      "min": [
        0.529371976852417,
        0.6548359990119934
      ],
      "type": "VEC2"
    },
    {
      "bufferView": 0,
      "byteOffset": 49968,
      "componentType": 5125,
      "count": 408,
      "type": "SCALAR"
    },
    {
      "bufferView": 2,
      "byteOffset": 98904,
      "componentType": 5126,
      "count": 775,
      "max": [
        2.819080114364624,
        0.38126200437545776,
        0.8504040241241455
      ],
      "min": [
        1.8508599996566772,
        0.2026900053024292,
        -0.977537989616394
      ],
      "type": "VEC3"
    },
    {
      "bufferView": 2,
      "byteOffset": 108204,
      "componentType": 5126,
      "count": 775,
      "max": [
        1.0,
        1.0,
        1.0
      ],
      "min": [
        -1.0,
        -1.0,
        -1.0
      ],
      "type": "VEC3"
    },
    {
      "bufferView": 3,
      "byteOffset": 65936,
      "componentType": 5126,
      "count": 775,
      "max": [
        1.0,
        1.0,
        0.7433900237083435,
        1.0
      ],
      "min": [
        -1.0,
        -1.0,
        -1.0,
        -1.0
      ],
      "type": "VEC4"
    },
    {
      "bufferView": 1,
      "byteOffset": 32968,
      "componentType": 5126,
      "count": 775,
      "max": [
        0.9890239834785461,
        0.9935950040817261
      ],
      "min": [
        0.002447949955239892,
        0.0021611100528389215
      ],
      "type": "VEC2"
    },
    {
      "bufferView": 0,
      "byteOffset": 51600,
      "componentType": 5125,
      "count": 3084,
      "type": "SCALAR"
    },
    {
      "bufferView": 2,
      "byteOffset": 117504,
      "componentType": 5126,
      "count": 52,
      "max": [
        2.1778299808502197,
        0.20273099839687347,
        -0.4103119969367981
      ],
      "min": [
        2.0054500102996826,
        0.13665300607681274,
        -0.4517880082130432
      ],
      "type": "VEC3"
    },
    {
      "bufferView": 2,
      "byteOffset": 118128,
      "componentType": 5126,
      "count": 52,
      "max": [
        0.6497162580490112,
        0.5776441097259521,
        0.9024286866188049
      ],
      "min": [
        -0.9050881266593933,
        -0.9567590951919556,
        -0.9024286866188049
      ],
      "type": "VEC3"
    },
    {
      "bufferView": 3,
      "byteOffset": 78336,
      "componentType": 5126,
      "count": 52,
      "max": [
        0.7081500291824341,
        1.0,
        0.9535620212554932,
        1.0
      ],
      "min": [
        -0.9728559851646423,
        -1.0,
        -0.7649809718132019,
        1.0
      ],
      "type": "VEC4"
    },
    {
      "bufferView": 1,
      "byteOffset": 39168,
      "componentType": 5126,
      "count": 52,
      "max": [
        0.9976599812507629,
        0.9788830280303955
      ],
      "min": [
        0.846114993095398,
        0.5797209739685059
      ],
      "type": "VEC2"
    },
    {
      "bufferView": 0,
      "byteOffset": 63936,
      "componentType": 5125,
      "count": 186,
      "type": "SCALAR"
    },
    {
      "bufferView": 2,
      "byteOffset": 118752,
      "componentType": 5126,
      "count": 768,
      "max": [
        1.56086003780365,
        0.30179399251937866,
        1.4700000286102295
      ],
      "min": [
        1.0356899499893188,
        -2.3580799102783203,
        -1.4725099802017212
      ],
      "type": "VEC3"
    },
    {
      "bufferView": 2,
      "byteOffset": 127968,
      "componentType": 5126,
      "count": 768,
      "max": [
        1.0,
        1.0,
        1.0
      ],
      "min": [
        -1.0,
        -0.8146260976791382,
        -1.0
      ],
      "type": "VEC3"
    },
    {
      "bufferView": 3,
      "byteOffset": 79168,
      "componentType": 5126,
      "count": 768,
      "max": [
        1.0,
        1.0,
        1.0,
        1.0
      ],
      "min": [
        -1.0,
        -1.0,
        -1.0,
        -1.0
      ],
      "type": "VEC4"
    },
    {
      "bufferView": 1,
      "byteOffset": 39584,
      "componentType": 5126,
      "count": 768,
      "max": [
        0.997635006904602,
        0.9953920245170593
      ],
      "min": [
        0.0,
        0.0
      ],
      "type": "VEC2"
    },
    {
      "bufferView": 0,
      "byteOffset": 64680,
      "componentType": 5125,
      "count": 2148,
      "type": "SCALAR"
    },
    {
      "bufferView": 2,
      "byteOffset": 137184,
      "componentType": 5126,
      "count": 28,
      "max": [
        1.5333199501037598,
        0.25071999430656433,
        0.3404810130596161
      ],
      "min": [
        1.0898799896240234,
        0.18536800146102905,
        -0.3403869867324829
      ],
      "type": "VEC3"
    },
    {
      "bufferView": 2,
      "byteOffset": 137520,
      "componentType": 5126,
      "count": 28,
      "max": [
        0.9238806366920471,
        0.7071068286895752,
        1.5051907098495576e-07
      ],
      "min": [
        -0.9238792657852173,
        -0.9238809943199158,
        -1.1520197062964144e-07
      ],
      "type": "VEC3"
    },
    {
      "bufferView": 3,
      "byteOffset": 91456,
      "componentType": 5126,
      "count": 28,
      "max": [
        1.1788999927375698e-06,
        1.1372300150469528e-06,
        1.0,
        1.0
      ],
      "min": [
        -1.0336100331187481e-06,
        -1.6019999975469545e-06,
        -1.0,
        1.0
      ],
      "type": "VEC4"
    },
    {
      "bufferView": 1,
      "byteOffset": 45728,
      "componentType": 5126,
      "count": 28,
      "max": [
        0.9167659878730774,
        0.7033690214157104
      ],
      "min": [
        0.6975229978561401,
        0.5522329807281494
      ],
      "type": "VEC2"
    },
    {
      "bufferView": 0,
      "byteOffset": 73272,
      "componentType": 5125,
      "count": 72,
      "type": "SCALAR"
    },
    {
      "bufferView": 2,
      "byteOffset": 137856,
      "componentType": 5126,
      "count": 124,
      "max": [
        2.0955100059509277,
        -0.35595598816871643,
        2.035259962081909
      ],
      "min": [
        -0.30504000186920166,
        -1.2220200300216675,
        -2.0351600646972656
      ],
      "type": "VEC3"
    },
    {
      "bufferView": 2,
      "byteOffset": 139344,
      "componentType": 5126,
      "count": 124,
      "max": [
        1.0,
        0.8596994280815125,
        0.9747153520584106
      ],
      "min": [
        -1.0,
        -0.7172937393188477,
        -0.9747155904769897
      ],
      "type": "VEC3"
    },
    {
      "bufferView": 3,
      "byteOffset": 91904,
      "componentType": 5126,
      "count": 124,
      "max": [
        0.8164970278739929,
        0.9831709861755371,
        1.0,
        1.0
      ],
      "min": [
        -0.6890869736671448,
        -0.7071070075035095,
        -1.0,
        -1.0
      ],
      "type": "VEC4"
    },
    {
      "bufferView": 1,
      "byteOffset": 45952,
      "componentType": 5126,
      "count": 124,
      "max": [
        0.9858490228652954,
        0.5665330290794373
      ],
      "min": [
        0.0035877800546586514,
        0.007704040035605431
      ],
      "type": "VEC2"
    },
    {
      "bufferView": 0,
      "byteOffset": 73560,
      "componentType": 5125,
      "count": 372,
      "type": "SCALAR"
    },
    {
      "bufferView": 2,
      "byteOffset": 140832,
      "componentType": 5126,
      "count": 140,
      "max": [
        2.173180103302002,
        -0.9239799976348877,
        1.739590048789978
      ],
      "min": [
        -0.23419100046157837,
        -2.3894500732421875,
        -1.7395000457763672
      ],
      "type": "VEC3"
    },
    {
      "bufferView": 2,
      "byteOffset": 142512,
      "componentType": 5126,
      "count": 140,
      "max": [
        0.6355259418487549,
        0.8148861527442932,
        0.8148861527442932
      ],
      "min": [
        -0.6355259418487549,
        -0.8148861527442932,
        -0.8148861527442932
      ],
      "type": "VEC3"
    },
    {
      "bufferView": 1,
      "byteOffset": 46944,
      "componentType": 5126,
      "count": 140,
      "max": [
        0.9972490072250366,
        0.9687439799308777
      ],
      "min": [
        0.0,
        0.0
      ],
      "type": "VEC2"
    },
    {
      "bufferView": 0,
      "byteOffset": 75048,
      "componentType": 5125,
      "count": 228,
      "type": "SCALAR"
    },
    {
      "bufferView": 2,
      "byteOffset": 144192,
      "componentType": 5126,
      "count": 878,
      "max": [
        2.1432700157165527,
        1.8022799491882324,
        1.7662899494171143
      ],
      "min": [
        -0.20428000390529633,
        -2.3670101165771484,
        -1.7661900520324707
      ],
      "type": "VEC3"
    },
    {
      "bufferView": 2,
      "byteOffset": 154728,
      "componentType": 5126,
      "count": 878,
      "max": [
        0.8386582732200623,
        0.9140758514404297,
        0.9459099769592285
      ],
      "min": [
        -0.8386708498001099,
        -0.9140758514404297,
        -0.9459099769592285
      ],
      "type": "VEC3"
    },
    {
      "bufferView": 1,
      "byteOffset": 48064,
      "componentType": 5126,
      "count": 878,
      "max": [
        0.9987580180168152,
        1.0
      ],
      "min": [
        0.0,
        0.0
      ],
      "type": "VEC2"
    },
    {
      "bufferView": 0,
      "byteOffset": 75960,
      "componentType": 5125,
      "count": 1320,
      "type": "SCALAR"
    },
    {
      "bufferView": 2,
      "byteOffset": 165264,
      "componentType": 5126,
      "count": 402,
      "max": [
        2.2999699115753174,
        -0.29689300060272217,
        0.5507689714431763
      ],
      "min": [
        2.207289934158325,
        -0.38957899808883667,
        0.49647700786590576
      ],
      "type": "VEC3"
    },
    {
      "bufferView": 2,
      "byteOffset": 170088,
      "componentType": 5126,
      "count": 402,
      "max": [
        1.0,
        1.0,
        0.8979737162590027
      ],
      "min": [
        -1.0,
        -1.0,
        -0.915942907333374
      ],
      "type": "VEC3"
    },
    {
      "bufferView": 3,
      "byteOffset": 93888,
      "componentType": 5126,
      "count": 402,
      "max": [
        1.0,
        1.0,
        0.9999309778213501,
        1.0
      ],
      "min": [
        -1.0,
        -1.0,
        -0.9999189972877502,
        1.0
      ],
      "type": "VEC4"
    },
    {
      "bufferView": 1,
      "byteOffset": 55088,
      "componentType": 5126,
      "count": 402,
      "max": [
        0.9990299940109253,
        0.6564239859580994
      ],
      "min": [
        0.6304770112037659,
        0.3820149898529053
      ],
      "type": "VEC2"
    },
    {
      "bufferView": 0,
      "byteOffset": 81240,
      "componentType": 5125,
      "count": 1578,
      "type": "SCALAR"
    },
    {
      "bufferView": 2,
      "byteOffset": 174912,
      "componentType": 5126,
      "count": 109,
      "max": [
        2.7627599239349365,
        0.37370800971984863,
        0.7283499836921692
      ],
      "min": [
        2.0052099227905273,
        -0.8907240033149719,
        -0.8959400057792664
      ],
      "type": "VEC3"
    },
    {
      "bufferView": 2,
      "byteOffset": 176220,
      "componentType": 5126,
      "count": 109,
      "max": [
        1.0,
        1.0,
        1.0
      ],
      "min": [
        -1.0,
        -1.0,
        -1.0
      ],
      "type": "VEC3"
    },
    {
      "bufferView": 3,
      "byteOffset": 100320,
      "componentType": 5126,
      "count": 109,
      "max": [
        1.0,
        1.0,
        1.0,
        1.0
      ],
      "min": [
        -1.0,
        -1.0,
        -1.0,
        1.0
      ],
      "type": "VEC4"
    },
    {
      "bufferView": 1,
      "byteOffset": 58304,
      "componentType": 5126,
      "count": 109,
      "max": [
        0.34498700499534607,
        0.6991649866104126
      ],
      "min": [
        0.05466889962553978,
        0.2799699902534485
      ],
      "type": "VEC2"
    },
    {
      "bufferView": 0,
      "byteOffset": 87552,
      "componentType": 5125,
      "count": 408,
      "type": "SCALAR"
    },
    {
      "bufferView": 2,
      "byteOffset": 177528,
      "componentType": 5126,
      "count": 369,
      "max": [
        2.8585100173950195,
        -0.2025739997625351,
        0.0585503987967968
      ],
      "min": [
        2.592519998550415,
        -0.4066329896450043,
        -0.15940099954605103
      ],
      "type": "VEC3"
    },
    {
      "bufferView": 2,
      "byteOffset": 181956,
      "componentType": 5126,
      "count": 369,
      "max": [
        0.7071068286895752,
        1.0,
        1.0
      ],
      "min": [
        -1.0,
        -0.9045397043228149,
        -1.0
      ],
      "type": "VEC3"
    },
    {
      "bufferView": 3,
      "byteOffset": 102064,
      "componentType": 5126,
      "count": 369,
      "max": [
        1.0,
        0.9935659766197205,
        1.0,
        1.0
      ],
      "min": [
        -1.0,
        -0.9966869950294495,
        -1.0,
        -1.0
      ],
      "type": "VEC4"
    },
    {
      "bufferView": 1,
      "byteOffset": 59176,
      "componentType": 5126,
      "count": 369,
      "max": [
        0.9988960027694702,
        0.9974550008773804
      ],
      "min": [
        0.6103339791297913,
        0.5818340182304382
      ],
      "type": "VEC2"
    },
    {
      "bufferView": 0,
      "byteOffset": 89184,
      "componentType": 5125,
      "count": 1176,
      "type": "SCALAR"
    },
    {
      "bufferView": 2,
      "byteOffset": 186384,
      "componentType": 5126,
      "count": 196,
      "max": [
        2.690850019454956,
        -0.14600099623203278,
        0.045534998178482056
      ],
      "min": [
        2.592519998550415,
        -0.4066320061683655,
        -0.14638499915599823
      ],
      "type": "VEC3"
    },
    {
      "bufferView": 2,
      "byteOffset": 188736,
      "componentType": 5126,
      "count": 196,
      "max": [
        0.7278209328651428,
        0.7652688026428223,
        0.6857069134712219
      ],
      "min": [
        -0.9049487113952637,
        -0.7652688026428223,
        -0.6857069134712219
      ],
      "type": "VEC3"
    },
    {
      "bufferView": 3,
      "byteOffset": 107968,
      "componentType": 5126,
      "count": 196,
      "max": [
        1.0,
        0.7772259712219238,
        0.9505529999732971,
        1.0
      ],
      "min": [
        -1.0,
        -0.682407021522522,
        -0.8165640234947205,
        -1.0
      ],
      "type": "VEC4"
    },
    {
      "bufferView": 1,
      "byteOffset": 62128,
      "componentType": 5126,
      "count": 196,
      "max": [
        0.9866819977760315,
        0.9634270071983337
      ],
      "min": [
        0.5750560164451599,
        0.6812639832496643
      ],
      "type": "VEC2"
    },
    {
      "bufferView": 0,
      "byteOffset": 93888,
      "componentType": 5125,
      "count": 504,
      "type": "SCALAR"
    },
    {
      "bufferView": 2,
      "byteOffset": 191088,
      "componentType": 5126,
      "count": 60,
      "max": [
        2.739840030670166,
        0.11399000138044357,
        0.3978230059146881
      ],
      "min": [
        2.718859910964966,
        -0.20540200173854828,
        0.17933399975299835
      ],
      "type": "VEC3"
    },
    {
      "bufferView": 2,
      "byteOffset": 191808,
      "componentType": 5126,
      "count": 60,
      "max": [
        0.5773503184318542,
        0.7071068286895752,
        0.9045397043228149
      ],
      "min": [
        -0.899959146976471,
        -0.9045397043228149,
        -0.9045397043228149
      ],
      "type": "VEC3"
    },
    {
      "bufferView": 3,
      "byteOffset": 111104,
      "componentType": 5126,
      "count": 60,
      "max": [
        1.0,
        0.7071070075035095,
        0.9999949932098389,
        1.0
      ],
      "min": [
        -0.9469299912452698,
        -1.0,
        -0.9534649848937988,
        -1.0
      ],
      "type": "VEC4"
    },
    {
      "bufferView": 1,
      "byteOffset": 63696,
      "componentType": 5126,
      "count": 60,
      "max": [
        0.5822380185127258,
        0.7325479984283447
      ],
      "min": [
        0.07740770280361176,
        0.3252600133419037
      ],
      "type": "VEC2"
    },
    {
      "bufferView": 0,
      "byteOffset": 95904,
      "componentType": 5125,
      "count": 174,
      "type": "SCALAR"
    },
    {
      "bufferView": 2,
      "byteOffset": 192528,
      "componentType": 5126,
      "count": 240,
      "max": [
        2.8146800994873047,
        -0.24146400392055511,
        0.6378750205039978
      ],
      "min": [
        2.735460042953491,
        -0.6259880065917969,
        0.545403003692627
      ],
      "type": "VEC3"
    },
    {
      "bufferView": 2,
      "byteOffset": 195408,
      "componentType": 5126,
      "count": 240,
      "max": [
        6.321718615254213e-08,
        0.7071068286895752,
        0.7071068286895752
      ],
      "min": [
        -0.9804922342300415,
        -0.7071068286895752,
        -0.8199928998947144
      ],
      "type": "VEC3"
    },
    {
      "bufferView": 3,
      "byteOffset": 112064,
      "componentType": 5126,
      "count": 240,
      "max": [
        1.0,
        0.7071070075035095,
        0.7715169787406921,
        1.0
      ],
      "min": [
        -1.0,
        -0.7071070075035095,
        -1.0,
        1.0
      ],
      "type": "VEC4"
    },
    {
      "bufferView": 1,
      "byteOffset": 64176,
      "componentType": 5126,
      "count": 240,
      "max": [
        0.2736020088195801,
        0.9612150192260742
      ],
      "min": [
        0.014327099546790123,
        0.7939079999923706
      ],
      "type": "VEC2"
    },
    {
      "bufferView": 0,
      "byteOffset": 96600,
      "componentType": 5125,
      "count": 696,
      "type": "SCALAR"
    },
    {
      "bufferView": 2,
      "byteOffset": 198288,
      "componentType": 5126,
      "count": 1021,
      "max": [
        2.7409698963165283,
        0.4980039894580841,
        1.626170039176941
      ],
      "min": [
        -0.23867599666118622,
        -0.7402759790420532,
        -1.622939944267273
      ],
      "type": "VEC3"
    },
    {
      "bufferView": 2,
      "byteOffset": 210540,
      "componentType": 5126,
      "count": 1021,
      "max": [
        1.0,
        1.0,
        1.0
      ],
      "min": [
        -1.0,
        -1.0,
        -1.0
      ],
      "type": "VEC3"
    },
    {
      "bufferView": 3,
      "byteOffset": 115904,
      "componentType": 5126,
      "count": 1021,
      "max": [
        1.0,
        1.0,
        1.0,
        1.0
      ],
      "min": [
        -1.0,
        -1.0,
        -1.0,
        1.0
      ],
      "type": "VEC4"
    },
    {
      "bufferView": 1,
      "byteOffset": 66096,
      "componentType": 5126,
      "count": 1021,
      "max": [
        0.7260239720344543,
        0.9984710216522217
      ],
      "min": [
        0.0,
        -4.3402800656622276e-05
      ],
      "type": "VEC2"
    },
    {
      "bufferView": 0,
      "byteOffset": 99384,
      "componentType": 5125,
      "count": 4122,
      "type": "SCALAR"
    },
    {
      "bufferView": 2,
      "byteOffset": 222792,
      "componentType": 5126,
      "count": 221,
      "max": [
        2.73649001121521,
        -0.10686600208282471,
        -0.4962430000305176
      ],
      "min": [
        1.967210054397583,
        -0.8220229744911194,
        -0.9539399743080139
      ],
      "type": "VEC3"
    },
    {
      "bufferView": 2,
      "byteOffset": 225444,
      "componentType": 5126,
      "count": 221,
      "max": [
        1.0,
        1.0,
        1.0
      ],
      "min": [
        -1.0,
        -1.0,
        -1.0
      ],
      "type": "VEC3"
    },
    {
      "bufferView": 3,
      "byteOffset": 132240,
      "componentType": 5126,
      "count": 221,
      "max": [
        1.0,
        0.8743039965629578,
        1.0,
        1.0
      ],
      "min": [
        -1.0,
        -0.8164809942245483,
        -1.0,
        -1.0
      ],
      "type": "VEC4"
    },
    {
      "bufferView": 1,
      "byteOffset": 74264,
      "componentType": 5126,
      "count": 221,
      "max": [
        0.7084460258483887,
        0.8585619926452637
      ],
      "min": [
        0.0008658459992147982,
        0.10540000349283218
      ],
      "type": "VEC2"
    },
    {
      "bufferView": 0,
      "byteOffset": 115872,
      "componentType": 5125,
      "count": 612,
      "type": "SCALAR"
    },
    {
      "bufferView": 2,
      "byteOffset": 228096,
      "componentType": 5126,
      "count": 544,
      "max": [
        1.814579963684082,
        -0.6451519727706909,
        1.342329978942871
      ],
      "min": [
        -0.0910222977399826,
        -0.8120819926261902,
        -1.342229962348938
      ],
      "type": "VEC3"
    },
    {
      "bufferView": 2,
      "byteOffset": 234624,
      "componentType": 5126,
      "count": 544,
      "max": [
        1.0,
        0.9584176540374756,
        1.0
      ],
      "min": [
        -1.0,
        -0.9584176540374756,
        -1.0
      ],
      "type": "VEC3"
    },
    {
      "bufferView": 3,
      "byteOffset": 135776,
      "componentType": 5126,
      "count": 544,
      "max": [
        0.9539589881896973,
        1.0,
        0.9864689707756042,
        1.0
      ],
      "min": [
        -0.9540070295333862,
        -1.0,
        -0.9864689707756042,
        -1.0
      ],
      "type": "VEC4"
    },
    {
      "bufferView": 1,
      "byteOffset": 76032,
      "componentType": 5126,
      "count": 544,
      "max": [
        0.9976760149002075,
        0.5818020105361938
      ],
      "min": [
        0.6299470067024231,
        0.004754890222102404
      ],
      "type": "VEC2"
    },
    {
      "bufferView": 0,
      "byteOffset": 118320,
      "componentType": 5125,
      "count": 2424,
      "type": "SCALAR"
    },
    {
      "bufferView": 2,
      "byteOffset": 241152,
      "componentType": 5126,
      "count": 238,
      "max": [
        2.7389700412750244,
        0.3708829879760742,
        0.39733800292015076
      ],
      "min": [
        2.7058799266815186,
        -0.19032900035381317,
        0.1798200011253357
      ],
      "type": "VEC3"
    },
    {
      "bufferView": 2,
      "byteOffset": 244008,
      "componentType": 5126,
      "count": 238,
      "max": [
        0.9510564804077148,
        0.9510568976402283,
        1.0
      ],
      "min": [
        -0.9510564804077148,
        -0.9510564804077148,
        -1.0
      ],
      "type": "VEC3"
    },
    {
      "bufferView": 3,
      "byteOffset": 144480,
      "componentType": 5126,
      "count": 238,
      "max": [
        1.0,
        1.0,
        0.9904220104217529,
        1.0
      ],
      "min": [
        -1.0,
        -1.0,
        -0.9853479862213135,
        -1.0
      ],
      "type": "VEC4"
    },
    {
      "bufferView": 1,
      "byteOffset": 80384,
      "componentType": 5126,
      "count": 238,
      "max": [
        0.8550739884376526,
        0.9972749948501587
      ],
      "min": [
        0.0007185559952631593,
        0.5571010112762451
      ],
      "type": "VEC2"
    },
    {
      "bufferView": 0,
      "byteOffset": 128016,
      "componentType": 5125,
      "count": 654,
      "type": "SCALAR"
    },
    {
      "bufferView": 2,
      "byteOffset": 246864,
      "componentType": 5126,
      "count": 52,
      "max": [
        2.879580020904541,
        0.2561590075492859,
        0.9201239943504333
      ],
      "min": [
        1.8980900049209595,
        -0.9955250024795532,
        -1.0237400531768799
      ],
      "type": "VEC3"
    },
    {
      "bufferView": 2,
      "byteOffset": 247488,
      "componentType": 5126,
      "count": 52,
      "max": [
        0.5802332758903503,
        0.9486895203590393,
        0.580812931060791
      ],
      "min": [
        -0.5773503184318542,
        -0.9486895203590393,
        -0.580812931060791
      ],
      "type": "VEC3"
    },
    {
      "bufferView": 3,
      "byteOffset": 148288,
      "componentType": 5126,
      "count": 52,
      "max": [
        0.6396070122718811,
        0.8168960213661194,
        0.9534649848937988,
        1.0
      ],
      "min": [
        -0.6396070122718811,
        -0.8164970278739929,
        -0.9534649848937988,
        1.0
      ],
      "type": "VEC4"
    },
    {
      "bufferView": 1,
      "byteOffset": 82288,
      "componentType": 5126,
      "count": 52,
      "max": [
        0.9914029836654663,
        0.9957029819488525
      ],
      "min": [
        0.6420220136642456,
        0.5307180285453796
      ],
      "type": "VEC2"
    },
    {
      "bufferView": 0,
      "byteOffset": 130632,
      "componentType": 5125,
      "count": 126,
      "type": "SCALAR"
    },
    {
      "bufferView": 2,
      "byteOffset": 248112,
      "componentType": 5126,
      "count": 112,
      "max": [
        2.7546699047088623,
        0.07731349766254425,
        0.44268301129341125
      ],
      "min": [
        2.716130018234253,
        -0.14254100620746613,
        0.1345829963684082
      ],
      "type": "VEC3"
    },
    {
      "bufferView": 2,
      "byteOffset": 249456,
      "componentType": 5126,
      "count": 112,
      "max": [
        1.66051961514313e-07,
        1.0,
        0.7186700105667114
      ],
      "min": [
        -0.7158271670341492,
        -1.0,
        -0.7186700105667114
      ],
      "type": "VEC3"
    },
    {
      "bufferView": 3,
      "byteOffset": 149120,
      "componentType": 5126,
      "count": 112,
      "max": [
        1.0,
        0.7890819907188416,
        1.0,
        1.0
      ],
      "min": [
        -1.0,
        -0.7715169787406921,
        -0.827111005783081,
        1.0
      ],
      "type": "VEC4"
    },
    {
      "bufferView": 1,
      "byteOffset": 82704,
      "componentType": 5126,
      "count": 112,
      "max": [
        0.6409519910812378,
        0.9950850009918213
      ],
      "min": [
        0.0384984016418457,
        0.6614149808883667
      ],
      "type": "VEC2"
    },
    {
      "bufferView": 0,
      "byteOffset": 131136,
      "componentType": 5125,
      "count": 312,
      "type": "SCALAR"
    },
    {
      "bufferView": 2,
      "byteOffset": 250800,
      "componentType": 5126,
      "count": 60,
      "max": [
        2.255539894104004,
        0.13163499534130096,
        -0.7561699748039246
      ],
      "min": [
        1.9552700519561768,
        0.017092399299144745,
        -0.7832580208778381
      ],
      "type": "VEC3"
    },
    {
      "bufferView": 2,
      "byteOffset": 251520,
      "componentType": 5126,
      "count": 60,
      "max": [
        0.7071068286895752,
        1.0,
        1.0
      ],
      "min": [
        -0.9218578934669495,
        -1.0,
        -1.6292099758175027e-07
      ],
      "type": "VEC3"
    },
    {
      "bufferView": 3,
      "byteOffset": 150912,
      "componentType": 5126,
      "count": 60,
      "max": [
        0.8588110208511353,
        0.9999989867210388,
        0.9999970197677612,
        1.0
      ],
      "min": [
        -0.8871639966964722,
        -1.6288299775624182e-07,
        -0.999770998954773,
        1.0
      ],
      "type": "VEC4"
    },
    {
      "bufferView": 1,
      "byteOffset": 83600,
      "componentType": 5126,
      "count": 60,
      "max": [
        0.13977299630641937,
        0.8359220027923584
      ],
      "min": [
        0.006035789847373962,
        0.5634310245513916
      ],
      "type": "VEC2"
    },
    {
      "bufferView": 0,
      "byteOffset": 132384,
      "componentType": 5125,
      "count": 246,
      "type": "SCALAR"
    }
  ],
  "asset": {
    "extras": {
      "author": "Cyril Limoges Athiel (https://sketchfab.com/athiel)",
      "license": "CC-BY-4.0 (http://creativecommons.org/licenses/by/4.0/)",
      "source": "https://sketchfab.com/3d-models/unreal-vr-room-01-f7c42add167045a2bcb88d921ea9fd61",
      "title": "Unreal_VR_Room_01"
    },
    "generator": "Sketchfab-12.68.0",
    "version": "2.0"
  },
  "bufferViews": [
    {
      "buffer": 0,
      "byteLength": 133368,
      "name": "floatBufferViews",
      "target": 34963
    },
    {
      "buffer": 0,
      "byteLength": 84080,
      "byteOffset": 133368,
      "byteStride": 8,
      "name": "floatBufferViews",
      "target": 34962
    },
    {
      "buffer": 0,
      "byteLength": 252240,
      "byteOffset": 217448,
      "byteStride": 12,
      "name": "floatBufferViews",
      "target": 34962
    },
    {
      "buffer": 0,
      "byteLength": 151872,
      "byteOffset": 469688,
      "byteStride": 16,
      "name": "floatBufferViews",
      "target": 34962
    }
  ],
  "buffers": [
    {
      "byteLength": 621560,
      "uri": "scene.bin"
    }
  ],
  "images": [
    {
      "uri": "unreal/Mat_Mur_Bottom_baseColor.jpeg"
    },
    {
      "uri": "unreal/Mat_Mur_Bottom_metallicRoughness.png"
    },
    {
      "uri": "unreal/Mat_Mur_Bottom_normal.jpeg"
    },
    {
      "uri": "unreal/Mat_Mur_Gauche_baseColor.jpeg"
    },
    {
      "uri": "unreal/Mat_Mur_Gauche_metallicRoughness.png"
    },
    {
      "uri": "unreal/Mat_Mur_Gauche_normal.jpeg"
    },
    {
      "uri": "unreal/Mat_Pont_baseColor.jpeg"
    },
    {
      "uri": "unreal/Mat_Pont_metallicRoughness.png"
    },
    {
      "uri": "unreal/Mat_Pont_normal.jpeg"
    },
    {
      "uri": "unreal/Mat_Props_baseColor.jpeg"
    },
    {
      "uri": "unreal/Mat_Props_metallicRoughness.png"
    },
    {
      "uri": "unreal/Mat_Props_emissive.jpeg"
    },
    {
      "uri": "unreal/Mat_Props_normal.jpeg"
    },
    {
      "uri": "unreal/Mat_Arche_baseColor.jpeg"
    },
    {
      "uri": "unreal/Mat_Arche_metallicRoughness.png"
    },
    {
      "uri": "unreal/Mat_Arche_emissive.jpeg"
    },
    {
      "uri": "unreal/Mat_Arche_normal.jpeg"
    },
    {
      "uri": "unreal/Mat_Plafond_baseColor.jpeg"
    },
    {
      "uri": "unreal/Mat_Plafond_metallicRoughness.png"
    },
    {
      "uri": "unreal/Mat_Plafond_normal.jpeg"
    },
    {
      "uri": "unreal/Mat_Sol_baseColor.jpeg"
    },
    {
      "uri": "unreal/Mat_Sol_metallicRoughness.png"
    },
    {
      "uri": "unreal/Mat_Sol_normal.jpeg"
    },
    {
      "uri": "unreal/Mat_Mur_Front_baseColor.jpeg"
    },
    {
      "uri": "unreal/Mat_Mur_Front_metallicRoughness.png"
    },
    {
      "uri": "unreal/Mat_Mur_Front_normal.jpeg"
    },
    {
      "uri": "unreal/Mat_Porte_baseColor.jpeg"
    },
    {
      "uri": "unreal/Mat_Porte_metallicRoughness.png"
    },
    {
      "uri": "unreal/Mat_Porte_emissive.jpeg"
    },
    {
      "uri": "unreal/Mat_Porte_normal.jpeg"
    }
  ],
  "materials": [
    {
      "doubleSided": true,
      "name": "Mat_Mur_Bottom",
      "normalTexture": {
        "index": 2
      },
      "occlusionTexture": {
        "index": 1
      },
      "pbrMetallicRoughness": {
        "baseColorTexture": {
          "index": 0
        },
        "metallicRoughnessTexture": {
          "index": 1
        }
      }
    },
    {
      "doubleSided": true,
      "name": "Mat_Mur_Gauche",
      "normalTexture": {
        "index": 5
      },
      "occlusionTexture": {
        "index": 4
      },
      "pbrMetallicRoughness": {
        "baseColorTexture": {
          "index": 3
        },
        "metallicRoughnessTexture": {
          "index": 4
        }
      }
    },
    {
      "doubleSided": true,
      "name": "Mat_Pont",
      "normalTexture": {
        "index": 8
      },
      "occlusionTexture": {
        "index": 7
      },
      "pbrMetallicRoughness": {
        "baseColorTexture": {
          "index": 6
        },
        "metallicRoughnessTexture": {
          "index": 7
        }
      }
    },
    {
      "doubleSided": true,
      "emissiveFactor": [
        1.0,
        1.0,
        1.0
      ],
      "emissiveTexture": {
        "index": 11
      },
      "name": "Mat_Props",
      "normalTexture": {
        "index": 12
      },
      "occlusionTexture": {
        "index": 10
      },
      "pbrMetallicRoughness": {
        "baseColorTexture": {
          "index": 9
        },
        "metallicRoughnessTexture": {
          "index": 10
        }
      }
    },
    {
      "alphaMode": "BLEND",
      "name": "Mat_Mur_Enveloppe",
      "pbrMetallicRoughness": {
        "baseColorFactor": [
          0.8,
          0.8,
          0.8,
          0.0
        ],
        "metallicFactor": 0.0,
        "roughnessFactor": 0.6
      }
    },
    {
      "emissiveFactor": [
        1.0,
        1.0,
        1.0
      ],
      "emissiveTexture": {
        "index": 15
      },
      "name": "Mat_Arche",
      "normalTexture": {
        "index": 16
      },
      "occlusionTexture": {
        "index": 14
      },
      "pbrMetallicRoughness": {
        "baseColorTexture": {
          "index": 13
        },
        "metallicRoughnessTexture": {
          "index": 14
        }
      }
    },
    {
      "doubleSided": true,
      "name": "Mat_Plafond",
      "normalTexture": {
        "index": 19
      },
      "occlusionTexture": {
        "index": 18
      },
      "pbrMetallicRoughness": {
        "baseColorTexture": {
          "index": 17
        },
        "metallicRoughnessTexture": {
          "index": 18
        }
      }
    },
    {
      "doubleSided": true,
      "name": "Mat_Sol",
      "normalTexture": {
        "index": 22
      },
      "occlusionTexture": {
        "index": 21
      },
      "pbrMetallicRoughness": {
        "baseColorTexture": {
          "index": 20
        },
        "metallicRoughnessTexture": {
          "index": 21
        }
      }
    },
    {
      "doubleSided": true,
      "name": "Mat_Mur_Front",
      "normalTexture": {
        "index": 25
      },
      "occlusionTexture": {
        "index": 24
      },
      "pbrMetallicRoughness": {
        "baseColorTexture": {
          "index": 23
        },
        "metallicRoughnessTexture": {
          "index": 24
        }
      }
    },
    {
      "doubleSided": true,
      "emissiveFactor": [
        1.0,
        1.0,
        1.0
      ],
      "emissiveTexture": {
        "index": 28
      },
      "name": "Mat_Porte",
      "normalTexture": {
        "index": 29
      },
      "occlusionTexture": {
        "index": 27
      },
      "pbrMetallicRoughness": {
        "baseColorTexture": {
          "index": 26
        },
        "metallicRoughnessTexture": {
          "index": 27
        }
      }
    }
  ],
  "meshes": [
    {
      "name": "defaultMaterial",
      "primitives": [
        {
          "attributes": {
            "NORMAL": 1,
            "POSITION": 0,
            "TANGENT": 2,
            "TEXCOORD_0": 3
          },
          "indices": 4,
          "material": 9,
          "mode": 4
        }
      ]
    },
    {
      "name": "defaultMaterial",
      "primitives": [
        {
          "attributes": {
            "NORMAL": 6,
            "POSITION": 5,
            "TANGENT": 7,
            "TEXCOORD_0": 8
          },
          "indices": 9,
          "material": 9,
          "mode": 4
        }
      ]
    },
    {
      "name": "defaultMaterial",
      "primitives": [
        {
          "attributes": {
            "NORMAL": 11,
            "POSITION": 10,
            "TANGENT": 12,
            "TEXCOORD_0": 13
          },
          "indices": 14,
          "material": 9,
          "mode": 4
        }
      ]
    },
    {
      "name": "defaultMaterial",
      "primitives": [
        {
          "attributes": {
            "NORMAL": 16,
            "POSITION": 15,
            "TANGENT": 17,
            "TEXCOORD_0": 18
          },
          "indices": 19,
          "material": 9,
          "mode": 4
        }
      ]
    },
    {
      "name": "defaultMaterial",
      "primitives": [
        {
          "attributes": {
            "NORMAL": 21,
            "POSITION": 20,
            "TANGENT": 22,
            "TEXCOORD_0": 23
          },
          "indices": 24,
          "material": 9,
          "mode": 4
        }
      ]
    },
    {
      "name": "defaultMaterial",
      "primitives": [
        {
          "attributes": {
            "NORMAL": 26,
            "POSITION": 25,
            "TANGENT": 27,
            "TEXCOORD_0": 28
          },
          "indices": 29,
          "material": 9,
          "mode": 4
        }
      ]
    },
    {
      "name": "defaultMaterial",
      "primitives": [
        {
          "attributes": {
            "NORMAL": 31,
            "POSITION": 30,
            "TANGENT": 32,
            "TEXCOORD_0": 33
          },
          "indices": 34,
          "material": 9,
          "mode": 4
        }
      ]
    },
    {
      "name": "defaultMaterial",
      "primitives": [
        {
          "attributes": {
            "NORMAL": 36,
            "POSITION": 35,
            "TANGENT": 37,
            "TEXCOORD_0": 38
          },
          "indices": 39,
          "material": 9,
          "mode": 4
        }
      ]
    },
    {
      "name": "defaultMaterial",
      "primitives": [
        {
          "attributes": {
            "NORMAL": 41,
            "POSITION": 40,
            "TANGENT": 42,
            "TEXCOORD_0": 43
          },
          "indices": 44,
          "material": 9,
          "mode": 4
        }
      ]
    },
    {
      "name": "defaultMaterial",
      "primitives": [
        {
          "attributes": {
            "NORMAL": 46,
            "POSITION": 45,
            "TANGENT": 47,
            "TEXCOORD_0": 48
          },
          "indices": 49,
          "material": 2,
          "mode": 4
        }
      ]
    },
    {
      "name": "defaultMaterial",
      "primitives": [
        {
          "attributes": {
            "NORMAL": 51,
            "POSITION": 50,
            "TANGENT": 52,
            "TEXCOORD_0": 53
          },
          "indices": 54,
          "material": 3,
          "mode": 4
        }
      ]
    },
    {
      "name": "defaultMaterial",
      "primitives": [
        {
          "attributes": {
            "NORMAL": 56,
            "POSITION": 55,
            "TANGENT": 57,
            "TEXCOORD_0": 58
          },
          "indices": 59,
          "material": 3,
          "mode": 4
        }
      ]
    },
    {
      "name": "defaultMaterial",
      "primitives": [
        {
          "attributes": {
            "NORMAL": 61,
            "POSITION": 60,
            "TANGENT": 62,
            "TEXCOORD_0": 63
          },
          "indices": 64,
          "material": 3,
          "mode": 4
        }
      ]
    },
    {
      "name": "defaultMaterial",
      "primitives": [
        {
          "attributes": {
            "NORMAL": 66,
            "POSITION": 65,
            "TANGENT": 67,
            "TEXCOORD_0": 68
          },
          "indices": 69,
          "material": 8,
          "mode": 4
        }
      ]
    },
    {
      "name": "defaultMaterial",
      "primitives": [
        {
          "attributes": {
            "NORMAL": 71,
            "POSITION": 70,
            "TANGENT": 72,
            "TEXCOORD_0": 73
          },
          "indices": 74,
          "material": 8,
          "mode": 4
        }
      ]
    },
    {
      "name": "defaultMaterial",
      "primitives": [
        {
          "attributes": {
            "NORMAL": 76,
            "POSITION": 75,
            "TANGENT": 77,
            "TEXCOORD_0": 78
          },
          "indices": 79,
          "material": 8,
          "mode": 4
        }
      ]
    },
    {
      "name": "defaultMaterial",
      "primitives": [
        {
          "attributes": {
            "NORMAL": 81,
            "POSITION": 80,
            "TANGENT": 82,
            "TEXCOORD_0": 83
          },
          "indices": 84,
          "material": 8,
          "mode": 4
        }
      ]
    },
    {
      "name": "defaultMaterial",
      "primitives": [
        {
          "attributes": {
            "NORMAL": 86,
            "POSITION": 85,
            "TANGENT": 87,
            "TEXCOORD_0": 88
          },
          "indices": 89,
          "material": 1,
          "mode": 4
        }
      ]
    },
    {
      "name": "defaultMaterial",
      "primitives": [
        {
          "attributes": {
            "NORMAL": 91,
            "POSITION": 90,
            "TANGENT": 92,
            "TEXCOORD_0": 93
          },
          "indices": 94,
          "material": 0,
          "mode": 4
        }
      ]
    },
    {
      "name": "defaultMaterial",
      "primitives": [
        {
          "attributes": {
            "NORMAL": 96,
            "POSITION": 95,
            "TANGENT": 97,
            "TEXCOORD_0": 98
          },
          "indices": 99,
          "material": 0,
          "mode": 4
        }
      ]
    },
    {
      "name": "defaultMaterial",
      "primitives": [
        {
          "attributes": {
            "NORMAL": 101,
            "POSITION": 100,
            "TANGENT": 102,
            "TEXCOORD_0": 103
          },
          "indices": 104,
          "material": 0,
          "mode": 4
        }
      ]
    },
    {
      "name": "defaultMaterial",
      "primitives": [
        {
          "attributes": {
            "NORMAL": 106,
            "POSITION": 105,
            "TANGENT": 107,
            "TEXCOORD_0": 108
          },
          "indices": 109,
          "material": 0,
          "mode": 4
        }
      ]
    },
    {
      "name": "defaultMaterial",
      "primitives": [
        {
          "attributes": {
            "NORMAL": 111,
            "POSITION": 110,
            "TANGENT": 112,
            "TEXCOORD_0": 113
          },
          "indices": 114,
          "material": 7,
          "mode": 4
        }
      ]
    },
    {
      "name": "defaultMaterial",
      "primitives": [
        {
          "attributes": {
            "NORMAL": 116,
            "POSITION": 115,
            "TANGENT": 117,
            "TEXCOORD_0": 118
          },
          "indices": 119,
          "material": 2,
          "mode": 4
        }
      ]
    },
    {
      "name": "defaultMaterial",
      "primitives": [
        {
          "attributes": {
            "NORMAL": 121,
            "POSITION": 120,
            "TANGENT": 122,
            "TEXCOORD_0": 123
          },
          "indices": 124,
          "material": 6,
          "mode": 4
        }
      ]
    },
    {
      "name": "defaultMaterial",
      "primitives": [
        {
          "attributes": {
            "NORMAL": 126,
            "POSITION": 125,
            "TANGENT": 127,
            "TEXCOORD_0": 128
          },
          "indices": 129,
          "material": 6,
          "mode": 4
        }
      ]
    },
    {
      "name": "defaultMaterial",
      "primitives": [
        {
          "attributes": {
            "NORMAL": 131,
            "POSITION": 130,
            "TANGENT": 132,
            "TEXCOORD_0": 133
          },
          "indices": 134,
          "material": 6,
          "mode": 4
        }
      ]
    },
    {
      "name": "defaultMaterial",
      "primitives": [
        {
          "attributes": {
            "NORMAL": 136,
            "POSITION": 135,
            "TANGENT": 137,
            "TEXCOORD_0": 138
          },
          "indices": 139,
          "material": 5,
          "mode": 4
        }
      ]
    },
    {
      "name": "defaultMaterial",
      "primitives": [
        {
          "attributes": {
            "NORMAL": 141,
            "POSITION": 140,
            "TANGENT": 142,
            "TEXCOORD_0": 143
          },
          "indices": 144,
          "material": 5,
          "mode": 4
        }
      ]
    },
    {
      "name": "defaultMaterial",
      "primitives": [
        {
          "attributes": {
            "NORMAL": 146,
            "POSITION": 145,
            "TANGENT": 147,
            "TEXCOORD_0": 148
          },
          "indices": 149,
          "material": 3,
          "mode": 4
        }
      ]
    },
    {
      "name": "defaultMaterial",
      "primitives": [
        {
          "attributes": {
            "NORMAL": 151,
            "POSITION": 150,
            "TEXCOORD_0": 152
          },
          "indices": 153,
          "material": 4,
          "mode": 4
        }
      ]
    },
    {
      "name": "defaultMaterial",
      "primitives": [
        {
          "attributes": {
            "NORMAL": 155,
            "POSITION": 154,
            "TEXCOORD_0": 156
          },
          "indices": 157,
          "material": 4,
          "mode": 4
        }
      ]
    },
    {
      "name": "defaultMaterial",
      "primitives": [
        {
          "attributes": {
            "NORMAL": 159,
            "POSITION": 158,
            "TANGENT": 160,
            "TEXCOORD_0": 161
          },
          "indices": 162,
          "material": 3,
          "mode": 4
        }
      ]
    },
    {
      "name": "defaultMaterial",
      "primitives": [
        {
          "attributes": {
            "NORMAL": 164,
            "POSITION": 163,
            "TANGENT": 165,
            "TEXCOORD_0": 166
          },
          "indices": 167,
          "material": 3,
          "mode": 4
        }
      ]
    },
    {
      "name": "defaultMaterial",
      "primitives": [
        {
          "attributes": {
            "NORMAL": 169,
            "POSITION": 168,
            "TANGENT": 170,
            "TEXCOORD_0": 171
          },
          "indices": 172,
          "material": 3,
          "mode": 4
        }
      ]
    },
    {
      "name": "defaultMaterial",
      "primitives": [
        {
          "attributes": {
            "NORMAL": 174,
            "POSITION": 173,
            "TANGENT": 175,
            "TEXCOORD_0": 176
          },
          "indices": 177,
          "material": 3,
          "mode": 4
        }
      ]
    },
    {
      "name": "defaultMaterial",
      "primitives": [
        {
          "attributes": {
            "NORMAL": 179,
            "POSITION": 178,
            "TANGENT": 180,
            "TEXCOORD_0": 181
          },
          "indices": 182,
          "material": 3,
          "mode": 4
        }
      ]
    },
    {
      "name": "defaultMaterial",
      "primitives": [
        {
          "attributes": {
            "NORMAL": 184,
            "POSITION": 183,
            "TANGENT": 185,
            "TEXCOORD_0": 186
          },
          "indices": 187,
          "material": 3,
          "mode": 4
        }
      ]
    },
    {
      "name": "defaultMaterial",
      "primitives": [
        {
          "attributes": {
            "NORMAL": 189,
            "POSITION": 188,
            "TANGENT": 190,
            "TEXCOORD_0": 191
          },
          "indices": 192,
          "material": 3,
          "mode": 4
        }
      ]
    },
    {
      "name": "defaultMaterial",
      "primitives": [
        {
          "attributes": {
            "NORMAL": 194,
            "POSITION": 193,
            "TANGENT": 195,
            "TEXCOORD_0": 196
          },
          "indices": 197,
          "material": 3,
          "mode": 4
        }
      ]
    },
    {
      "name": "defaultMaterial",
      "primitives": [
        {
          "attributes": {
            "NORMAL": 199,
            "POSITION": 198,
            "TANGENT": 200,
            "TEXCOORD_0": 201
          },
          "indices": 202,
          "material": 3,
          "mode": 4
        }
      ]
    },
    {
      "name": "defaultMaterial",
      "primitives": [
        {
          "attributes": {
            "NORMAL": 204,
            "POSITION": 203,
            "TANGENT": 205,
            "TEXCOORD_0": 206
          },
          "indices": 207,
          "material": 3,
          "mode": 4
        }
      ]
    },
    {
      "name": "defaultMaterial",
      "primitives": [
        {
          "attributes": {
            "NORMAL": 209,
            "POSITION": 208,
            "TANGENT": 210,
            "TEXCOORD_0": 211
          },
          "indices": 212,
          "material": 2,
          "mode": 4
        }
      ]
    },
    {
      "name": "defaultMaterial",
      "primitives": [
        {
          "attributes": {
            "NORMAL": 214,
            "POSITION": 213,
            "TANGENT": 215,
            "TEXCOORD_0": 216
          },
          "indices": 217,
          "material": 1,
          "mode": 4
        }
      ]
    },
    {
      "name": "defaultMaterial",
      "primitives": [
        {
          "attributes": {
            "NORMAL": 219,
            "POSITION": 218,
            "TANGENT": 220,
            "TEXCOORD_0": 221
          },
          "indices": 222,
          "material": 0,
          "mode": 4
        }
      ]
    }
  ],
  "nodes": [
    {
      "children": [
        1
      ],
      "matrix": [
        0.11649951338768005,
        0.0,
        0.0,
        0.0,
        0.0,
        2.5868088424125813e-17,
        -0.11649951338768005,
        0.0,
        0.0,
        0.11649951338768005,
        2.5868088424125813e-17,
        0.0,
        0.0,
        0.0,
        0.0,
        1.0
      ],
      "name": "Sketchfab_model"
    },
    {
      "children": [
        2,
        4,
        6,
        8,
        10,
        12,
        14,
        16,
        18,
        20,
        22,
        24,
        26,
        28,
        30,
        32,
        34,
        36,
        38,
        40,
        42,
        44,
        46,
        48,
        50,
        52,
        54,
        56,
        58,
        60,
        62,
        64,
        66,
        68,
        70,
        72,
        74,
        76,
        78,
        80,
        82,
        84,
        86,
        88,
        90
      ],
      "matrix": [
        1.0,
        0.0,
        0.0,
        0.0,
        0.0,
        -4.371139006309477e-08,
        0.999999999999999,
        0.0,
        0.0,
        -0.999999999999999,
        -4.371139006309477e-08,
        0.0,
        0.0,
        0.0,
        0.0,
        1.0
      ],
      "name": "Collada visual scene group"
    },
    {
      "children": [
        3
      ],
      "name": "porte_10_low"
    },
    {
      "mesh": 0,
      "name": "defaultMaterial"
    },
    {
      "children": [
        5
      ],
      "name": "porte_08_low"
    },
    {
      "mesh": 1,
      "name": "defaultMaterial"
    },
    {
      "children": [
        7
      ],
      "name": "porte_07_low"
    },
    {
      "mesh": 2,
      "name": "defaultMaterial"
    },
    {
      "children": [
        9
      ],
      "name": "porte_06_low"
    },
    {
      "mesh": 3,
      "name": "defaultMaterial"
    },
    {
      "children": [
        11
      ],
      "name": "porte_05_low"
    },
    {
      "mesh": 4,
      "name": "defaultMaterial"
    },
    {
      "children": [
        13
      ],
      "name": "porte_03_low"
    },
    {
      "mesh": 5,
      "name": "defaultMaterial"
    },
    {
      "children": [
        15
      ],
      "name": "porte_02_low"
    },
    {
      "mesh": 6,
      "name": "defaultMaterial"
    },
    {
      "children": [
        17
      ],
      "name": "porte_01_low"
    },
    {
      "mesh": 7,
      "name": "defaultMaterial"
    },
    {
      "children": [
        19
      ],
      "name": "porte_09_low"
    },
    {
      "mesh": 8,
      "name": "defaultMaterial"
    },
    {
      "children": [
        21
      ],
      "name": "pont_rambarde_low"
    },
    {
      "mesh": 9,
      "name": "defaultMaterial"
    },
    {
      "children": [
        23
      ],
      "name": "mur_encadrement_01_low"
    },
    {
      "mesh": 10,
      "name": "defaultMaterial"
    },
    {
      "children": [
        25
      ],
      "name": "props_array_low"
    },
    {
      "mesh": 11,
      "name": "defaultMaterial"
    },
    {
      "children": [
        27
      ],
      "name": "tuyau_encadrement_01_low"
    },
    {
      "mesh": 12,
      "name": "defaultMaterial"
    },
    {
      "children": [
        29
      ],
      "name": "mur_front_low"
    },
    {
      "mesh": 13,
      "name": "defaultMaterial"
    },
    {
      "children": [
        31
      ],
      "name": "mur_front_s_low"
    },
    {
      "mesh": 14,
      "name": "defaultMaterial"
    },
    {
      "children": [
        33
      ],
      "name": "mur_front_barre_low"
    },
    {
      "mesh": 15,
      "name": "defaultMaterial"
    },
    {
      "children": [
        35
      ],
      "name": "mur_front_extra_low"
    },
    {
      "mesh": 16,
      "name": "defaultMaterial"
    },
    {
      "children": [
        37
      ],
      "name": "mur_gauche_low"
    },
    {
      "mesh": 17,
      "name": "defaultMaterial"
    },
    {
      "children": [
        39
      ],
      "name": "mur_bottom_low"
    },
    {
      "mesh": 18,
      "name": "defaultMaterial"
    },
    {
      "children": [
        41
      ],
      "name": "mur_bottom_02_low"
    },
    {
      "mesh": 19,
      "name": "defaultMaterial"
    },
    {
      "children": [
        43
      ],
      "name": "mur_bottom_01_low"
    },
    {
      "mesh": 20,
      "name": "defaultMaterial"
    },
    {
      "children": [
        45
      ],
      "name": "mur_bottom_03_low"
    },
    {
      "mesh": 21,
      "name": "defaultMaterial"
    },
    {
      "children": [
        47
      ],
      "name": "sol_low"
    },
    {
      "mesh": 22,
      "name": "defaultMaterial"
    },
    {
      "children": [
        49
      ],
      "name": "pont_low"
    },
    {
      "mesh": 23,
      "name": "defaultMaterial"
    },
    {
      "children": [
        51
      ],
      "name": "plafond_01_low"
    },
    {
      "mesh": 24,
      "name": "defaultMaterial"
    },
    {
      "children": [
        53
      ],
      "name": "plafond_low"
    },
    {
      "mesh": 25,
      "name": "defaultMaterial"
    },
    {
      "children": [
        55
      ],
      "name": "plafond_02_low"
    },
    {
      "mesh": 26,
      "name": "defaultMaterial"
    },
    {
      "children": [
        57
      ],
      "name": "pont_arche_low"
    },
    {
      "mesh": 27,
      "name": "defaultMaterial"
    },
    {
      "children": [
        59
      ],
      "name": "pont_arche_lampe_low"
    },
    {
      "mesh": 28,
      "name": "defaultMaterial"
    },
    {
      "children": [
        61
      ],
      "name": "mur_encadrement_low"
    },
    {
      "mesh": 29,
      "name": "defaultMaterial"
    },
    {
      "children": [
        63
      ],
      "name": "mur_enveloppe_low"
    },
    {
      "mesh": 30,
      "name": "defaultMaterial"
    },
    {
      "children": [
        65
      ],
      "name": "mur_enveloppe_02_low"
    },
    {
      "mesh": 31,
      "name": "defaultMaterial"
    },
    {
      "children": [
        67
      ],
      "name": "props_volant_low"
    },
    {
      "mesh": 32,
      "name": "defaultMaterial"
    },
    {
      "children": [
        69
      ],
      "name": "props_tuyau_low"
    },
    {
      "mesh": 33,
      "name": "defaultMaterial"
    },
    {
      "children": [
        71
      ],
      "name": "props_ordinateur_low"
    },
    {
      "mesh": 34,
      "name": "defaultMaterial"
    },
    {
      "children": [
        73
      ],
      "name": "props_ecran_clavier_low"
    },
    {
      "mesh": 35,
      "name": "defaultMaterial"
    },
    {
      "children": [
        75
      ],
      "name": "props_trappe_low"
    },
    {
      "mesh": 36,
      "name": "defaultMaterial"
    },
    {
      "children": [
        77
      ],
      "name": "props_fermeture_mur_low"
    },
    {
      "mesh": 37,
      "name": "defaultMaterial"
    },
    {
      "children": [
        79
      ],
      "name": "props_tuyau_02_low"
    },
    {
      "mesh": 38,
      "name": "defaultMaterial"
    },
    {
      "children": [
        81
      ],
      "name": "props_serrure_low"
    },
    {
      "mesh": 39,
      "name": "defaultMaterial"
    },
    {
      "children": [
        83
      ],
      "name": "tuyau_encadrement_low"
    },
    {
      "mesh": 40,
      "name": "defaultMaterial"
    },
    {
      "children": [
        85
      ],
      "name": "props_trappe_01_low"
    },
    {
      "mesh": 41,
      "name": "defaultMaterial"
    },
    {
      "children": [
        87
      ],
      "name": "mur_piece_low"
    },
    {
      "mesh": 42,
      "name": "defaultMaterial"
    },
    {
      "children": [
        89
      ],
      "name": "mur_gauche_01_low"
    },
    {
      "mesh": 43,
      "name": "defaultMaterial"
    },
    {
      "children": [
        91
      ],
      "name": "mur_bottom_04_low"
    },
    {
      "mesh": 44,
      "name": "defaultMaterial"
    }
  ],
  "samplers": [
    {
      "magFilter": 9729,
      "minFilter": 9987,
      "wrapS": 10497,
      "wrapT": 10497
    }
  ],
  "scene": 0,
  "scenes": [
    {
      "name": "Sketchfab_Scene",
      "nodes": [
        0
      ]
    }
  ],
  "textures": [
    {
      "sampler": 0,
      "source": 0
    },
    {
      "sampler": 0,
      "source": 1
    },
    {
      "sampler": 0,
      "source": 2
    },
    {
      "sampler": 0,
      "source": 3
    },
    {
      "sampler": 0,
      "source": 4
    },
    {
      "sampler": 0,
      "source": 5
    },
    {
      "sampler": 0,
      "source": 6
    },
    {
      "sampler": 0,
      "source": 7
    },
    {
      "sampler": 0,
      "source": 8
    },
    {
      "sampler": 0,
      "source": 9
    },
    {
      "sampler": 0,
      "source": 10
    },
    {
      "sampler": 0,
      "source": 11
    },
    {
      "sampler": 0,
      "source": 12
    },
    {
      "sampler": 0,
      "source": 13
    },
    {
      "sampler": 0,
      "source": 14
    },
    {
      "sampler": 0,
      "source": 15
    },
    {
      "sampler": 0,
      "source": 16
    },
    {
      "sampler": 0,
      "source": 17
    },
    {
      "sampler": 0,
      "source": 18
    },
    {
      "sampler": 0,
      "source": 19
    },
    {
      "sampler": 0,
      "source": 20
    },
    {
      "sampler": 0,
      "source": 21
    },
    {
      "sampler": 0,
      "source": 22
    },
    {
      "sampler": 0,
      "source": 23
    },
    {
      "sampler": 0,
      "source": 24
    },
    {
      "sampler": 0,
      "source": 25
    },
    {
      "sampler": 0,
      "source": 26
    },
    {
      "sampler": 0,
      "source": 27
    },
    {
      "sampler": 0,
      "source": 28
    },
    {
      "sampler": 0,
      "source": 29
    }
  ]
}
