{
  "accessors": [
    {
      "bufferView": 2,
      "componentType": 5126,
      "count": 8,
      "max": [
        227.7303924560547,
        -226.47579956054688,
        595.7318115234375
      ],
      "min": [
        93.38469696044922,
        -394.3323059082031,
        587.77587890625
      ],
      "type": "VEC3"
    },
    {
      "bufferView": 2,
      "byteOffset": 96,
      "componentType": 5126,
      "count": 8,
      "max": [
        0.5347003936767578,
        0.5060274600982666,
        0.6768367886543274
      ],
      "min": [
        0.5346291065216064,
        0.5060003995895386,
        0.676800549030304
      ],
      "type": "VEC3"
    },
    {
      "bufferView": 1,
      "componentType": 5126,
      "count": 8,
      "max": [
        0.7850000262260437,
        0.6829000115394592
      ],
      "min": [
        0.7473000288009644,
        0.6499000191688538
      ],
      "type": "VEC2"
    },
    {
      "bufferView": 0,
      "componentType": 5125,
      "count": 12,
      "type": "SCALAR"
    },
    {
      "bufferView": 2,
      "byteOffset": 192,
      "componentType": 5126,
      "count": 224,
      "max": [
        227.7303924560547,
        -226.47579956054688,
        644.4722290039063
      ],
      "min": [
        -548.3037109375,
        -780.4860229492188,
        159.4239959716797
      ],
      "type": "VEC3"
    },
    {
      "bufferView": 2,
      "byteOffset": 2880,
      "componentType": 5126,
      "count": 224,
      "max": [
        0.801994800567627,
        0.788203775882721,
        0.982393205165863
      ],
      "min": [
        -0.7789731621742249,
        -0.8078901171684265,
        -0.9928296804428101
      ],
      "type": "VEC3"
    },
    {
      "bufferView": 1,
      "byteOffset": 64,
      "componentType": 5126,
      "count": 224,
      "max": [
        3.143699884414673,
        28.965700149536133
      ],
      "min": [
        -0.005499999970197678,
        3.63070011138916
      ],
      "type": "VEC2"
    },
    {
      "bufferView": 0,
      "byteOffset": 48,
      "componentType": 5125,
      "count": 336,
      "type": "SCALAR"
    },
    {
      "bufferView": 2,
      "byteOffset": 5568,
      "componentType": 5126,
      "count": 118,
      "max": [
        127.24590301513672,
        -1562.61328125,
        194.52529907226563
      ],
      "min": [
        -112.2157974243164,
        -1898.308349609375,
        151.52369689941406
      ],
      "type": "VEC3"
    },
    {
      "bufferView": 2,
      "byteOffset": 6984,
      "componentType": 5126,
      "count": 118,
      "max": [
        0.9919442534446716,
        0.8073935508728027,
        0.9943431615829468
      ],
      "min": [
        -0.8974390625953674,
        -0.9001181125640869,
        -0.9830921292304993
      ],
      "type": "VEC3"
    },
    {
      "bufferView": 1,
      "byteOffset": 1856,
      "componentType": 5126,
      "count": 118,
      "max": [
        0.8446999788284302,
        0.29829999804496765
      ],
      "min": [
        0.7143999934196472,
        0.12600000202655792
      ],
      "type": "VEC2"
    },
    {
      "bufferView": 0,
      "byteOffset": 1392,
      "componentType": 5125,
      "count": 276,
      "type": "SCALAR"
    },
    {
      "bufferView": 2,
      "byteOffset": 8400,
      "componentType": 5126,
      "count": 367,
      "max": [
        348.76971435546875,
        -22.127899169921875,
        1049.95068359375
      ],
      "min": [
        -710.8270874023438,
        -2351.587158203125,
        305.7318115234375
      ],
      "type": "VEC3"
    },
    {
      "bufferView": 2,
      "byteOffset": 12804,
      "componentType": 5126,
      "count": 367,
      "max": [
        0.7319761514663696,
        0.7340105175971985,
        0.9748302102088928
      ],
      "min": [
        -0.7346102595329285,
        -0.784031867980957,
        0.19000771641731262
      ],
      "type": "VEC3"
    },
    {
      "bufferView": 3,
      "componentType": 5126,
      "count": 367,
      "max": [
        0.8503462076187134,
        0.8909546136856079,
        0.8632787466049194,
        1.0
      ],
      "min": [
        -0.8722017407417297,
        -0.847903311252594,
        -0.0996699407696724,
        1.0
      ],
      "type": "VEC4"
    },
    {
      "bufferView": 1,
      "byteOffset": 2800,
      "componentType": 5126,
      "count": 367,
      "max": [
        30.49810028076172,
        21.893199920654297
      ],
      "min": [
        0.36230000853538513,
        -0.9632999897003174
      ],
      "type": "VEC2"
    },
    {
      "bufferView": 0,
      "byteOffset": 2496,
      "componentType": 5125,
      "count": 507,
      "type": "SCALAR"
    },
    {
      "bufferView": 2,
      "byteOffset": 17208,
      "componentType": 5126,
      "count": 729,
      "max": [
        267.6554870605469,
        -105.74490356445313,
        1014.156982421875
      ],
      "min": [
        -632.2926025390625,
        -2234.856201171875,
        -86.27629852294922
      ],
      "type": "VEC3"
    },
    {
      "bufferView": 2,
      "byteOffset": 25956,
      "componentType": 5126,
      "count": 729,
      "max": [
        0.8609164953231812,
        0.8219149112701416,
        0.2060089409351349
      ],
      "min": [
        -0.8029041290283203,
        -0.8050500750541687,
        -1.0
      ],
      "type": "VEC3"
    },
    {
      "bufferView": 3,
      "byteOffset": 5872,
      "componentType": 5126,
      "count": 729,
      "max": [
        0.9512046575546265,
        0.9809199571609497,
        0.9875321388244629,
        1.0
      ],
      "min": [
        -1.0,
        -0.9166931509971619,
        -1.0,
        -1.0
      ],
      "type": "VEC4"
    },
    {
      "bufferView": 1,
      "byteOffset": 5736,
      "componentType": 5126,
      "count": 729,
      "max": [
        7.97599983215332,
        8.865799903869629
      ],
      "min": [
        -0.005200000014156103,
        -0.0044999998062849045
      ],
      "type": "VEC2"
    },
    {
      "bufferView": 0,
      "byteOffset": 4524,
      "componentType": 5125,
      "count": 1251,
      "type": "SCALAR"
    },
    {
      "bufferView": 2,
      "byteOffset": 34704,
      "componentType": 5126,
      "count": 8,
      "max": [
        131.85040283203125,
        -940.8121948242188,
        60.93349838256836
      ],
      "min": [
        13.432100296020508,
        -1054.38134765625,
        -64.685302734375
      ],
      "type": "VEC3"
    },
    {
      "bufferView": 2,
      "byteOffset": 34800,
      "componentType": 5126,
      "count": 8,
      "max": [
        0.6668065190315247,
        -0.6539927124977112,
        0.18809829652309418
      ],
      "min": [
        0.6009771823883057,
        -0.7418932914733887,
        -0.4375951290130615
      ],
      "type": "VEC3"
    },
    {
      "bufferView": 1,
      "byteOffset": 11568,
      "componentType": 5126,
      "count": 8,
      "max": [
        0.9150999784469604,
        0.9814000129699707
      ],
      "min": [
        0.09780000150203705,
        0.025699999183416367
      ],
      "type": "VEC2"
    },
    {
      "bufferView": 0,
      "byteOffset": 9528,
      "componentType": 5125,
      "count": 12,
      "type": "SCALAR"
    },
    {
      "bufferView": 2,
      "byteOffset": 34896,
      "componentType": 5126,
      "count": 18012,
      "max": [
        367.70220947265625,
        1.8654999732971191,
        1151.756103515625
      ],
      "min": [
        -726.531005859375,
        -2367.05029296875,
        -132.89930725097656
      ],
      "type": "VEC3"
    },
    {
      "bufferView": 2,
      "byteOffset": 251040,
      "componentType": 5126,
      "count": 18012,
      "max": [
        0.9991376399993896,
        0.9983096718788147,
        0.9998719692230225
      ],
      "min": [
        -0.9991391897201538,
        -0.9983120560646057,
        -0.9998719692230225
      ],
      "type": "VEC3"
    },
    {
      "bufferView": 3,
      "byteOffset": 17536,
      "componentType": 5126,
      "count": 18012,
      "max": [
        0.9843600392341614,
        0.9944623708724976,
        0.9999488592147827,
        1.0
      ],
      "min": [
        -0.9953963756561279,
        -0.9763511419296265,
        -0.999822735786438,
        -1.0
      ],
      "type": "VEC4"
    },
    {
      "bufferView": 1,
      "byteOffset": 11632,
      "componentType": 5126,
      "count": 18012,
      "max": [
        0.9976000189781189,
        0.9972000122070313
      ],
      "min": [
        0.011500000022351742,
        0.00419999985024333
      ],
      "type": "VEC2"
    },
    {
      "bufferView": 0,
      "byteOffset": 9576,
      "componentType": 5125,
      "count": 25590,
      "type": "SCALAR"
    },
    {
      "bufferView": 2,
      "byteOffset": 467184,
      "componentType": 5126,
      "count": 72,
      "max": [
        -512.1669921875,
        -663.47412109375,
        667.7728271484375
      ],
      "min": [
        -543.7086791992188,
        -690.5828247070313,
        646.7634887695313
      ],
      "type": "VEC3"
    },
    {
      "bufferView": 2,
      "byteOffset": 468048,
      "componentType": 5126,
      "count": 72,
      "max": [
        0.7689863443374634,
        0.9838370680809021,
        0.9268887639045715
      ],
      "min": [
        -0.9737555384635925,
        -0.5402980446815491,
        -0.43749555945396423
      ],
      "type": "VEC3"
    },
    {
      "bufferView": 1,
      "byteOffset": 155728,
      "componentType": 5126,
      "count": 72,
      "max": [
        0.6164000034332275,
        0.6380000114440918
      ],
      "min": [
        0.5202999711036682,
        0.5339000225067139
      ],
      "type": "VEC2"
    },
    {
      "bufferView": 0,
      "byteOffset": 111936,
      "componentType": 5125,
      "count": 108,
      "type": "SCALAR"
    },
    {
      "bufferView": 2,
      "byteOffset": 468912,
      "componentType": 5126,
      "count": 432,
      "max": [
        1877.0286865234375,
        -520.5576171875,
        941.085693359375
      ],
      "min": [
        1103.422119140625,
        -1157.327392578125,
        233.79660034179688
      ],
      "type": "VEC3"
    },
    {
      "bufferView": 2,
      "byteOffset": 474096,
      "componentType": 5126,
      "count": 432,
      "max": [
        0.8190411925315857,
        0.7591820359230042,
        1.0
      ],
      "min": [
        -0.8636910319328308,
        -0.7594807147979736,
        -0.9998973608016968
      ],
      "type": "VEC3"
    },
    {
      "bufferView": 1,
      "byteOffset": 156304,
      "componentType": 5126,
      "count": 432,
      "max": [
        0.9954000115394592,
        0.9958999752998352
      ],
      "min": [
        0.005799999926239252,
        0.00839999970048666
      ],
      "type": "VEC2"
    },
    {
      "bufferView": 0,
      "byteOffset": 112368,
      "componentType": 5125,
      "count": 648,
      "type": "SCALAR"
    },
    {
      "bufferView": 2,
      "byteOffset": 479280,
      "componentType": 5126,
      "count": 4,
      "max": [
        184.6938934326172,
        -347.24310302734375,
        544.3109130859375
      ],
      "min": [
        111.95819854736328,
        -441.41400146484375,
        544.3098754882813
      ],
      "type": "VEC3"
    },
    {
      "bufferView": 2,
      "byteOffset": 479328,
      "componentType": 5126,
      "count": 4,
      "max": [
        -9.999999747378752e-05,
        -0.0,
        1.0
      ],
      "min": [
        -9.999999747378752e-05,
        -0.0,
        1.0
      ],
      "type": "VEC3"
    },
    {
      "bufferView": 1,
      "byteOffset": 159760,
      "componentType": 5126,
      "count": 4,
      "max": [
        0.45249998569488525,
        0.9958999752998352
      ],
      "min": [
        0.13220000267028809,
        0.9836000204086304
      ],
      "type": "VEC2"
    },
    {
      "bufferView": 0,
      "byteOffset": 114960,
      "componentType": 5125,
      "count": 6,
      "type": "SCALAR"
    },
    {
      "bufferView": 2,
      "byteOffset": 479376,
      "componentType": 5126,
      "count": 20,
      "max": [
        -81.6885986328125,
        -568.63623046875,
        443.9267883300781
      ],
      "min": [
        -423.9169006347656,
        -811.4171142578125,
        316.5719909667969
      ],
      "type": "VEC3"
    },
    {
      "bufferView": 2,
      "byteOffset": 479616,
      "componentType": 5126,
      "count": 20,
      "max": [
        -0.39639031887054443,
        0.9137776494026184,
        0.0958009585738182
      ],
      "min": [
        -0.7322232723236084,
        0.6743214130401611,
        0.08460148423910141
      ],
      "type": "VEC3"
    },
    {
      "bufferView": 1,
      "byteOffset": 159792,
      "componentType": 5126,
      "count": 20,
      "max": [
        2.114500045776367,
        4.637599945068359
      ],
      "min": [
        1.8386000394821167,
        2.637700080871582
      ],
      "type": "VEC2"
    },
    {
      "bufferView": 0,
      "byteOffset": 114984,
      "componentType": 5125,
      "count": 36,
      "type": "SCALAR"
    },
    {
      "bufferView": 2,
      "byteOffset": 479856,
      "componentType": 5126,
      "count": 64,
      "max": [
        1107.99169921875,
        274.2416076660156,
        1533.738037109375
      ],
      "min": [
        434.21759033203125,
        -428.9855041503906,
        809.9575805664063
      ],
      "type": "VEC3"
    },
    {
      "bufferView": 2,
      "byteOffset": 480624,
      "componentType": 5126,
      "count": 64,
      "max": [
        0.9968066811561584,
        0.9970003366470337,
        -0.06619733572006226
      ],
      "min": [
        -0.997069776058197,
        -0.9969598054885864,
        -0.07059970498085022
      ],
      "type": "VEC3"
    },
    {
      "bufferView": 1,
      "byteOffset": 159952,
      "componentType": 5126,
      "count": 64,
      "max": [
        3.247999906539917,
        7.584400177001953
      ],
      "min": [
        1.3184000253677368,
        -1.840000033378601
      ],
      "type": "VEC2"
    },
    {
      "bufferView": 0,
      "byteOffset": 115128,
      "componentType": 5125,
      "count": 96,
      "type": "SCALAR"
    },
    {
      "bufferView": 2,
      "byteOffset": 481392,
      "componentType": 5126,
      "count": 46,
      "max": [
        1756.586669921875,
        -653.4041748046875,
        351.685791015625
      ],
      "min": [
        1392.6678466796875,
        -1046.1097412109375,
        295.1377868652344
      ],
      "type": "VEC3"
    },
    {
      "bufferView": 2,
      "byteOffset": 481944,
      "componentType": 5126,
      "count": 46,
      "max": [
        0.7629961967468262,
        0.7226226329803467,
        0.99932861328125
      ],
      "min": [
        -0.7629961967468262,
        -0.7803087830543518,
        -0.08579884469509125
      ],
      "type": "VEC3"
    },
    {
      "bufferView": 1,
      "byteOffset": 160464,
      "componentType": 5126,
      "count": 46,
      "max": [
        0.6575999855995178,
        0.7092000246047974
      ],
      "min": [
        0.5447999835014343,
        0.6281999945640564
      ],
      "type": "VEC2"
    },
    {
      "bufferView": 0,
      "byteOffset": 115512,
      "componentType": 5125,
      "count": 72,
      "type": "SCALAR"
    },
    {
      "bufferView": 2,
      "byteOffset": 482496,
      "componentType": 5126,
      "count": 14017,
      "max": [
        2238.650146484375,
        -292.2970886230469,
        1433.686767578125
      ],
      "min": [
        959.7271728515625,
        -2774.41455078125,
        -26.553499221801758
      ],
      "type": "VEC3"
    },
    {
      "bufferView": 2,
      "byteOffset": 650700,
      "componentType": 5126,
      "count": 14017,
      "max": [
        0.999150812625885,
        0.9957380890846252,
        0.9999567270278931
      ],
      "min": [
        -0.9999994039535522,
        -0.999815046787262,
        -0.9998757839202881
      ],
      "type": "VEC3"
    },
    {
      "bufferView": 1,
      "byteOffset": 160832,
      "componentType": 5126,
      "count": 14017,
      "max": [
        0.9925000071525574,
        0.9919999837875366
      ],
      "min": [
        0.013399999588727951,
        0.008200000040233135
      ],
      "type": "VEC2"
    },
    {
      "bufferView": 0,
      "byteOffset": 115800,
      "componentType": 5125,
      "count": 19863,
      "type": "SCALAR"
    },
    {
      "bufferView": 2,
      "byteOffset": 818904,
      "componentType": 5126,
      "count": 224,
      "max": [
        1138.17822265625,
        285.4692077636719,
        2676.568359375
      ],
      "min": [
        395.68798828125,
        -474.19580078125,
        804.5640869140625
      ],
      "type": "VEC3"
    },
    {
      "bufferView": 2,
      "byteOffset": 821592,
      "componentType": 5126,
      "count": 224,
      "max": [
        0.8034276366233826,
        0.814190685749054,
        0.9794467687606812
      ],
      "min": [
        -0.8033835887908936,
        -0.8149828910827637,
        0.5689880847930908
      ],
      "type": "VEC3"
    },
    {
      "bufferView": 1,
      "byteOffset": 272968,
      "componentType": 5126,
      "count": 224,
      "max": [
        9.653200149536133,
        6.670100212097168
      ],
      "min": [
        1.8102999925613403,
        1.5010000467300415
      ],
      "type": "VEC2"
    },
    {
      "bufferView": 0,
      "byteOffset": 195252,
      "componentType": 5125,
      "count": 336,
      "type": "SCALAR"
    },
    {
      "bufferView": 2,
      "byteOffset": 824280,
      "componentType": 5126,
      "count": 66,
      "max": [
        1092.36474609375,
        250.08079528808594,
        1641.8135986328125
      ],
      "min": [
        451.5924987792969,
        -406.7880859375,
        711.2838134765625
      ],
      "type": "VEC3"
    },
    {
      "bufferView": 2,
      "byteOffset": 825072,
      "componentType": 5126,
      "count": 66,
      "max": [
        0.9992401003837585,
        0.9994183778762817,
        0.00910036638379097
      ],
      "min": [
        -0.9992401003837585,
        -0.9994183778762817,
        -0.07059970498085022
      ],
      "type": "VEC3"
    },
    {
      "bufferView": 1,
      "byteOffset": 274760,
      "componentType": 5126,
      "count": 66,
      "max": [
        11.334199905395508,
        5.904099941253662
      ],
      "min": [
        10.452400207519531,
        5.001699924468994
      ],
      "type": "VEC2"
    },
    {
      "bufferView": 0,
      "byteOffset": 196596,
      "componentType": 5125,
      "count": 120,
      "type": "SCALAR"
    },
    {
      "bufferView": 2,
      "byteOffset": 825864,
      "componentType": 5126,
      "count": 338,
      "max": [
        338.2987060546875,
        -200.6627960205078,
        1346.4873046875
      ],
      "min": [
        -595.8126831054688,
        -2167.2236328125,
        -131.1053924560547
      ],
      "type": "VEC3"
    },
    {
      "bufferView": 2,
      "byteOffset": 829920,
      "componentType": 5126,
      "count": 338,
      "max": [
        0.812093198299408,
        0.9830576777458191,
        1.0
      ],
      "min": [
        -0.9610580205917358,
        -0.9355310201644897,
        -0.18440213799476624
      ],
      "type": "VEC3"
    },
    {
      "bufferView": 3,
      "byteOffset": 305728,
      "componentType": 5126,
      "count": 338,
      "max": [
        0.9999988079071045,
        0.9942335486412048,
        1.0,
        1.0
      ],
      "min": [
        -0.9923624396324158,
        -0.9603582620620728,
        -0.6810452938079834,
        -1.0
      ],
      "type": "VEC4"
    },
    {
      "bufferView": 1,
      "byteOffset": 275288,
      "componentType": 5126,
      "count": 338,
      "max": [
        41.173301696777344,
        33.62260055541992
      ],
      "min": [
        0.5576000213623047,
        0.2328999936580658
      ],
      "type": "VEC2"
    },
    {
      "bufferView": 0,
      "byteOffset": 197076,
      "componentType": 5125,
      "count": 609,
      "type": "SCALAR"
    },
    {
      "bufferView": 2,
      "byteOffset": 833976,
      "componentType": 5126,
      "count": 536,
      "max": [
        2197.869140625,
        -310.75439453125,
        1364.922119140625
      ],
      "min": [
        -672.252197265625,
        -2750.65283203125,
        230.2530975341797
      ],
      "type": "VEC3"
    },
    {
      "bufferView": 2,
      "byteOffset": 840408,
      "componentType": 5126,
      "count": 536,
      "max": [
        0.7991281747817993,
        0.9387707710266113,
        0.996516764163971
      ],
      "min": [
        -0.838190495967865,
        -0.7981880307197571,
        -1.0
      ],
      "type": "VEC3"
    },
    {
      "bufferView": 3,
      "byteOffset": 311136,
      "componentType": 5126,
      "count": 536,
      "max": [
        0.8227313756942749,
        0.8938702344894409,
        0.801716148853302,
        1.0
      ],
      "min": [
        -0.8442140221595764,
        -0.8084731698036194,
        -0.9985201358795166,
        -1.0
      ],
      "type": "VEC4"
    },
    {
      "bufferView": 1,
      "byteOffset": 277992,
      "componentType": 5126,
      "count": 536,
      "max": [
        114.47090148925781,
        205.97039794921875
      ],
      "min": [
        0.43630000948905945,
        -0.6407999992370605
      ],
      "type": "VEC2"
    },
    {
      "bufferView": 0,
      "byteOffset": 199512,
      "componentType": 5125,
      "count": 834,
      "type": "SCALAR"
    },
    {
      "bufferView": 2,
      "byteOffset": 846840,
      "componentType": 5126,
      "count": 937,
      "max": [
        2070.55615234375,
        -335.38970947265625,
        1329.128662109375
      ],
      "min": [
        1118.7523193359375,
        -2611.21435546875,
        -67.82019805908203
      ],
      "type": "VEC3"
    },
    {
      "bufferView": 2,
      "byteOffset": 858084,
      "componentType": 5126,
      "count": 937,
      "max": [
        0.813887357711792,
        0.8229678273200989,
        1.0
      ],
      "min": [
        -0.9761228561401367,
        -0.8966792821884155,
        -1.0
      ],
      "type": "VEC3"
    },
    {
      "bufferView": 1,
      "byteOffset": 282280,
      "componentType": 5126,
      "count": 937,
      "max": [
        24.026100158691406,
        13.227299690246582
      ],
      "min": [
        5.505499839782715,
        0.8432000279426575
      ],
      "type": "VEC2"
    },
    {
      "bufferView": 0,
      "byteOffset": 202848,
      "componentType": 5125,
      "count": 1542,
      "type": "SCALAR"
    },
    {
      "bufferView": 2,
      "byteOffset": 869328,
      "componentType": 5126,
      "count": 643,
      "max": [
        2048.062744140625,
        -311.80938720703125,
        1677.677734375
      ],
      "min": [
        1005.048095703125,
        -2553.85498046875,
        -106.49440002441406
      ],
      "type": "VEC3"
    },
    {
      "bufferView": 2,
      "byteOffset": 877044,
      "componentType": 5126,
      "count": 643,
      "max": [
        0.9923120141029358,
        0.9832354187965393,
        0.9999994039535522
      ],
      "min": [
        -0.9882538318634033,
        -0.9825921058654785,
        -0.9941843748092651
      ],
      "type": "VEC3"
    },
    {
      "bufferView": 1,
      "byteOffset": 289776,
      "componentType": 5126,
      "count": 643,
      "max": [
        34.13880157470703,
        49.8380012512207
      ],
      "min": [
        5.736400127410889,
        4.522500038146973
      ],
      "type": "VEC2"
    },
    {
      "bufferView": 0,
      "byteOffset": 209016,
      "componentType": 5125,
      "count": 1200,
      "type": "SCALAR"
    },
    {
      "bufferView": 2,
      "byteOffset": 884760,
      "componentType": 5126,
      "count": 5648,
      "max": [
        2197.869140625,
        -477.34588623046875,
        1020.2783203125
      ],
      "min": [
        713.0941772460938,
        -2757.893798828125,
        -316.0151062011719
      ],
      "type": "VEC3"
    },
    {
      "bufferView": 2,
      "byteOffset": 952536,
      "componentType": 5126,
      "count": 5648,
      "max": [
        0.9982824921607971,
        0.99339759349823,
        1.0
      ],
      "min": [
        -0.9987359642982483,
        -0.99339759349823,
        -1.0
      ],
      "type": "VEC3"
    },
    {
      "bufferView": 1,
      "byteOffset": 294920,
      "componentType": 5126,
      "count": 5648,
      "max": [
        10.810700416564941,
        5.865200042724609
      ],
      "min": [
        0.006099999882280827,
        0.0027000000700354576
      ],
      "type": "VEC2"
    },
    {
      "bufferView": 0,
      "byteOffset": 213816,
      "componentType": 5125,
      "count": 9900,
      "type": "SCALAR"
    },
    {
      "bufferView": 2,
      "byteOffset": 1020312,
      "componentType": 5126,
      "count": 14545,
      "max": [
        2083.4482421875,
        -310.75408935546875,
        1374.874267578125
      ],
      "min": [
        1068.1944580078125,
        -2618.56982421875,
        -174.289306640625
      ],
      "type": "VEC3"
    },
    {
      "bufferView": 2,
      "byteOffset": 1194852,
      "componentType": 5126,
      "count": 14545,
      "max": [
        0.9992985725402832,
        0.9988565444946289,
        1.0
      ],
      "min": [
        -0.9941184520721436,
        -0.9987444281578064,
        -1.0
      ],
      "type": "VEC3"
    },
    {
      "bufferView": 1,
      "byteOffset": 340104,
      "componentType": 5126,
      "count": 14545,
      "max": [
        10.314900398254395,
        15.99209976196289
      ],
      "min": [
        -0.005499999970197678,
        -4.878300189971924
      ],
      "type": "VEC2"
    },
    {
      "bufferView": 0,
      "byteOffset": 253416,
      "componentType": 5125,
      "count": 21933,
      "type": "SCALAR"
    },
    {
      "bufferView": 2,
      "byteOffset": 1369392,
      "componentType": 5126,
      "count": 15616,
      "max": [
        378.75830078125,
        -22.127899169921875,
        1110.922607421875
      ],
      "min": [
        -711.4713745117188,
        -2351.587158203125,
        -192.7451934814453
      ],
      "type": "VEC3"
    },
    {
      "bufferView": 2,
      "byteOffset": 1556784,
      "componentType": 5126,
      "count": 15616,
      "max": [
        0.999595582485199,
        0.9983066916465759,
        1.0
      ],
      "min": [
        -0.9990260004997253,
        -0.9891497492790222,
        -1.0
      ],
      "type": "VEC3"
    },
    {
      "bufferView": 1,
      "byteOffset": 456464,
      "componentType": 5126,
      "count": 15616,
      "max": [
        10.782899856567383,
        71.0553970336914
      ],
      "min": [
        -1.9735000133514404,
        -1.719099998474121
      ],
      "type": "VEC2"
    },
    {
      "bufferView": 0,
      "byteOffset": 341148,
      "componentType": 5125,
      "count": 22455,
      "type": "SCALAR"
    },
    {
      "bufferView": 2,
      "byteOffset": 1744176,
      "componentType": 5126,
      "count": 5933,
      "max": [
        1981.5946044921875,
        -1790.6654052734375,
        668.8552856445313
      ],
      "min": [
        433.7861022949219,
        -2883.78759765625,
        -120.0114974975586
      ],
      "type": "VEC3"
    },
    {
      "bufferView": 2,
      "byteOffset": 1815372,
      "componentType": 5126,
      "count": 5933,
      "max": [
        0.9999226331710815,
        0.9982466697692871,
        1.0
      ],
      "min": [
        -0.9999505281448364,
        -0.9982466697692871,
        -1.0
      ],
      "type": "VEC3"
    },
    {
      "bufferView": 1,
      "byteOffset": 581392,
      "componentType": 5126,
      "count": 5933,
      "max": [
        0.9904000163078308,
        0.9979000091552734
      ],
      "min": [
        0.005499999970197678,
        0.00570000009611249
      ],
      "type": "VEC2"
    },
    {
      "bufferView": 0,
      "byteOffset": 430968,
      "componentType": 5125,
      "count": 10038,
      "type": "SCALAR"
    },
    {
      "bufferView": 2,
      "byteOffset": 1886568,
      "componentType": 5126,
      "count": 9574,
      "max": [
        2493.919189453125,
        510.064208984375,
        18.221599578857422
      ],
      "min": [
        -1304.52978515625,
        -3207.263671875,
        -132.4539031982422
      ],
      "type": "VEC3"
    },
    {
      "bufferView": 2,
      "byteOffset": 2001456,
      "componentType": 5126,
      "count": 9574,
      "max": [
        0.9961855411529541,
        0.9950856566429138,
        1.0
      ],
      "min": [
        -0.9998318552970886,
        -0.9959450960159302,
        -0.9779075980186462
      ],
      "type": "VEC3"
    },
    {
      "bufferView": 1,
      "byteOffset": 628856,
      "componentType": 5126,
      "count": 9574,
      "max": [
        0.7434999942779541,
        0.43470001220703125
      ],
      "min": [
        0.012299999594688416,
        0.010599999688565731
      ],
      "type": "VEC2"
    },
    {
      "bufferView": 0,
      "byteOffset": 471120,
      "componentType": 5125,
      "count": 14370,
      "type": "SCALAR"
    },
    {
      "bufferView": 2,
      "byteOffset": 2116344,
      "componentType": 5126,
      "count": 540,
      "max": [
        1360.5675048828125,
        -840.3519897460938,
        43.619998931884766
      ],
      "min": [
        1123.4798583984375,
        -1121.1142578125,
        -74.25810241699219
      ],
      "type": "VEC3"
    },
    {
      "bufferView": 2,
      "byteOffset": 2122824,
      "componentType": 5126,
      "count": 540,
      "max": [
        0.7380783557891846,
        0.6761895418167114,
        0.7205079793930054
      ],
      "min": [
        -0.7380783557891846,
        -0.6762449741363525,
        -0.7205079793930054
      ],
      "type": "VEC3"
    },
    {
      "bufferView": 3,
      "byteOffset": 319712,
      "componentType": 5126,
      "count": 540,
      "max": [
        0.501137375831604,
        0.5210040211677551,
        0.9297167062759399,
        1.0
      ],
      "min": [
        -0.5011362433433533,
        -0.5210162997245789,
        -0.9993982911109924,
        1.0
      ],
      "type": "VEC4"
    },
    {
      "bufferView": 1,
      "byteOffset": 705448,
      "componentType": 5126,
      "count": 540,
      "max": [
        0.5414999723434448,
        0.9699000120162964
      ],
      "min": [
        0.02250000089406967,
        0.005900000222027302
      ],
      "type": "VEC2"
    },
    {
      "bufferView": 0,
      "byteOffset": 528600,
      "componentType": 5125,
      "count": 1080,
      "type": "SCALAR"
    },
    {
      "bufferView": 2,
      "byteOffset": 2129304,
      "componentType": 5126,
      "count": 1624,
      "max": [
        1576.896728515625,
        -394.4739990234375,
        67.92559814453125
      ],
      "min": [
        -277.7379150390625,
        -1651.760986328125,
        -119.79389953613281
      ],
      "type": "VEC3"
    },
    {
      "bufferView": 2,
      "byteOffset": 2148792,
      "componentType": 5126,
      "count": 1624,
      "max": [
        0.9994913935661316,
        0.9984003305435181,
        0.9312566518783569
      ],
      "min": [
        -0.99952632188797,
        -0.9986858367919922,
        -0.931200385093689
      ],
      "type": "VEC3"
    },
    {
      "bufferView": 3,
      "byteOffset": 328352,
      "componentType": 5126,
      "count": 1624,
      "max": [
        0.9998053312301636,
        0.9996729493141174,
        0.9983322024345398,
        1.0
      ],
      "min": [
        -0.9998037815093994,
        -0.9996961951255798,
        -0.998332142829895,
        1.0
      ],
      "type": "VEC4"
    },
    {
      "bufferView": 1,
      "byteOffset": 709768,
      "componentType": 5126,
      "count": 1624,
      "max": [
        0.8723000288009644,
        0.9319000244140625
      ],
      "min": [
        0.31709998846054077,
        0.013000000268220901
      ],
      "type": "VEC2"
    },
    {
      "bufferView": 0,
      "byteOffset": 532920,
      "componentType": 5125,
      "count": 3120,
      "type": "SCALAR"
    },
    {
      "bufferView": 2,
      "byteOffset": 2168280,
      "componentType": 5126,
      "count": 564,
      "max": [
        853.5609741210938,
        -1123.39208984375,
        252.618896484375
      ],
      "min": [
        638.4342041015625,
        -1295.3712158203125,
        96.86810302734375
      ],
      "type": "VEC3"
    },
    {
      "bufferView": 2,
      "byteOffset": 2175048,
      "componentType": 5126,
      "count": 564,
      "max": [
        0.989549994468689,
        0.9953916072845459,
        1.0
      ],
      "min": [
        -0.9895638823509216,
        -0.999995231628418,
        -1.0
      ],
      "type": "VEC3"
    },
    {
      "bufferView": 1,
      "byteOffset": 722760,
      "componentType": 5126,
      "count": 564,
      "max": [
        0.9919000267982483,
        0.9909999966621399
      ],
      "min": [
        0.01860000006854534,
        0.010099999606609344
      ],
      "type": "VEC2"
    },
    {
      "bufferView": 0,
      "byteOffset": 545400,
      "componentType": 5125,
      "count": 1044,
      "type": "SCALAR"
    },
    {
      "bufferView": 2,
      "byteOffset": 2181816,
      "componentType": 5126,
      "count": 62,
      "max": [
        2541.759765625,
        497.72918701171875,
        -105.37750244140625
      ],
      "min": [
        -1342.0567626953125,
        -3327.083740234375,
        -296.55859375
      ],
      "type": "VEC3"
    },
    {
      "bufferView": 2,
      "byteOffset": 2182560,
      "componentType": 5126,
      "count": 62,
      "max": [
        1.0,
        0.9848158359527588,
        1.0
      ],
      "min": [
        -1.0,
        -0.9848158359527588,
        0.0
      ],
      "type": "VEC3"
    },
    {
      "bufferView": 3,
      "byteOffset": 354336,
      "componentType": 5126,
      "count": 62,
      "max": [
        0.9848158359527588,
        1.0,
        0.0,
        1.0
      ],
      "min": [
        -0.9848158359527588,
        -1.0,
        0.0,
        1.0
      ],
      "type": "VEC4"
    },
    {
      "bufferView": 1,
      "byteOffset": 727272,
      "componentType": 5126,
      "count": 62,
      "max": [
        0.9760000109672546,
        0.9783999919891357
      ],
      "min": [
        0.06589999794960022,
        0.009999999776482582
      ],
      "type": "VEC2"
    },
    {
      "bufferView": 0,
      "byteOffset": 549576,
      "componentType": 5125,
      "count": 156,
      "type": "SCALAR"
    },
    {
      "bufferView": 2,
      "byteOffset": 2183304,
      "componentType": 5126,
      "count": 172,
      "max": [
        1676.94677734375,
        -582.0673217773438,
        1125.777587890625
      ],
      "min": [
        -283.2589111328125,
        -1803.5302734375,
        405.2521057128906
      ],
      "type": "VEC3"
    },
    {
      "bufferView": 2,
      "byteOffset": 2185368,
      "componentType": 5126,
      "count": 172,
      "max": [
        0.7900893092155457,
        0.7904816269874573,
        0.9991682767868042
      ],
      "min": [
        -0.7900893092155457,
        -0.7905300259590149,
        -0.9991710186004639
      ],
      "type": "VEC3"
    },
    {
      "bufferView": 1,
      "byteOffset": 727768,
      "componentType": 5126,
      "count": 172,
      "max": [
        2.2492001056671143,
        1.0
      ],
      "min": [
        0.0,
        0.0
      ],
      "type": "VEC2"
    },
    {
      "bufferView": 0,
      "byteOffset": 550200,
      "componentType": 5125,
      "count": 258,
      "type": "SCALAR"
    },
    {
      "bufferView": 2,
      "byteOffset": 2187432,
      "componentType": 5126,
      "count": 2634,
      "max": [
        957.9849853515625,
        -371.9266052246094,
        174.36410522460938
      ],
      "min": [
        580.5551147460938,
        -472.1252136230469,
        -106.1166000366211
      ],
      "type": "VEC3"
    },
    {
      "bufferView": 2,
      "byteOffset": 2219040,
      "componentType": 5126,
      "count": 2634,
      "max": [
        0.9997095465660095,
        0.9997095465660095,
        1.0
      ],
      "min": [
        -0.9998285174369812,
        -0.9999717473983765,
        -1.0
      ],
      "type": "VEC3"
    },
    {
      "bufferView": 1,
      "byteOffset": 729144,
      "componentType": 5126,
      "count": 2634,
      "max": [
        0.9976999759674072,
        0.9923999905586243
      ],
      "min": [
        0.01899999938905239,
        0.009800000116229057
      ],
      "type": "VEC2"
    },
    {
      "bufferView": 0,
      "byteOffset": 551232,
      "componentType": 5125,
      "count": 4632,
      "type": "SCALAR"
    },
    {
      "bufferView": 2,
      "byteOffset": 2250648,
      "componentType": 5126,
      "count": 9860,
      "max": [
        1149.94775390625,
        308.14599609375,
        2818.71826171875
      ],
      "min": [
        376.38360595703125,
        -495.2025146484375,
        -27.337799072265625
      ],
      "type": "VEC3"
    },
    {
      "bufferView": 2,
      "byteOffset": 2368968,
      "componentType": 5126,
      "count": 9860,
      "max": [
        1.0,
        0.9998571872711182,
        0.9998835325241089
      ],
      "min": [
        -1.0,
        -0.9998571872711182,
        -0.9998835325241089
      ],
      "type": "VEC3"
    },
    {
      "bufferView": 1,
      "byteOffset": 750216,
      "componentType": 5126,
      "count": 9860,
      "max": [
        0.9929999709129333,
        0.9987999796867371
      ],
      "min": [
        0.003700000001117587,
        0.009999999776482582
      ],
      "type": "VEC2"
    },
    {
      "bufferView": 0,
      "byteOffset": 569760,
      "componentType": 5125,
      "count": 14154,
      "type": "SCALAR"
    },
    {
      "bufferView": 2,
      "byteOffset": 2487288,
      "componentType": 5126,
      "count": 7054,
      "max": [
        2124.82568359375,
        -1887.4930419921875,
        245.5019989013672
      ],
      "min": [
        104.41059875488281,
        -3236.3193359375,
        -131.67579650878906
      ],
      "type": "VEC3"
    },
    {
      "bufferView": 2,
      "byteOffset": 2571936,
      "componentType": 5126,
      "count": 7054,
      "max": [
        0.9998272061347961,
        0.9992790222167969,
        1.0
      ],
      "min": [
        -0.9998272061347961,
        -0.9999048709869385,
        -0.9999985694885254
      ],
      "type": "VEC3"
    },
    {
      "bufferView": 1,
      "byteOffset": 829096,
      "componentType": 5126,
      "count": 7054,
      "max": [
        0.9961000084877014,
        0.9965000152587891
      ],
      "min": [
        0.00419999985024333,
        0.011800000444054604
      ],
      "type": "VEC2"
    },
    {
      "bufferView": 0,
      "byteOffset": 626376,
      "componentType": 5125,
      "count": 13509,
      "type": "SCALAR"
    },
    {
      "bufferView": 2,
      "byteOffset": 2656584,
      "componentType": 5126,
      "count": 114,
      "max": [
        1073.849853515625,
        217.88650512695313,
        1972.165771484375
      ],
      "min": [
        440.8890075683594,
        -406.61309814453125,
        -106.62840270996094
      ],
      "type": "VEC3"
    },
    {
      "bufferView": 2,
      "byteOffset": 2657952,
      "componentType": 5126,
      "count": 114,
      "max": [
        0.9978261590003967,
        0.9998571872711182,
        1.0
      ],
      "min": [
        -0.9978261590003967,
        -0.9998571872711182,
        -0.06559860706329346
      ],
      "type": "VEC3"
    },
    {
      "bufferView": 1,
      "byteOffset": 885528,
      "componentType": 5126,
      "count": 114,
      "max": [
        9.048199653625488,
        5.12470006942749
      ],
      "min": [
        2.531100034713745,
        2.704200029373169
      ],
      "type": "VEC2"
    },
    {
      "bufferView": 0,
      "byteOffset": 680412,
      "componentType": 5125,
      "count": 240,
      "type": "SCALAR"
    },
    {
      "bufferView": 2,
      "byteOffset": 2659320,
      "componentType": 5126,
      "count": 7158,
      "max": [
        1893.260009765625,
        367.04278564453125,
        2691.2265625
      ],
      "min": [
        -10.909199714660645,
        -1223.1217041015625,
        -118.6885986328125
      ],
      "type": "VEC3"
    },
    {
      "bufferView": 2,
      "byteOffset": 2745216,
      "componentType": 5126,
      "count": 7158,
      "max": [
        1.0,
        0.9999808073043823,
        1.0
      ],
      "min": [
        -1.0,
        -0.9999905824661255,
        -1.0
      ],
      "type": "VEC3"
    },
    {
      "bufferView": 3,
      "byteOffset": 355328,
      "componentType": 5126,
      "count": 7158,
      "max": [
        1.0,
        0.9999971389770508,
        1.0,
        1.0
      ],
      "min": [
        -1.0,
        -0.9999998807907104,
        -1.0,
        -1.0
      ],
      "type": "VEC4"
    },
    {
      "bufferView": 1,
      "byteOffset": 886440,
      "componentType": 5126,
      "count": 7158,
      "max": [
        73.49040222167969,
        61.95029830932617
      ],
      "min": [
        -0.005200000014156103,
        -0.003599999938160181
      ],
      "type": "VEC2"
    },
    {
      "bufferView": 0,
      "byteOffset": 681372,
      "componentType": 5125,
      "count": 10986,
      "type": "SCALAR"
    }
  ],
  "asset": {
    "extras": {
      "author": "jakekieferwaddington (https://sketchfab.com/jakekieferwaddington)",
      "license": "CC-BY-4.0 (http://creativecommons.org/licenses/by/4.0/)",
      "source": "https://sketchfab.com/3d-models/village-personal-assets-9b1959fdbc774d65b75e62069bd82b19",
      "title": "Village_Personal Assets"
    },
    "generator": "Sketchfab-12.65.0",
    "version": "2.0"
  },
  "bufferViews": [
    {
      "buffer": 0,
      "byteLength": 725316,
      "name": "floatBufferViews",
      "target": 34963
    },
    {
      "buffer": 0,
      "byteLength": 943704,
      "byteOffset": 725316,
      "byteStride": 8,
      "name": "floatBufferViews",
      "target": 34962
    },
    {
      "buffer": 0,
      "byteLength": 2831112,
      "byteOffset": 1669020,
      "byteStride": 12,
      "name": "floatBufferViews",
      "target": 34962
    },
    {
      "buffer": 0,
      "byteLength": 469856,
      "byteOffset": 4500132,
      "byteStride": 16,
      "name": "floatBufferViews",
      "target": 34962
    }
  ],
  "buffers": [
    {
      "byteLength": 4969988,
      "uri": "scene.bin"
    }
  ],
  "images": [
    {
      "uri": "village/I_stone_baseColor.png"
    },
    {
      "uri": "village/I_stone_normal.jpeg"
    },
    {
      "uri": "village/J_Tile_baseColor.png"
    },
    {
      "uri": "village/J_Tile_normal.jpeg"
    },
    {
      "uri": "village/J_Wall_baseColor.png"
    },
    {
      "uri": "village/J_stone_baseColor.png"
    },
    {
      "uri": "village/J_wood_baseColor.png"
    },
    {
      "uri": "village/Material__1102_baseColor.png"
    },
    {
      "uri": "village/Material__1193_normal.jpeg"
    },
    {
      "uri": "village/Material__14975_baseColor.png"
    },
    {
      "uri": "village/Material__14975_normal.jpeg"
    },
    {
      "uri": "village/Material__15738_baseColor.png"
    },
    {
      "uri": "village/Material__16250_baseColor.png"
    },
    {
      "uri": "village/Material__16692_baseColor.png"
    },
    {
      "uri": "village/Material__16692_normal.jpeg"
    },
    {
      "uri": "village/Material__16728_baseColor.png"
    },
    {
      "uri": "village/Material__16728_emissive.png"
    },
    {
      "uri": "village/Material__16728_normal.jpeg"
    },
    {
      "uri": "village/Material__19796_baseColor.png"
    },
    {
      "uri": "village/Material__26283_baseColor.png"
    },
    {
      "uri": "village/Material__26283_emissive.png"
    },
    {
      "uri": "village/Props_baseColor.png"
    },
    {
      "uri": "village/UnwrapChecker_baseColor.jpeg"
    },
    {
      "uri": "village/extras_baseColor.png"
    },
    {
      "uri": "village/extras_emissive.png"
    },
    {
      "uri": "village/tiles_baseColor.png"
    }
  ],
  "materials": [
    {
      "doubleSided": true,
      "name": "03___Default",
      "pbrMetallicRoughness": {
        "baseColorFactor": [
          0.5882,
          0.5882,
          0.5882,
          1.0
        ],
        "metallicFactor": 0.0,
        "roughnessFactor": 0.6
      }
    },
    {
      "doubleSided": true,
      "name": "13___Default",
      "pbrMetallicRoughness": {
        "baseColorFactor": [
          0.5882,
          0.5882,
          0.5882,
          1.0
        ],
        "metallicFactor": 0.0,
        "roughnessFactor": 0.6
      }
    },
    {
      "doubleSided": true,
      "emissiveTexture": {
        "index": 0
      },
      "name": "I_stone",
      "normalTexture": {
        "index": 1
      },
      "pbrMetallicRoughness": {
        "baseColorTexture": {
          "index": 0
        },
        "metallicFactor": 0.0,
        "roughnessFactor": 0.6
      }
    },
    {
      "doubleSided": true,
      "name": "J_Tile",
      "normalTexture": {
        "index": 3
      },
      "pbrMetallicRoughness": {
        "baseColorTexture": {
          "index": 2
        },
        "metallicFactor": 0.0,
        "roughnessFactor": 0.6
      }
    },
    {
      "doubleSided": true,
      "name": "J_Wall",
      "pbrMetallicRoughness": {
        "baseColorTexture": {
          "index": 4
        },
        "metallicFactor": 0.0,
        "roughnessFactor": 0.6
      }
    },
    {
      "doubleSided": true,
      "name": "J_stone",
      "pbrMetallicRoughness": {
        "baseColorTexture": {
          "index": 5
        },
        "metallicFactor": 0.0,
        "roughnessFactor": 0.6
      }
    },
    {
      "doubleSided": true,
      "name": "J_wood",
      "pbrMetallicRoughness": {
        "baseColorTexture": {
          "index": 6
        },
        "metallicFactor": 0.0,
        "roughnessFactor": 0.6
      }
    },
    {
      "doubleSided": true,
      "name": "Lewis_House_Addon_Textures_02_Mat",
      "pbrMetallicRoughness": {
        "metallicFactor": 0.0,
        "roughnessFactor": 0.6
      }
    },
    {
      "alphaMode": "BLEND",
      "doubleSided": true,
      "name": "Material__1102",
      "pbrMetallicRoughness": {
        "baseColorTexture": {
          "index": 7
        },
        "metallicFactor": 0.0,
        "roughnessFactor": 0.6
      }
    },
    {
      "doubleSided": true,
      "name": "Material__1193",
      "normalTexture": {
        "index": 8
      },
      "pbrMetallicRoughness": {
        "baseColorTexture": {
          "index": 6
        },
        "metallicFactor": 0.0,
        "roughnessFactor": 0.6
      }
    },
    {
      "doubleSided": true,
      "name": "Material__1215",
      "normalTexture": {
        "index": 8
      },
      "pbrMetallicRoughness": {
        "baseColorTexture": {
          "index": 6
        },
        "metallicFactor": 0.0,
        "roughnessFactor": 0.6
      }
    },
    {
      "doubleSided": true,
      "emissiveTexture": {
        "index": 2
      },
      "name": "Material__14670",
      "normalTexture": {
        "index": 3
      },
      "pbrMetallicRoughness": {
        "baseColorTexture": {
          "index": 2
        },
        "metallicFactor": 0.0,
        "roughnessFactor": 0.6
      }
    },
    {
      "doubleSided": true,
      "emissiveTexture": {
        "index": 9
      },
      "name": "Material__14975",
      "normalTexture": {
        "index": 10
      },
      "pbrMetallicRoughness": {
        "baseColorTexture": {
          "index": 9
        },
        "metallicFactor": 0.0,
        "roughnessFactor": 0.6
      }
    },
    {
      "doubleSided": true,
      "name": "Material__15738",
      "pbrMetallicRoughness": {
        "baseColorTexture": {
          "index": 11
        },
        "metallicFactor": 0.0,
        "roughnessFactor": 0.6
      }
    },
    {
      "doubleSided": true,
      "name": "Material__16250",
      "pbrMetallicRoughness": {
        "baseColorTexture": {
          "index": 12
        },
        "metallicFactor": 0.0,
        "roughnessFactor": 0.6
      }
    },
    {
      "doubleSided": true,
      "emissiveTexture": {
        "index": 13
      },
      "name": "Material__16692",
      "normalTexture": {
        "index": 14
      },
      "pbrMetallicRoughness": {
        "baseColorTexture": {
          "index": 13
        },
        "metallicFactor": 0.0,
        "roughnessFactor": 0.6
      }
    },
    {
      "doubleSided": true,
      "emissiveFactor": [
        1.0,
        1.0,
        1.0
      ],
      "emissiveTexture": {
        "index": 16
      },
      "name": "Material__16728",
      "normalTexture": {
        "index": 17
      },
      "pbrMetallicRoughness": {
        "baseColorTexture": {
          "index": 15
        },
        "metallicFactor": 0.0,
        "roughnessFactor": 0.6
      }
    },
    {
      "doubleSided": true,
      "name": "Material__1896",
      "pbrMetallicRoughness": {
        "baseColorFactor": [
          0.588,
          0.588,
          0.588,
          1.0
        ],
        "metallicFactor": 0.0,
        "roughnessFactor": 0.6
      }
    },
    {
      "doubleSided": true,
      "name": "Material__1897",
      "pbrMetallicRoughness": {
        "baseColorFactor": [
          0.588,
          0.588,
          0.588,
          1.0
        ],
        "metallicFactor": 0.0,
        "roughnessFactor": 0.6
      }
    },
    {
      "doubleSided": true,
      "name": "Material__19796",
      "pbrMetallicRoughness": {
        "baseColorTexture": {
          "index": 18
        },
        "metallicFactor": 0.0,
        "roughnessFactor": 0.6
      }
    },
    {
      "doubleSided": true,
      "emissiveFactor": [
        1.0,
        1.0,
        1.0
      ],
      "emissiveTexture": {
        "index": 20
      },
      "name": "Material__26283",
      "pbrMetallicRoughness": {
        "baseColorTexture": {
          "index": 19
        },
        "metallicFactor": 0.0,
        "roughnessFactor": 0.6
      }
    },
    {
      "doubleSided": true,
      "name": "Material__412",
      "pbrMetallicRoughness": {
        "baseColorFactor": [
          0.588,
          0.588,
          0.588,
          1.0
        ],
        "metallicFactor": 0.0,
        "roughnessFactor": 0.6
      }
    },
    {
      "doubleSided": true,
      "name": "Material__424",
      "pbrMetallicRoughness": {
        "baseColorFactor": [
          0.588,
          0.588,
          0.588,
          1.0
        ],
        "metallicFactor": 0.0,
        "roughnessFactor": 0.6
      }
    },
    {
      "doubleSided": true,
      "name": "Props",
      "pbrMetallicRoughness": {
        "baseColorTexture": {
          "index": 21
        },
        "metallicFactor": 0.0,
        "roughnessFactor": 0.6
      }
    },
    {
      "doubleSided": true,
      "name": "Tiles",
      "pbrMetallicRoughness": {
        "baseColorFactor": [
          0.588,
          0.588,
          0.588,
          1.0
        ],
        "metallicFactor": 0.0,
        "roughnessFactor": 0.6
      }
    },
    {
      "doubleSided": true,
      "emissiveTexture": {
        "index": 22
      },
      "name": "UnwrapChecker",
      "pbrMetallicRoughness": {
        "baseColorTexture": {
          "index": 22
        },
        "metallicFactor": 0.0,
        "roughnessFactor": 0.6
      }
    },
    {
      "doubleSided": true,
      "name": "details",
      "pbrMetallicRoughness": {
        "baseColorFactor": [
          0.5882,
          0.5882,
          0.5882,
          1.0
        ],
        "metallicFactor": 0.0,
        "roughnessFactor": 0.6
      }
    },
    {
      "doubleSided": true,
      "emissiveFactor": [
        1.0,
        1.0,
        1.0
      ],
      "emissiveTexture": {
        "index": 24
      },
      "name": "extras",
      "pbrMetallicRoughness": {
        "baseColorTexture": {
          "index": 23
        },
        "metallicFactor": 0.0,
        "roughnessFactor": 0.6
      }
    },
    {
      "doubleSided": true,
      "name": "stone",
      "pbrMetallicRoughness": {
        "baseColorTexture": {
          "index": 5
        },
        "metallicFactor": 0.0,
        "roughnessFactor": 0.6
      }
    },
    {
      "doubleSided": true,
      "name": "tiles",
      "pbrMetallicRoughness": {
        "baseColorTexture": {
          "index": 25
        },
        "metallicFactor": 0.0,
        "roughnessFactor": 0.6
      }
    },
    {
      "doubleSided": true,
      "name": "wall",
      "pbrMetallicRoughness": {
        "baseColorTexture": {
          "index": 4
        },
        "metallicFactor": 0.0,
        "roughnessFactor": 0.6
      }
    },
    {
      "doubleSided": true,
      "name": "wood",
      "normalTexture": {
        "index": 8
      },
      "pbrMetallicRoughness": {
        "baseColorTexture": {
          "index": 6
        },
        "metallicFactor": 0.0,
        "roughnessFactor": 0.6
      }
    }
  ],
  "meshes": [
    {
      "name": "Object_0",
      "primitives": [
        {
          "attributes": {
            "NORMAL": 1,
            "POSITION": 0,
            "TEXCOORD_0": 2
          },
          "indices": 3,
          "material": 0,
          "mode": 4
        }
      ]
    },
    {
      "name": "Object_1",
      "primitives": [
        {
          "attributes": {
            "NORMAL": 5,
            "POSITION": 4,
            "TEXCOORD_0": 6
          },
          "indices": 7,
          "material": 1,
          "mode": 4
        }
      ]
    },
    {
      "name": "Object_2",
      "primitives": [
        {
          "attributes": {
            "NORMAL": 9,
            "POSITION": 8,
            "TEXCOORD_0": 10
          },
          "indices": 11,
          "material": 7,
          "mode": 4
        }
      ]
    },
    {
      "name": "Object_3",
      "primitives": [
        {
          "attributes": {
            "NORMAL": 13,
            "POSITION": 12,
            "TANGENT": 14,
            "TEXCOORD_0": 15
          },
          "indices": 16,
          "material": 11,
          "mode": 4
        }
      ]
    },
    {
      "name": "Object_4",
      "primitives": [
        {
          "attributes": {
            "NORMAL": 18,
            "POSITION": 17,
            "TANGENT": 19,
            "TEXCOORD_0": 20
          },
          "indices": 21,
          "material": 12,
          "mode": 4
        }
      ]
    },
    {
      "name": "Object_5",
      "primitives": [
        {
          "attributes": {
            "NORMAL": 23,
            "POSITION": 22,
            "TEXCOORD_0": 24
          },
          "indices": 25,
          "material": 13,
          "mode": 4
        }
      ]
    },
    {
      "name": "Object_6",
      "primitives": [
        {
          "attributes": {
            "NORMAL": 27,
            "POSITION": 26,
            "TANGENT": 28,
            "TEXCOORD_0": 29
          },
          "indices": 30,
          "material": 16,
          "mode": 4
        }
      ]
    },
    {
      "name": "Object_7",
      "primitives": [
        {
          "attributes": {
            "NORMAL": 32,
            "POSITION": 31,
            "TEXCOORD_0": 33
          },
          "indices": 34,
          "material": 17,
          "mode": 4
        }
      ]
    },
    {
      "name": "Object_8",
      "primitives": [
        {
          "attributes": {
            "NORMAL": 36,
            "POSITION": 35,
            "TEXCOORD_0": 37
          },
          "indices": 38,
          "material": 21,
          "mode": 4
        }
      ]
    },
    {
      "name": "Object_9",
      "primitives": [
        {
          "attributes": {
            "NORMAL": 40,
            "POSITION": 39,
            "TEXCOORD_0": 41
          },
          "indices": 42,
          "material": 22,
          "mode": 4
        }
      ]
    },
    {
      "name": "Object_10",
      "primitives": [
        {
          "attributes": {
            "NORMAL": 44,
            "POSITION": 43,
            "TEXCOORD_0": 45
          },
          "indices": 46,
          "material": 24,
          "mode": 4
        }
      ]
    },
    {
      "name": "Object_11",
      "primitives": [
        {
          "attributes": {
            "NORMAL": 48,
            "POSITION": 47,
            "TEXCOORD_0": 49
          },
          "indices": 50,
          "material": 25,
          "mode": 4
        }
      ]
    },
    {
      "name": "Object_12",
      "primitives": [
        {
          "attributes": {
            "NORMAL": 52,
            "POSITION": 51,
            "TEXCOORD_0": 53
          },
          "indices": 54,
          "material": 26,
          "mode": 4
        }
      ]
    },
    {
      "name": "Object_13",
      "primitives": [
        {
          "attributes": {
            "NORMAL": 56,
            "POSITION": 55,
            "TEXCOORD_0": 57
          },
          "indices": 58,
          "material": 27,
          "mode": 4
        }
      ]
    },
    {
      "name": "Object_14",
      "primitives": [
        {
          "attributes": {
            "NORMAL": 60,
            "POSITION": 59,
            "TEXCOORD_0": 61
          },
          "indices": 62,
          "material": 29,
          "mode": 4
        }
      ]
    },
    {
      "name": "Object_15",
      "primitives": [
        {
          "attributes": {
            "NORMAL": 64,
            "POSITION": 63,
            "TEXCOORD_0": 65
          },
          "indices": 66,
          "material": 30,
          "mode": 4
        }
      ]
    },
    {
      "name": "Object_16",
      "primitives": [
        {
          "attributes": {
            "NORMAL": 68,
            "POSITION": 67,
            "TANGENT": 69,
            "TEXCOORD_0": 70
          },
          "indices": 71,
          "material": 2,
          "mode": 4
        }
      ]
    },
    {
      "name": "Object_17",
      "primitives": [
        {
          "attributes": {
            "NORMAL": 73,
            "POSITION": 72,
            "TANGENT": 74,
            "TEXCOORD_0": 75
          },
          "indices": 76,
          "material": 3,
          "mode": 4
        }
      ]
    },
    {
      "name": "Object_18",
      "primitives": [
        {
          "attributes": {
            "NORMAL": 78,
            "POSITION": 77,
            "TEXCOORD_0": 79
          },
          "indices": 80,
          "material": 4,
          "mode": 4
        }
      ]
    },
    {
      "name": "Object_19",
      "primitives": [
        {
          "attributes": {
            "NORMAL": 82,
            "POSITION": 81,
            "TEXCOORD_0": 83
          },
          "indices": 84,
          "material": 5,
          "mode": 4
        }
      ]
    },
    {
      "name": "Object_20",
      "primitives": [
        {
          "attributes": {
            "NORMAL": 86,
            "POSITION": 85,
            "TEXCOORD_0": 87
          },
          "indices": 88,
          "material": 6,
          "mode": 4
        }
      ]
    },
    {
      "name": "Object_21",
      "primitives": [
        {
          "attributes": {
            "NORMAL": 90,
            "POSITION": 89,
            "TEXCOORD_0": 91
          },
          "indices": 92,
          "material": 6,
          "mode": 4
        }
      ]
    },
    {
      "name": "Object_22",
      "primitives": [
        {
          "attributes": {
            "NORMAL": 94,
            "POSITION": 93,
            "TEXCOORD_0": 95
          },
          "indices": 96,
          "material": 6,
          "mode": 4
        }
      ]
    },
    {
      "name": "Object_23",
      "primitives": [
        {
          "attributes": {
            "NORMAL": 98,
            "POSITION": 97,
            "TEXCOORD_0": 99
          },
          "indices": 100,
          "material": 8,
          "mode": 4
        }
      ]
    },
    {
      "name": "Object_24",
      "primitives": [
        {
          "attributes": {
            "NORMAL": 102,
            "POSITION": 101,
            "TEXCOORD_0": 103
          },
          "indices": 104,
          "material": 8,
          "mode": 4
        }
      ]
    },
    {
      "name": "Object_25",
      "primitives": [
        {
          "attributes": {
            "NORMAL": 106,
            "POSITION": 105,
            "TANGENT": 107,
            "TEXCOORD_0": 108
          },
          "indices": 109,
          "material": 9,
          "mode": 4
        }
      ]
    },
    {
      "name": "Object_26",
      "primitives": [
        {
          "attributes": {
            "NORMAL": 111,
            "POSITION": 110,
            "TANGENT": 112,
            "TEXCOORD_0": 113
          },
          "indices": 114,
          "material": 10,
          "mode": 4
        }
      ]
    },
    {
      "name": "Object_27",
      "primitives": [
        {
          "attributes": {
            "NORMAL": 116,
            "POSITION": 115,
            "TEXCOORD_0": 117
          },
          "indices": 118,
          "material": 14,
          "mode": 4
        }
      ]
    },
    {
      "name": "Object_28",
      "primitives": [
        {
          "attributes": {
            "NORMAL": 120,
            "POSITION": 119,
            "TANGENT": 121,
            "TEXCOORD_0": 122
          },
          "indices": 123,
          "material": 15,
          "mode": 4
        }
      ]
    },
    {
      "name": "Object_29",
      "primitives": [
        {
          "attributes": {
            "NORMAL": 125,
            "POSITION": 124,
            "TEXCOORD_0": 126
          },
          "indices": 127,
          "material": 18,
          "mode": 4
        }
      ]
    },
    {
      "name": "Object_30",
      "primitives": [
        {
          "attributes": {
            "NORMAL": 129,
            "POSITION": 128,
            "TEXCOORD_0": 130
          },
          "indices": 131,
          "material": 19,
          "mode": 4
        }
      ]
    },
    {
      "name": "Object_31",
      "primitives": [
        {
          "attributes": {
            "NORMAL": 133,
            "POSITION": 132,
            "TEXCOORD_0": 134
          },
          "indices": 135,
          "material": 20,
          "mode": 4
        }
      ]
    },
    {
      "name": "Object_32",
      "primitives": [
        {
          "attributes": {
            "NORMAL": 137,
            "POSITION": 136,
            "TEXCOORD_0": 138
          },
          "indices": 139,
          "material": 23,
          "mode": 4
        }
      ]
    },
    {
      "name": "Object_33",
      "primitives": [
        {
          "attributes": {
            "NORMAL": 141,
            "POSITION": 140,
            "TEXCOORD_0": 142
          },
          "indices": 143,
          "material": 28,
          "mode": 4
        }
      ]
    },
    {
      "name": "Object_34",
      "primitives": [
        {
          "attributes": {
            "NORMAL": 145,
            "POSITION": 144,
            "TANGENT": 146,
            "TEXCOORD_0": 147
          },
          "indices": 148,
          "material": 31,
          "mode": 4
        }
      ]
    }
  ],
  "nodes": [
    {
      "children": [
        1
      ],
      "matrix": [
        1.0,
        0.0,
        0.0,
        0.0,
        0.0,
        2.220446049250313e-16,
        -1.0,
        0.0,
        0.0,
        1.0,
        2.220446049250313e-16,
        0.0,
        0.0,
        0.0,
        0.0,
        1.0
      ],
      "name": "Sketchfab_model"
    },
    {
      "children": [
        2,
        3,
        4,
        5,
        6,
        7,
        8,
        9,
        10,
        11,
        12,
        13,
        14,
        15,
        16,
        17,
        18,
        19,
        20,
        21,
        22,
        23,
        24,
        25,
        26,
        27,
        28,
        29,
        30,
        31,
        32,
        33,
        34,
        35,
        36
      ],
      "name": "Village_Personal Assets.obj.cleaner.gles"
    },
    {
      "mesh": 0,
      "name": "Object_2"
    },
    {
      "mesh": 1,
      "name": "Object_3"
    },
    {
      "mesh": 2,
      "name": "Object_4"
    },
    {
      "mesh": 3,
      "name": "Object_5"
    },
    {
      "mesh": 4,
      "name": "Object_6"
    },
    {
      "mesh": 5,
      "name": "Object_7"
    },
    {
      "mesh": 6,
      "name": "Object_8"
    },
    {
      "mesh": 7,
      "name": "Object_9"
    },
    {
      "mesh": 8,
      "name": "Object_10"
    },
    {
      "mesh": 9,
      "name": "Object_11"
    },
    {
      "mesh": 10,
      "name": "Object_12"
    },
    {
      "mesh": 11,
      "name": "Object_13"
    },
    {
      "mesh": 12,
      "name": "Object_14"
    },
    {
      "mesh": 13,
      "name": "Object_15"
    },
    {
      "mesh": 14,
      "name": "Object_16"
    },
    {
      "mesh": 15,
      "name": "Object_17"
    },
    {
      "mesh": 16,
      "name": "Object_18"
    },
    {
      "mesh": 17,
      "name": "Object_19"
    },
    {
      "mesh": 18,
      "name": "Object_20"
    },
    {
      "mesh": 19,
      "name": "Object_21"
    },
    {
      "mesh": 20,
      "name": "Object_22"
    },
    {
      "mesh": 21,
      "name": "Object_23"
    },
    {
      "mesh": 22,
      "name": "Object_24"
    },
    {
      "mesh": 23,
      "name": "Object_25"
    },
    {
      "mesh": 24,
      "name": "Object_26"
    },
    {
      "mesh": 25,
      "name": "Object_27"
    },
    {
      "mesh": 26,
      "name": "Object_28"
    },
    {
      "mesh": 27,
      "name": "Object_29"
    },
    {
      "mesh": 28,
      "name": "Object_30"
    },
    {
      "mesh": 29,
      "name": "Object_31"
    },
    {
      "mesh": 30,
      "name": "Object_32"
    },
    {
      "mesh": 31,
      "name": "Object_33"
    },
    {
      "mesh": 32,
      "name": "Object_34"
    },
    {
      "mesh": 33,
      "name": "Object_35"
    },
    {
      "mesh": 34,
      "name": "Object_36"
    }
  ],
  "samplers": [
    {
      "magFilter": 9729,
      "minFilter": 9987,
      "wrapS": 10497,
      "wrapT": 10497
    }
  ],
  "scene": 0,
  "scenes": [
    {
      "name": "Sketchfab_Scene",
      "nodes": [
        0
      ]
    }
  ],
  "textures": [
    {
      "sampler": 0,
      "source": 0
    },
    {
      "sampler": 0,
      "source": 1
    },
    {
      "sampler": 0,
      "source": 2
    },
    {
      "sampler": 0,
      "source": 3
    },
    {
      "sampler": 0,
      "source": 4
    },
    {
      "sampler": 0,
      "source": 5
    },
    {
      "sampler": 0,
      "source": 6
    },
    {
      "sampler": 0,
      "source": 7
    },
    {
      "sampler": 0,
      "source": 8
    },
    {
      "sampler": 0,
      "source": 9
    },
    {
      "sampler": 0,
      "source": 10
    },
    {
      "sampler": 0,
      "source": 11
    },
    {
      "sampler": 0,
      "source": 12
    },
    {
      "sampler": 0,
      "source": 13
    },
    {
      "sampler": 0,
      "source": 14
    },
    {
      "sampler": 0,
      "source": 15
    },
    {
      "sampler": 0,
      "source": 16
    },
    {
      "sampler": 0,
      "source": 17
    },
    {
      "sampler": 0,
      "source": 18
    },
    {
      "sampler": 0,
      "source": 19
    },
    {
      "sampler": 0,
      "source": 20
    },
    {
      "sampler": 0,
      "source": 21
    },
    {
      "sampler": 0,
      "source": 22
    },
    {
      "sampler": 0,
      "source": 23
    },
    {
      "sampler": 0,
      "source": 24
    },
    {
      "sampler": 0,
      "source": 25
    }
  ]
}
