<?xml version="1.0" encoding="UTF-8" standalone="no"?>
<!-- Created with Inkscape (http://www.inkscape.org/) -->

<svg
   width="16"
   height="16"
   viewBox="0 0 16 16"
   version="1.1"
   id="svg1"
   xml:space="preserve"
   inkscape:export-filename="Rays2048.png"
   inkscape:export-xdpi="12288"
   inkscape:export-ydpi="12288"
   inkscape:version="1.4.2 (f4327f4, 2025-05-13)"
   sodipodi:docname="icon.svg"
   xmlns:inkscape="http://www.inkscape.org/namespaces/inkscape"
   xmlns:sodipodi="http://sodipodi.sourceforge.net/DTD/sodipodi-0.dtd"
   xmlns:xlink="http://www.w3.org/1999/xlink"
   xmlns="http://www.w3.org/2000/svg"
   xmlns:svg="http://www.w3.org/2000/svg"><sodipodi:namedview
     id="namedview1"
     pagecolor="#ffffff"
     bordercolor="#000000"
     borderopacity="0.25"
     inkscape:showpageshadow="2"
     inkscape:pageopacity="0.0"
     inkscape:pagecheckerboard="0"
     inkscape:deskcolor="#d1d1d1"
     inkscape:document-units="px"
     inkscape:zoom="28.963094"
     inkscape:cx="6.974393"
     inkscape:cy="17.625879"
     inkscape:window-width="3840"
     inkscape:window-height="2054"
     inkscape:window-x="-11"
     inkscape:window-y="-11"
     inkscape:window-maximized="1"
     inkscape:current-layer="layer1"
     showguides="false"><sodipodi:guide
       position="87.113164,441.01419"
       orientation="0,-1"
       id="guide3"
       inkscape:locked="false" /><sodipodi:guide
       position="87.40549,440.42954"
       orientation="1,0"
       id="guide4"
       inkscape:locked="false" /></sodipodi:namedview><defs
     id="defs1" /><g
     inkscape:label="Layer 1"
     inkscape:groupmode="layer"
     id="layer1"><path
       style="display:none;fill:#000000;fill-opacity:1;stroke:#000000;stroke-width:1;stroke-dasharray:none;stroke-opacity:1"
       d="m 159.70211,517.00111 -1.65041,-1.30346 1.52654,-1.95219 c 0.8396,-1.0737 7.47968,-9.56795 14.75572,-18.8761 l 13.22916,-16.92392 1.56935,1.23101 c 0.86314,0.67706 1.54348,1.34776 1.51187,1.49046 -0.0448,0.20222 -18.3244,23.70544 -27.69589,35.61031 l -1.59593,2.02735 z m 41.01041,0 -1.65041,-1.30346 1.52655,-1.95219 c 0.8396,-1.0737 7.47967,-9.56795 14.75571,-18.8761 l 13.22917,-16.92392 1.56934,1.23101 c 0.86314,0.67706 1.54349,1.34776 1.51188,1.49046 -0.0448,0.20222 -18.32441,23.70544 -27.6959,35.61031 l -1.59593,2.02735 z m -119.591657,-0.26458 -1.650411,-1.30347 1.526546,-1.95218 c 0.839601,-1.07371 7.479672,-9.56795 14.755713,-18.87611 l 13.229169,-16.92391 1.56934,1.23101 c 0.86314,0.67705 1.54348,1.34776 1.51188,1.49046 -0.0448,0.20222 -18.324409,23.70544 -27.695899,35.61031 l -1.595927,2.02735 z m 41.010417,0 -1.65041,-1.30347 1.52654,-1.95218 c 0.8396,-1.07371 7.47967,-9.56795 14.75572,-18.87611 l 13.22916,-16.92391 1.56935,1.23101 c 0.86314,0.67705 1.54348,1.34776 1.51187,1.49046 -0.0448,0.20222 -18.3244,23.70544 -27.69589,35.61031 l -1.59593,2.02735 z m 115.62291,0 -1.65041,-1.30347 1.52654,-1.95218 c 0.8396,-1.07371 7.47967,-9.56795 14.75572,-18.87611 l 13.22916,-16.92391 1.56935,1.23101 c 0.86314,0.67705 1.54348,1.34776 1.51187,1.49046 -0.0448,0.20222 -18.3244,23.70544 -27.69589,35.61031 l -1.59593,2.02735 z m 41.01041,0 -1.65041,-1.30347 1.52655,-1.95218 c 0.8396,-1.07371 7.47967,-9.56795 14.75571,-18.87611 l 13.22917,-16.92391 1.56934,1.23101 c 0.86314,0.67705 1.54348,1.34776 1.51188,1.49046 -0.0448,0.20222 -18.32441,23.70544 -27.6959,35.61031 l -1.59593,2.02735 z m 37.57083,0 -1.65041,-1.30347 1.52655,-1.95218 c 0.8396,-1.07371 7.47967,-9.56795 14.75571,-18.87611 l 13.22917,-16.92391 1.56934,1.23101 c 0.86314,0.67705 1.54349,1.34776 1.51188,1.49046 -0.0448,0.20222 -18.32441,23.70544 -27.6959,35.61031 l -1.59593,2.02735 z m 41.01042,0 -1.65041,-1.30347 1.52654,-1.95218 c 0.8396,-1.07371 7.47968,-9.56795 14.75572,-18.87611 l 13.22916,-16.92391 1.56935,1.23101 c 0.86314,0.67705 1.54348,1.34776 1.51187,1.49046 -0.0448,0.20222 -18.3244,23.70544 -27.69589,35.61031 l -1.59593,2.02735 z m 37.04166,0 -1.65041,-1.30347 1.52655,-1.95218 c 0.8396,-1.07371 7.47967,-9.56795 14.75571,-18.87611 l 13.22917,-16.92391 1.56934,1.23101 c 0.86314,0.67705 1.54348,1.34776 1.51188,1.49046 -0.0448,0.20222 -18.32441,23.70544 -27.6959,35.61031 l -1.59593,2.02735 z m 41.01042,0 -1.65041,-1.30347 1.52654,-1.95218 c 0.8396,-1.07371 7.47967,-9.56795 14.75572,-18.87611 l 13.22916,-16.92391 1.56935,1.23101 c 0.86314,0.67705 1.54348,1.34776 1.51187,1.49046 -0.0448,0.20222 -18.3244,23.70544 -27.69589,35.61031 l -1.59593,2.02735 z M 71.543337,474.04719 v -1.98437 h 82.049133 c 65.53233,0 82.02294,-0.0666 81.919,-0.33073 -0.0716,-0.1819 -25.01458,-45.69056 -55.4289,-101.13035 l -55.29875,-100.79963 5.06361,-2.62345 c 2.78499,-1.44289 7.13822,-3.73689 9.67386,-5.09776 2.53563,-1.36088 4.65098,-2.43358 4.70077,-2.38379 0.0498,0.0498 21.81704,40.32174 48.37167,89.49322 26.55464,49.17148 48.39467,89.4027 48.53341,89.4027 0.35645,0 21.22108,-28.16344 21.05896,-28.42575 -0.11515,-0.18631 -3.70343,-2.86612 -11.87502,-8.86853 -1.14122,-0.83828 -1.97466,-1.61763 -1.85208,-1.73189 0.12258,-0.11426 1.88974,-0.68574 3.92704,-1.26995 2.03729,-0.58422 5.60916,-1.62032 7.9375,-2.30245 2.32833,-0.68213 5.60255,-1.64014 7.27604,-2.12891 7.16386,-2.09234 10.48456,-3.06441 15.34583,-4.49217 6.68164,-1.96242 7.96637,-2.30113 8.12527,-2.14223 0.10376,0.10375 0.82261,35.98889 0.86126,42.99363 0.009,1.62776 -0.009,1.67339 -0.51567,1.32292 -0.28873,-0.19966 -3.57495,-2.60894 -7.3027,-5.35397 -5.6495,-4.16016 -6.83448,-4.93092 -7.11861,-4.63021 -0.66012,0.69863 -34.79538,49.98696 -34.79538,50.24148 0,0.16662 21.6651,0.25782 61.25104,0.25782 33.68807,0 61.25104,-0.0623 61.25104,-0.13843 0,-0.0761 -22.20145,-40.61027 -49.33656,-90.07585 -27.13511,-49.46559 -50.10581,-91.40259 -51.04601,-93.19334 -0.94019,-1.79075 -11.70585,-21.46943 -23.92368,-43.7304 l -22.21424,-40.47448 5.06389,-2.62359 c 2.78514,-1.44298 7.1385,-3.73704 9.67414,-5.09791 2.53563,-1.36088 4.65161,-2.43295 4.70217,-2.38239 0.0506,0.0506 10.24879,18.89126 22.66274,41.86823 20.8542,38.59905 25.07667,46.32126 28.48528,52.09504 0.68727,1.16417 2.11177,3.72401 3.16555,5.68854 19.33048,36.03738 78.19419,144.7249 78.3512,144.66976 0.39747,-0.13959 21.15091,-28.28343 21.01662,-28.50072 -0.11515,-0.18631 -3.70343,-2.86612 -11.87502,-8.86853 -1.14122,-0.83828 -1.97466,-1.61763 -1.85208,-1.73189 0.12258,-0.11426 1.88974,-0.68574 3.92704,-1.26995 2.03729,-0.58422 5.60916,-1.62032 7.9375,-2.30245 2.32833,-0.68213 5.60255,-1.64014 7.27604,-2.12891 7.16386,-2.09234 10.48456,-3.06441 15.34583,-4.49217 6.68164,-1.96242 7.96637,-2.30113 8.12527,-2.14223 0.10376,0.10375 0.82261,35.98889 0.86126,42.99363 0.009,1.62776 -0.009,1.67339 -0.51567,1.32292 -0.28873,-0.19966 -3.57495,-2.60894 -7.3027,-5.35397 -5.6495,-4.16016 -6.83448,-4.93092 -7.11861,-4.63021 -0.66012,0.69863 -34.79538,49.98696 -34.79538,50.24148 0,0.16657 20.17991,0.25782 57.0177,0.25782 h 57.01771 v 1.98437 1.98438 H 278.44749 71.543337 Z M 256.46607,443.6547 c 9.48309,-13.65993 17.20703,-24.92989 17.16431,-25.04436 -0.0675,-0.18092 -6.69223,-5.13823 -7.53249,-5.63661 -0.20043,-0.11888 -4.74972,5.79199 -12.79167,16.62017 -6.86434,9.24256 -12.56858,16.85902 -12.67608,16.92547 -0.10751,0.0664 -22.21188,-40.65171 -49.12082,-90.48477 -26.90895,-49.83307 -49.02431,-90.60688 -49.14525,-90.60847 -0.40933,-0.005 -11.81575,6.1377 -11.71489,6.30921 0.055,0.0936 23.9998,43.74707 53.21058,97.00769 29.21078,53.26062 53.52831,97.59034 54.03896,98.51048 0.51064,0.92013 1.01775,1.57498 1.12691,1.4552 0.10915,-0.11977 7.95735,-11.39407 17.44044,-25.05401 z m 129.11666,0 c 9.48309,-13.65993 17.20703,-24.92989 17.16431,-25.04436 -0.0675,-0.18092 -6.69223,-5.13823 -7.53249,-5.63661 -0.20043,-0.11888 -4.74972,5.79199 -12.79167,16.62017 -6.86434,9.24256 -12.56858,16.85902 -12.67608,16.92546 -0.1075,0.0664 -17.9233,-32.70558 -39.59066,-72.82672 -21.66737,-40.12114 -40.87331,-75.50737 -42.67988,-78.63606 -1.80657,-3.1287 -3.69849,-6.40292 -4.20426,-7.27604 -0.50578,-0.87313 -1.50829,-2.7186 -2.22781,-4.10105 -4.40417,-8.46192 -45.10201,-83.60325 -45.28221,-83.60554 -0.40928,-0.005 -11.81575,6.13779 -11.71531,6.30931 0.70311,1.20071 44.97207,82.02711 45.4511,82.98478 0.51288,1.0253 93.50566,170.65701 97.51753,177.88547 0.51069,0.92013 1.01783,1.57498 1.12699,1.4552 0.10915,-0.11977 7.95735,-11.39407 17.44044,-25.05401 z m -97.98046,-23.67255 c -0.0728,-1.69672 -0.21256,-8.5023 -0.31049,-15.1235 -0.0979,-6.62119 -0.21843,-12.08363 -0.26779,-12.13874 -0.0936,-0.10446 -1.33497,0.23977 -9.89941,2.745 -2.83766,0.83006 -6.76672,1.9793 -8.73125,2.55387 -1.96453,0.57456 -5.06016,1.46989 -6.87917,1.98962 -1.81901,0.51973 -3.47191,1.03354 -3.6731,1.14182 -0.25561,0.13755 0.50161,0.83655 2.51354,2.32028 21.9558,16.19167 26.98239,19.84241 27.165,19.72955 0.11831,-0.0731 0.15551,-1.52117 0.0827,-3.2179 z m 129.11666,0 c -0.0728,-1.69672 -0.21256,-8.5023 -0.31049,-15.1235 -0.0979,-6.62119 -0.21843,-12.08363 -0.26779,-12.13874 -0.0936,-0.10446 -1.33497,0.23977 -9.89941,2.745 -2.83766,0.83006 -6.76672,1.9793 -8.73125,2.55387 -1.96453,0.57456 -5.06016,1.46989 -6.87917,1.98962 -1.81901,0.51973 -3.47191,1.03354 -3.6731,1.14182 -0.25561,0.13755 0.50161,0.83655 2.51354,2.32028 21.9558,16.19167 26.98239,19.84241 27.165,19.72955 0.11831,-0.0731 0.15551,-1.52117 0.0827,-3.2179 z M 133.45583,246.63783 v -5.29167 h 1.98438 1.98437 v 5.29167 5.29167 h -1.98437 -1.98438 z m 0,-15.875 v -6.35 h 1.98438 1.98437 v 6.35 6.35 h -1.98437 -1.98438 z m -67.202977,-7.01026 -1.443779,-1.46194 3.69465,-3.70173 3.69465,-3.70174 1.456401,1.4564 1.456401,1.4564 -3.707273,3.70728 -3.707272,3.70727 z m 132.218297,-3.51284 -3.63763,-3.64461 1.46197,-1.44381 1.46197,-1.44381 3.63204,3.63203 3.63204,3.63204 -1.45638,1.45638 -1.45638,1.45638 z m -65.01532,-6.41023 v -6.35 h 1.98438 1.98437 v 6.35 6.35 h -1.98437 -1.98438 z m -56.825617,-0.60092 -1.377339,-1.39466 4.491689,-4.48586 4.491688,-4.48586 1.326459,1.30652 c 0.729553,0.71858 1.32646,1.4314 1.32646,1.58405 0,0.2733 -8.473823,8.87048 -8.743208,8.87048 -0.07613,0 -0.758212,-0.6276 -1.515749,-1.39467 z m 110.671887,-4.15802 -4.48856,-4.49439 1.30651,-1.32646 c 0.71858,-0.72956 1.43141,-1.32646 1.58405,-1.32646 0.15265,0 2.23939,1.96456 4.63721,4.36569 l 4.35968,4.36569 -1.45517,1.45516 -1.45516,1.45517 z m -58.21189,-4.52792 c -9.28233,-0.96756 -19.12194,-5.09128 -26.46449,-11.09109 -13.136469,-10.7342 -20.078648,-27.44711 -18.367392,-44.21849 1.775999,-17.4059 12.412238,-32.62899 28.163132,-40.30842 14.05245,-6.85135 30.13296,-6.85135 44.18541,0 14.08407,6.86676 24.03988,19.62958 27.34499,35.05486 3.52868,16.46867 -1.69756,33.96138 -13.74632,46.01013 -10.7808,10.7808 -25.91458,16.13749 -41.11533,14.55301 z m 11.28087,-4.32729 c 7.63747,-1.01675 14.8586,-3.84934 21.12871,-8.28802 3.22035,-2.27973 8.36373,-7.42311 10.64345,-10.64346 5.60873,-7.92291 8.66268,-17.43645 8.66268,-26.98562 0,-9.54917 -3.05395,-19.0627 -8.66268,-26.98562 -2.27972,-3.22035 -7.4231,-8.36373 -10.64345,-10.64346 -7.92292,-5.60872 -17.43646,-8.66267 -26.98562,-8.66267 -9.54917,0 -19.06271,3.05395 -26.98562,8.66267 -3.22035,2.27973 -8.363734,7.42311 -10.643459,10.64346 -5.608726,7.92292 -8.662674,17.43645 -8.662674,26.98562 0,9.54917 3.053948,19.06271 8.662674,26.98562 2.279725,3.22035 7.423109,8.36373 10.643459,10.64346 4.66493,3.30236 10.83178,6.12805 16.1377,7.3944 5.24587,1.25201 11.49976,1.58656 16.70483,0.89362 z m -51.834617,1.10698 -1.377339,-1.39466 4.49215,-4.48632 4.49215,-4.48632 1.461407,1.44326 1.461408,1.44325 -4.43197,4.43773 c -2.437584,2.44075 -4.496882,4.43773 -4.576219,4.43773 -0.07934,0 -0.764051,-0.6276 -1.521587,-1.39467 z m 86.855827,-4.16158 -4.49212,-4.49796 1.45521,-1.45521 1.4552,-1.45521 4.49213,4.49796 4.49212,4.49796 -1.45521,1.45521 -1.45521,1.45521 z M 36.618339,154.69513 v -1.98438 h 5.291666 5.291667 v 1.98438 1.98437 h -5.291667 -5.291666 z m 14.816666,0 v -1.98438 h 6.349999 6.35 v 1.98438 1.98437 h -6.35 -6.349999 z m 16.933332,0 v -1.98438 h 6.35 6.35 v 1.98438 1.98437 h -6.35 -6.35 z m 118.533323,0 v -1.98438 h 6.35 6.35 v 1.98438 1.98437 h -6.35 -6.35 z m 16.93334,0 v -1.98438 h 6.35 6.35 v 1.98438 1.98437 h -6.35 -6.35 z m 16.93333,0 v -1.98438 h 5.15937 5.15938 v 1.98438 1.98437 h -5.15938 -5.15937 z m -48.35896,-37.24571 -1.37733,-1.39466 4.49215,-4.48632 4.49215,-4.48632 1.4614,1.44325 1.46141,1.44326 -4.43197,4.43773 c -2.43758,2.44075 -4.49688,4.43773 -4.57622,4.43773 -0.0793,0 -0.76405,-0.6276 -1.52159,-1.39467 z m -80.889992,-4.16158 -4.492122,-4.49796 1.455208,-1.45521 1.455209,-1.45521 4.492121,4.49796 4.492122,4.49796 -1.455208,1.45521 -1.455209,1.45521 z m 92.924942,-7.61586 c -0.68575,-0.69622 -1.24682,-1.38219 -1.24682,-1.52436 0,-0.14218 1.96316,-2.21897 4.36259,-4.615084 l 4.36258,-4.356578 1.46137,1.44321 1.46136,1.44321 -4.43197,4.437732 c -2.43758,2.44075 -4.49729,4.43773 -4.57713,4.43773 -0.0798,0 -0.70622,-0.56964 -1.39198,-1.26586 z m -104.963549,-4.42275 -4.359676,-4.365691 1.455164,-1.455164 1.455164,-1.455164 4.488562,4.494395 4.488563,4.494394 -1.306514,1.32646 c -0.718582,0.72955 -1.431405,1.32646 -1.58405,1.32646 -0.152646,0 -2.239391,-1.96456 -4.637213,-4.36569 z m 53.975059,-5.95306 v -6.349999 h 1.98438 1.98437 v 6.349999 6.35 h -1.98437 -1.98438 z m 62.96973,-1.720912 -1.44381,-1.461972 3.63203,-3.632039 3.63204,-3.632039 1.45638,1.456379 1.45638,1.45638 -3.6446,3.637632 -3.64461,3.637631 z m -128.129735,-3.51086 -3.637297,-3.644272 1.460796,-1.442651 1.460797,-1.44265 3.699024,3.691945 3.699025,3.691946 -1.377649,1.394977 c -0.757707,0.767238 -1.442843,1.394978 -1.522524,1.394978 -0.07968,0 -1.781658,-1.639923 -3.782172,-3.644273 z m 65.160005,-11.70156 v -6.35 h 1.98438 1.98437 v 6.35 6.35 h -1.98437 -1.98438 z m 0,-15.742707 v -5.159375 h 1.98438 1.98437 v 5.159375 5.159374 h -1.98437 -1.98438 z"
       id="path1" /><circle
       style="fill:none;fill-opacity:1;stroke:#000000;stroke-width:1;stroke-linejoin:miter;stroke-dasharray:none;stroke-opacity:1"
       id="path4"
       cx="4.1919909"
       cy="4.0408039"
       r="1.035912" /><g
       id="g62"
       transform="matrix(0.02121966,0,0,0.02121966,0.91677339,0.03361943)"
       style="stroke:#000000;stroke-opacity:1;stroke-width:47.12610852;stroke-dasharray:none"><path
         style="fill:none;fill-opacity:1;stroke:#000000;stroke-width:47.12610852;stroke-linejoin:miter;stroke-dasharray:none;stroke-dashoffset:344;stroke-opacity:1"
         d="m 154.05583,268.06298 v 97.92923"
         id="path5"
         inkscape:tile-cx="87.113164"
         inkscape:tile-cy="229.03746"
         inkscape:tile-w="16"
         inkscape:tile-h="97.929232"
         inkscape:tile-x0="79.113164"
         inkscape:tile-y0="180.07284" /><path
         style="fill:none;fill-opacity:1;stroke:#000000;stroke-width:47.12610852;stroke-linejoin:miter;stroke-dasharray:none;stroke-dashoffset:344;stroke-opacity:1"
         d="M 154.00034,14.323972 V 112.2532"
         id="path62"
         inkscape:tile-cx="87.113164"
         inkscape:tile-cy="229.03746"
         inkscape:tile-w="16"
         inkscape:tile-h="97.929232"
         inkscape:tile-x0="79.113164"
         inkscape:tile-y0="180.07284" /></g><g
       id="g64"
       transform="matrix(0,-0.02121966,0.02121966,0,0.15010539,7.3371427)"
       style="stroke:#000000;stroke-opacity:1;stroke-width:47.12610852;stroke-dasharray:none"><path
         style="fill:none;fill-opacity:1;stroke:#000000;stroke-width:47.12610852;stroke-linejoin:miter;stroke-dasharray:none;stroke-dashoffset:344;stroke-opacity:1"
         d="m 154.05583,268.06298 v 97.92923"
         id="path63"
         inkscape:tile-cx="87.113164"
         inkscape:tile-cy="229.03746"
         inkscape:tile-w="16"
         inkscape:tile-h="97.929232"
         inkscape:tile-x0="79.113164"
         inkscape:tile-y0="180.07284" /><path
         style="fill:none;fill-opacity:1;stroke:#000000;stroke-width:47.12610852;stroke-linejoin:miter;stroke-dasharray:none;stroke-dashoffset:344;stroke-opacity:1"
         d="M 154.00034,14.323972 V 112.2532"
         id="path64"
         inkscape:tile-cx="87.113164"
         inkscape:tile-cy="229.03746"
         inkscape:tile-w="16"
         inkscape:tile-h="97.929232"
         inkscape:tile-x0="79.113164"
         inkscape:tile-y0="180.07284" /></g><g
       id="g66"
       transform="matrix(0.01500458,0.01500458,-0.01500458,0.01500458,4.7273186,-1.0956561)"
       style="stroke:#000000;stroke-opacity:1;stroke-width:47.12606292;stroke-dasharray:none"><path
         style="fill:none;fill-opacity:1;stroke:#000000;stroke-width:47.12606292;stroke-linejoin:miter;stroke-dasharray:none;stroke-dashoffset:344;stroke-opacity:1"
         d="m 154.05583,268.06298 v 97.92923"
         id="path65"
         inkscape:tile-cx="87.113164"
         inkscape:tile-cy="229.03746"
         inkscape:tile-w="16"
         inkscape:tile-h="97.929232"
         inkscape:tile-x0="79.113164"
         inkscape:tile-y0="180.07284" /><path
         style="fill:none;fill-opacity:1;stroke:#000000;stroke-width:47.12606292;stroke-linejoin:miter;stroke-dasharray:none;stroke-dashoffset:344;stroke-opacity:1"
         d="M 154.00034,14.323972 V 112.2532"
         id="path66"
         inkscape:tile-cx="87.113164"
         inkscape:tile-cy="229.03746"
         inkscape:tile-w="16"
         inkscape:tile-h="97.929232"
         inkscape:tile-x0="79.113164"
         inkscape:tile-y0="180.07284" /></g><g
       id="g68"
       transform="matrix(0.01500458,-0.01500458,0.01500458,0.01500458,-0.97916431,3.5265974)"
       style="stroke:#000000;stroke-opacity:1;stroke-width:47.12606292;stroke-dasharray:none"><path
         style="fill:none;fill-opacity:1;stroke:#000000;stroke-width:47.12606292;stroke-linejoin:miter;stroke-dasharray:none;stroke-dashoffset:344;stroke-opacity:1"
         d="m 154.05583,268.06298 v 97.92923"
         id="path67"
         inkscape:tile-cx="87.113164"
         inkscape:tile-cy="229.03746"
         inkscape:tile-w="16"
         inkscape:tile-h="97.929232"
         inkscape:tile-x0="79.113164"
         inkscape:tile-y0="180.07284" /><path
         style="fill:none;fill-opacity:1;stroke:#000000;stroke-width:47.12606292;stroke-linejoin:miter;stroke-dasharray:none;stroke-dashoffset:344;stroke-opacity:1"
         d="M 154.00034,14.323972 V 112.2532"
         id="path68"
         inkscape:tile-cx="87.113164"
         inkscape:tile-cy="229.03746"
         inkscape:tile-w="16"
         inkscape:tile-h="97.929232"
         inkscape:tile-x0="79.113164"
         inkscape:tile-y0="180.07284" /></g><path
       style="fill:none;fill-opacity:1;stroke:#000000;stroke-width:1;stroke-linejoin:miter;stroke-dasharray:none;stroke-dashoffset:240.8;stroke-opacity:1"
       d="M 14.562886,14.370674 H 1.5568829"
       id="path69"
       inkscape:tile-cx="87.113164"
       inkscape:tile-cy="229.03746"
       inkscape:tile-w="16"
       inkscape:tile-h="97.929232"
       inkscape:tile-x0="79.113164"
       inkscape:tile-y0="180.07284"
       sodipodi:nodetypes="cc" /><path
       style="display:inline;fill:none;fill-opacity:1;stroke:#000000;stroke-width:1;stroke-linejoin:miter;stroke-dasharray:none;stroke-dashoffset:1300.16;stroke-opacity:1"
       d="M 2.271601,15.539495 3.3172636,14.360912"
       id="path70"
       sodipodi:nodetypes="cc"
       inkscape:tile-cx="92.375034"
       inkscape:tile-cy="496.5158"
       inkscape:tile-w="46.462949"
       inkscape:tile-h="49.498"
       inkscape:tile-x0="69.143559"
       inkscape:tile-y0="471.7668" /><use
       x="0"
       y="0"
       inkscape:tiled-clone-of="#path70"
       xlink:href="#path70"
       id="use165"
       style="stroke:#000000;stroke-opacity:1;stroke-width:1;stroke-dasharray:none" /><use
       x="0"
       y="0"
       inkscape:tiled-clone-of="#path70"
       xlink:href="#path70"
       transform="rotate(180,3.6747256,14.950204)"
       id="use166"
       style="stroke:#000000;stroke-opacity:1;stroke-width:1;stroke-dasharray:none" /><use
       x="0"
       y="0"
       inkscape:tiled-clone-of="#path70"
       xlink:href="#path70"
       transform="translate(3.5211779)"
       id="use167"
       style="stroke:#000000;stroke-opacity:1;stroke-width:1;stroke-dasharray:none" /><use
       x="0"
       y="0"
       inkscape:tiled-clone-of="#path70"
       xlink:href="#path70"
       transform="rotate(180,5.4353126,14.950204)"
       id="use168"
       style="stroke:#000000;stroke-opacity:1;stroke-width:1;stroke-dasharray:none" /><use
       x="0"
       y="0"
       inkscape:tiled-clone-of="#path70"
       xlink:href="#path70"
       transform="translate(7.0423465)"
       id="use169"
       style="stroke:#000000;stroke-opacity:1;stroke-width:1;stroke-dasharray:none" /><use
       x="0"
       y="0"
       inkscape:tiled-clone-of="#path70"
       xlink:href="#path70"
       transform="rotate(180,7.1959006,14.950204)"
       id="use170"
       style="stroke:#000000;stroke-opacity:1;stroke-width:1;stroke-dasharray:none" /><use
       x="0"
       y="0"
       inkscape:tiled-clone-of="#path70"
       xlink:href="#path70"
       transform="translate(10.563528)"
       id="use171"
       style="stroke:#000000;stroke-opacity:1;stroke-width:1;stroke-dasharray:none" /><g
       id="g173"
       style="stroke:#000000;stroke-opacity:1;stroke-width:32.98824332;stroke-dasharray:none"
       transform="matrix(0.03031383,0,0,0.03031383,-0.00580881,-0.10109146)"><path
         style="fill:none;fill-opacity:1;stroke:#000000;stroke-width:32.98824332;stroke-linejoin:miter;stroke-dasharray:none;stroke-dashoffset:1300.16;stroke-opacity:1"
         d="m 95.084634,283.60026 127.074296,174.7849 42.98471,-55.81411"
         id="path171"
         sodipodi:nodetypes="ccc" /><path
         style="fill:#000000;fill-opacity:1;stroke:#000000;stroke-width:32.98824332;stroke-linejoin:miter;stroke-dasharray:none;stroke-dashoffset:1300.16;stroke-opacity:1"
         d="m 284.91654,376.66869 -29.65182,10.39154 27.22206,20.88905 z"
         id="path173"
         sodipodi:nodetypes="cccc" /></g><g
       id="g175"
       transform="matrix(0.03031383,0,0,0.03031383,5.9845306,-0.10109146)"
       style="stroke:#000000;stroke-opacity:1;stroke-width:32.98824332;stroke-dasharray:none"><path
         style="fill:none;fill-opacity:1;stroke:#000000;stroke-width:32.98824332;stroke-linejoin:miter;stroke-dasharray:none;stroke-dashoffset:1300.16;stroke-opacity:1"
         d="m 95.084634,283.60026 127.074296,174.7849 42.98471,-55.81411"
         id="path174"
         sodipodi:nodetypes="ccc" /><path
         style="fill:#000000;fill-opacity:1;stroke:#000000;stroke-width:32.98824332;stroke-linejoin:miter;stroke-dasharray:none;stroke-dashoffset:1300.16;stroke-opacity:1"
         d="m 284.91654,376.66869 -29.65182,10.39154 27.22206,20.88905 z"
         id="path175"
         sodipodi:nodetypes="cccc" /></g></g></svg>
