{
	"asset":{
		"generator":"Khronos glTF Blender I/O v4.5.47",
		"version":"2.0"
	},
	"extensionsUsed":[
		"KHR_materials_transmission",
		"KHR_materials_emissive_strength"
	],
	"scene":0,
	"scenes":[
		{
			"name":"Scene",
			"nodes":[
				63
			]
		}
	],
	"nodes":[
		{
			"mesh":0,
			"name":"billiard_ball_billiard_ball_mat_0",
			"translation":[
				2.245791256427765e-05,
				0,
				7.158618973335251e-05
			]
		},
		{
			"children":[
				0
			],
			"name":"Object_58",
			"translation":[
				8.349306881427765e-05,
				0,
				-28.574939727783203
			]
		},
		{
			"children":[
				1
			],
			"name":"billiard_ball",
			"rotation":[
				0.7375363707542419,
				0.6749447584152222,
				-0.01564822532236576,
				0.015647469088435173
			],
			"scale":[
				0.10000000149011612,
				0.10000000149011612,
				0.09999999403953552
			],
			"translation":[
				-0.0004943847889080644,
				79.00182342529297,
				54.99678039550781
			]
		},
		{
			"mesh":1,
			"name":"billiard_ball001_billiard_ball_mat_0",
			"translation":[
				-0.000125885009765625,
				-1.4066696166992188e-05,
				-4.0337443351745605e-05
			]
		},
		{
			"children":[
				3
			],
			"name":"Object_55",
			"translation":[
				-0.000125885009765625,
				-1.4066696166992188e-05,
				-28.57505226135254
			]
		},
		{
			"children":[
				4
			],
			"name":"billiard_ball001",
			"rotation":[
				0.7688212990760803,
				0.6391133069992065,
				-0.014965898357331753,
				0.014966662973165512
			],
			"scale":[
				0.09999998658895493,
				0.09999999403953552,
				0.09999997913837433
			],
			"translation":[
				2.864866256713867,
				79.00182342529297,
				59.89646911621094
			]
		},
		{
			"mesh":2,
			"name":"billiard_ball002_billiard_ball_mat_0",
			"translation":[
				-4.3699466914404184e-05,
				0,
				8.52694756758865e-06
			]
		},
		{
			"children":[
				6
			],
			"name":"Object_52",
			"translation":[
				-4.3699466914404184e-05,
				0,
				-28.57500457763672
			]
		},
		{
			"children":[
				7
			],
			"name":"billiard_ball002",
			"rotation":[
				0.70710688829422,
				0.7071066498756409,
				0,
				5.2683560625155224e-08
			],
			"scale":[
				0.09999997913837433,
				0.09999999403953552,
				0.09999997913837433
			],
			"translation":[
				5.72236442565918,
				79.00182342529297,
				64.81326293945312
			]
		},
		{
			"mesh":3,
			"name":"billiard_ball003_billiard_ball_mat_0",
			"translation":[
				-7.557868957519531e-05,
				-6.377696990966797e-06,
				9.749829769134521e-05
			]
		},
		{
			"children":[
				9
			],
			"name":"Object_49",
			"translation":[
				-7.557868957519531e-05,
				-6.377696990966797e-06,
				-28.574975967407227
			]
		},
		{
			"children":[
				10
			],
			"name":"billiard_ball003",
			"rotation":[
				0.7012755870819092,
				0.7111968994140625,
				-0.03472389653325081,
				0.034724581986665726
			],
			"scale":[
				0.10000000149011612,
				0.10000000149011612,
				0.09999999403953552
			],
			"translation":[
				8.579864501953125,
				79.00182342529297,
				69.7108383178711
			]
		},
		{
			"mesh":4,
			"name":"billiard_ball004_billiard_ball_mat_0",
			"translation":[
				0.0001201629638671875,
				-6.67572021484375e-06,
				1.1026859283447266e-05
			]
		},
		{
			"children":[
				12
			],
			"name":"Object_46",
			"translation":[
				0.0001201629638671875,
				-6.67572021484375e-06,
				-28.575031280517578
			]
		},
		{
			"children":[
				13
			],
			"name":"billiard_ball004",
			"rotation":[
				-0.7444829344749451,
				-0.6574304699897766,
				-0.08188329637050629,
				0.08261645585298538
			],
			"scale":[
				0.10000000149011612,
				0.09999999403953552,
				0.10000000149011612
			],
			"translation":[
				-5.6703200340271,
				79.00182342529297,
				64.81326293945312
			]
		},
		{
			"mesh":5,
			"name":"billiard_ball005_billiard_ball_mat_0",
			"translation":[
				-2.7179718017578125e-05,
				3.2186508178710938e-06,
				4.295259714126587e-05
			]
		},
		{
			"children":[
				15
			],
			"name":"Object_43",
			"translation":[
				-2.7179718017578125e-05,
				3.2186508178710938e-06,
				-28.575029373168945
			]
		},
		{
			"children":[
				16
			],
			"name":"billiard_ball005",
			"rotation":[
				-0.722842276096344,
				-0.6893918514251709,
				-0.03345143422484398,
				0.03344990313053131
			],
			"scale":[
				0.09999999403953552,
				0.10000000149011612,
				0.09999999403953552
			],
			"translation":[
				2.8648650646209717,
				79.00182342529297,
				69.7108383178711
			]
		},
		{
			"mesh":6,
			"name":"billiard_ball006_billiard_ball_mat_0",
			"translation":[
				-5.507469177246094e-05,
				-9.298324584960938e-06,
				-2.6524066925048828e-05
			]
		},
		{
			"children":[
				18
			],
			"name":"Object_40",
			"translation":[
				5.9604644775390625e-06,
				-9.298324584960938e-06,
				-28.57503890991211
			]
		},
		{
			"children":[
				19
			],
			"name":"billiard_ball006",
			"rotation":[
				0.6980949640274048,
				0.7085233926773071,
				-0.07299986481666565,
				0.07300026714801788
			],
			"scale":[
				0.10000000149011612,
				0.09999998658895493,
				0.10000000149011612
			],
			"translation":[
				-8.58085823059082,
				79.00182342529297,
				69.7108383178711
			]
		},
		{
			"mesh":7,
			"name":"billiard_ball007_billiard_ball_mat_0",
			"translation":[
				3.635091707110405e-05,
				1.0165385901927948e-05,
				-3.654719330370426e-05
			]
		},
		{
			"children":[
				21
			],
			"name":"Object_37",
			"translation":[
				-8.571939542889595e-05,
				-5.093403160572052e-06,
				-28.575109481811523
			]
		},
		{
			"children":[
				22
			],
			"name":"billiard_ball007",
			"rotation":[
				-0.7510895133018494,
				-0.655683159828186,
				-0.054517827928066254,
				0.054517827928066254
			],
			"scale":[
				0.10000002384185791,
				0.10000002384185791,
				0.1000000387430191
			],
			"translation":[
				0.028200913220643997,
				79.00182342529297,
				64.81327056884766
			]
		},
		{
			"mesh":8,
			"name":"billiard_ball008_billiard_ball_mat_0",
			"translation":[
				-5.7220458984375e-06,
				-8.106231689453125e-06,
				-5.155801773071289e-06
			]
		},
		{
			"children":[
				24
			],
			"name":"Object_34",
			"translation":[
				-5.7220458984375e-06,
				-8.106231689453125e-06,
				-28.57513999938965
			]
		},
		{
			"children":[
				25
			],
			"name":"billiard_ball008",
			"rotation":[
				-0.6271483898162842,
				-0.7768510580062866,
				-0.03992045298218727,
				0.03992065414786339
			],
			"scale":[
				0.09999998658895493,
				0.09999998658895493,
				0.10000007599592209
			],
			"translation":[
				-2.865858793258667,
				79.00182342529297,
				59.8964729309082
			]
		},
		{
			"mesh":9,
			"name":"billiard_ball009_billiard_ball_mat_0",
			"translation":[
				7.62939453125e-06,
				0,
				-3.838539123535156e-05
			]
		},
		{
			"children":[
				27
			],
			"name":"Object_31",
			"translation":[
				7.62939453125e-06,
				0,
				-28.575050354003906
			]
		},
		{
			"children":[
				28
			],
			"name":"billiard_ball009",
			"rotation":[
				-0.737398087978363,
				-0.6709953546524048,
				-0.014634855091571808,
				0.07612639665603638
			],
			"scale":[
				0.10000000894069672,
				0.10000000894069672,
				0.10000000149011612
			],
			"translation":[
				-2.8579955101013184,
				79.0018310546875,
				69.7108383178711
			]
		},
		{
			"mesh":10,
			"name":"billiard_ball010_billiard_ball_mat_0",
			"translation":[
				-9.584426879882812e-05,
				-1.1444091796875e-05,
				0
			]
		},
		{
			"children":[
				30
			],
			"name":"Object_28",
			"translation":[
				-3.4809112548828125e-05,
				-1.1444091796875e-05,
				-28.574951171875
			]
		},
		{
			"children":[
				31
			],
			"name":"billiard_ball010",
			"rotation":[
				-0.7276312112808228,
				-0.684929370880127,
				-0.026688572019338608,
				0.026688741520047188
			],
			"scale":[
				0.10000000894069672,
				0.09999999403953552,
				0.10000000894069672
			],
			"translation":[
				11.437365531921387,
				79.0018310546875,
				74.61524963378906
			]
		},
		{
			"mesh":11,
			"name":"billiard_ball011_billiard_ball_mat_0",
			"translation":[
				-7.629245374118909e-05,
				0,
				-7.636081136297435e-06
			]
		},
		{
			"children":[
				33
			],
			"name":"Object_25",
			"translation":[
				4.57778551208321e-05,
				0,
				-28.57501983642578
			]
		},
		{
			"children":[
				34
			],
			"name":"billiard_ball011",
			"rotation":[
				-0.7063791155815125,
				-0.7063792943954468,
				-0.03206957131624222,
				0.03206861764192581
			],
			"scale":[
				0.09999999403953552,
				0.10000000149011612,
				0.09999999403953552
			],
			"translation":[
				-0.0004961967351846397,
				79.0018310546875,
				74.61524963378906
			]
		},
		{
			"mesh":12,
			"name":"billiard_ball012_billiard_ball_mat_0",
			"translation":[
				7.062513031996787e-05,
				-3.2645039027556777e-06,
				2.7933972887694836e-05
			]
		},
		{
			"children":[
				36
			],
			"name":"Object_22",
			"translation":[
				9.589974069967866e-06,
				0,
				-28.575044631958008
			]
		},
		{
			"children":[
				37
			],
			"name":"billiard_ball012",
			"rotation":[
				-0.7066594362258911,
				-0.7066596746444702,
				-0.025147289037704468,
				0.025144416838884354
			],
			"scale":[
				0.09999999403953552,
				0.10000000149011612,
				0.09999999403953552
			],
			"translation":[
				-5.723358154296875,
				79.00182342529297,
				74.61524963378906
			]
		},
		{
			"mesh":13,
			"name":"billiard_ball013_billiard_ball_mat_0",
			"translation":[
				-3.814697265625e-06,
				-9.775161743164062e-06,
				5.424022674560547e-06
			]
		},
		{
			"children":[
				39
			],
			"name":"Object_19",
			"translation":[
				-3.814697265625e-06,
				-9.775161743164062e-06,
				-28.5749454498291
			]
		},
		{
			"children":[
				40
			],
			"name":"billiard_ball013",
			"rotation":[
				-0.6861225962638855,
				-0.725365936756134,
				-0.03924389183521271,
				0.03924281895160675
			],
			"scale":[
				0.10000000149011612,
				0.10000000149011612,
				0.10000001639127731
			],
			"translation":[
				-11.438359260559082,
				79.00182342529297,
				74.61524963378906
			]
		},
		{
			"mesh":14,
			"name":"billiard_ball014_billiard_ball_mat_0",
			"translation":[
				-2.09808349609375e-05,
				-3.6954879760742188e-06,
				-4.0609389543533325e-05
			]
		},
		{
			"children":[
				42
			],
			"name":"Object_16",
			"translation":[
				-2.09808349609375e-05,
				-3.6954879760742188e-06,
				-28.57493019104004
			]
		},
		{
			"children":[
				43
			],
			"name":"billiard_ball014",
			"rotation":[
				-0.6518553495407104,
				-0.758312463760376,
				-0.004838735796511173,
				0.004839099943637848
			],
			"scale":[
				0.10000000149011612,
				0.10000000149011612,
				0.10000000149011612
			],
			"translation":[
				5.722365856170654,
				79.00182342529297,
				74.61524963378906
			]
		},
		{
			"mesh":15,
			"name":"billiard_ball015_billiard_ball_mat_0",
			"translation":[
				6.10352581134066e-05,
				0,
				0
			]
		},
		{
			"children":[
				45
			],
			"name":"Object_13",
			"translation":[
				6.10352581134066e-05,
				0,
				-28.57501220703125
			]
		},
		{
			"children":[
				46
			],
			"name":"billiard_ball015",
			"rotation":[
				0.4999999403953552,
				0.5000000596046448,
				-0.4999998211860657,
				0.5000001788139343
			],
			"scale":[
				0.09999999403953552,
				0.10000000149011612,
				0.09999999403953552
			],
			"translation":[
				0,
				78.97672271728516,
				-61.58597183227539
			]
		},
		{
			"mesh":16,
			"name":"ceiling_light_low_light_mat_0",
			"translation":[
				0,
				-2.1200021365075372e-05,
				-6.448064232245088e-05
			]
		},
		{
			"mesh":17,
			"name":"Cylinder",
			"rotation":[
				0.7071068286895752,
				0,
				0,
				0.7071068286895752
			],
			"scale":[
				406.4533996582031,
				1403.4442138671875,
				406.453369140625
			],
			"translation":[
				0.9604759216308594,
				0.36474609375,
				484.8904113769531
			]
		},
		{
			"children":[
				48,
				49
			],
			"name":"Object_7",
			"translation":[
				-39.216880798339844,
				-2.1200021365075372e-05,
				-485
			]
		},
		{
			"children":[
				50
			],
			"name":"ceiling_light_low",
			"scale":[
				0.10000000149011612,
				0.09999999403953552,
				0.09999999403953552
			],
			"translation":[
				0,
				147.51451110839844,
				0
			]
		},
		{
			"mesh":18,
			"name":"pool_cue_cue_mat_0",
			"translation":[
				-1.9073486328125e-05,
				-7.539987564086914e-06,
				-1.0013580322265625e-05
			]
		},
		{
			"children":[
				52
			],
			"name":"Object_10",
			"translation":[
				0.5798149108886719,
				-7.539987564086914e-06,
				-714.25146484375
			]
		},
		{
			"children":[
				53
			],
			"name":"pool_cue",
			"rotation":[
				0.9994744658470154,
				0.00015566745423711836,
				-0.03205049782991409,
				0.004854391794651747
			],
			"scale":[
				0.10000000149011612,
				0.10000000894069672,
				0.10000000149011612
			],
			"translation":[
				36.3604736328125,
				77.37126922607422,
				-2.8625547885894775
			]
		},
		{
			"mesh":19,
			"name":"pool_cue001_cue_mat_0",
			"translation":[
				-5.204669287195429e-05,
				7.286667823791504e-06,
				0
			]
		},
		{
			"children":[
				55
			],
			"name":"Object_61",
			"translation":[
				0.5799040198326111,
				6.83218240737915e-05,
				-714.25146484375
			]
		},
		{
			"children":[
				56
			],
			"name":"pool_cue001",
			"rotation":[
				-0.7101677060127258,
				-0.022773168981075287,
				0.02255302667617798,
				0.7033026814460754
			],
			"scale":[
				0.10000000149011612,
				0.10000000894069672,
				0.10000000149011612
			],
			"translation":[
				70.17205047607422,
				73.79139709472656,
				62.501495361328125
			]
		},
		{
			"mesh":20,
			"name":"pooltable_low_pool_table_mat_0"
		},
		{
			"children":[
				58
			],
			"name":"Object_4",
			"translation":[
				-3.563579957699403e-05,
				0.1221313551068306,
				-653.8485717773438
			]
		},
		{
			"children":[
				59
			],
			"name":"pooltable_low",
			"rotation":[
				0,
				0.7071068286895752,
				-0.7071068286895752,
				3.0908619663705394e-08
			],
			"scale":[
				0.10000001639127731,
				0.10000000149011612,
				0.10000000149011612
			],
			"translation":[
				2.1525459033000516e-06,
				-6.198883056640625e-06,
				0.012213134206831455
			]
		},
		{
			"children":[
				2,
				5,
				8,
				11,
				14,
				17,
				20,
				23,
				26,
				29,
				32,
				35,
				38,
				41,
				44,
				47,
				51,
				54,
				57,
				60
			],
			"name":"RootNode"
		},
		{
			"children":[
				61
			],
			"name":"8434c7de2c604b75999b6351620c84f8.fbx",
			"rotation":[
				0.70710688829422,
				0,
				0,
				0.7071066498756409
			],
			"scale":[
				0.009999999776482582,
				0.010000000707805157,
				0.010000000707805157
			]
		},
		{
			"children":[
				62
			],
			"name":"Sketchfab_model",
			"rotation":[
				-0.70710688829422,
				0,
				0,
				0.7071066498756409
			]
		}
	],
	"materials":[
		{
			"doubleSided":true,
			"name":"billiard_ball_mat",
			"pbrMetallicRoughness":{
				"baseColorTexture":{
					"index":0
				},
				"metallicFactor":0,
				"metallicRoughnessTexture":{
					"index":1
				}
			}
		},
		{
			"doubleSided":true,
			"emissiveFactor":[
				1,
				1,
				1
			],
			"emissiveTexture":{
				"index":2
			},
			"extensions":{
				"KHR_materials_emissive_strength":{
					"emissiveStrength":6.154882431030273
				}
			},
			"name":"light_mat",
			"pbrMetallicRoughness":{
				"baseColorTexture":{
					"index":3
				},
				"metallicRoughnessTexture":{
					"index":4
				}
			}
		},
		{
			"doubleSided":true,
			"name":"cue_mat",
			"normalTexture":{
				"index":5
			},
			"pbrMetallicRoughness":{
				"baseColorTexture":{
					"index":6
				},
				"metallicRoughnessTexture":{
					"index":7
				}
			}
		},
		{
			"alphaMode":"BLEND",
			"doubleSided":true,
			"extensions":{
				"KHR_materials_transmission":{
					"transmissionFactor":1,
					"transmissionTexture":{
						"index":8
					}
				}
			},
			"name":"pool_table_mat",
			"normalTexture":{
				"index":9
			},
			"pbrMetallicRoughness":{
				"baseColorTexture":{
					"index":10
				},
				"metallicRoughnessTexture":{
					"index":11
				}
			}
		},
		{
			"doubleSided":true,
			"name":"lamp_mat",
			"pbrMetallicRoughness":{
				"baseColorTexture":{
					"index":3
				},
				"metallicRoughnessTexture":{
					"index":4
				}
			}
		}
	],
	"meshes":[
		{
			"name":"billiard_ball_billiard_ball_mat_0",
			"primitives":[
				{
					"attributes":{
						"POSITION":0,
						"NORMAL":1,
						"TEXCOORD_0":2
					},
					"indices":3,
					"material":0
				}
			]
		},
		{
			"name":"billiard_ball001_billiard_ball_mat_0",
			"primitives":[
				{
					"attributes":{
						"POSITION":4,
						"NORMAL":5,
						"TEXCOORD_0":6
					},
					"indices":3,
					"material":0
				}
			]
		},
		{
			"name":"billiard_ball002_billiard_ball_mat_0",
			"primitives":[
				{
					"attributes":{
						"POSITION":7,
						"NORMAL":8,
						"TEXCOORD_0":9
					},
					"indices":3,
					"material":0
				}
			]
		},
		{
			"name":"billiard_ball003_billiard_ball_mat_0",
			"primitives":[
				{
					"attributes":{
						"POSITION":10,
						"NORMAL":11,
						"TEXCOORD_0":12
					},
					"indices":3,
					"material":0
				}
			]
		},
		{
			"name":"billiard_ball004_billiard_ball_mat_0",
			"primitives":[
				{
					"attributes":{
						"POSITION":13,
						"NORMAL":14,
						"TEXCOORD_0":15
					},
					"indices":3,
					"material":0
				}
			]
		},
		{
			"name":"billiard_ball005_billiard_ball_mat_0",
			"primitives":[
				{
					"attributes":{
						"POSITION":16,
						"NORMAL":17,
						"TEXCOORD_0":18
					},
					"indices":3,
					"material":0
				}
			]
		},
		{
			"name":"billiard_ball006_billiard_ball_mat_0",
			"primitives":[
				{
					"attributes":{
						"POSITION":19,
						"NORMAL":20,
						"TEXCOORD_0":21
					},
					"indices":3,
					"material":0
				}
			]
		},
		{
			"name":"billiard_ball007_billiard_ball_mat_0",
			"primitives":[
				{
					"attributes":{
						"POSITION":22,
						"NORMAL":23,
						"TEXCOORD_0":24
					},
					"indices":3,
					"material":0
				}
			]
		},
		{
			"name":"billiard_ball008_billiard_ball_mat_0",
			"primitives":[
				{
					"attributes":{
						"POSITION":25,
						"NORMAL":26,
						"TEXCOORD_0":27
					},
					"indices":3,
					"material":0
				}
			]
		},
		{
			"name":"billiard_ball009_billiard_ball_mat_0",
			"primitives":[
				{
					"attributes":{
						"POSITION":28,
						"NORMAL":29,
						"TEXCOORD_0":30
					},
					"indices":3,
					"material":0
				}
			]
		},
		{
			"name":"billiard_ball010_billiard_ball_mat_0",
			"primitives":[
				{
					"attributes":{
						"POSITION":31,
						"NORMAL":32,
						"TEXCOORD_0":33
					},
					"indices":3,
					"material":0
				}
			]
		},
		{
			"name":"billiard_ball011_billiard_ball_mat_0",
			"primitives":[
				{
					"attributes":{
						"POSITION":34,
						"NORMAL":35,
						"TEXCOORD_0":36
					},
					"indices":3,
					"material":0
				}
			]
		},
		{
			"name":"billiard_ball012_billiard_ball_mat_0",
			"primitives":[
				{
					"attributes":{
						"POSITION":37,
						"NORMAL":38,
						"TEXCOORD_0":39
					},
					"indices":3,
					"material":0
				}
			]
		},
		{
			"name":"billiard_ball013_billiard_ball_mat_0",
			"primitives":[
				{
					"attributes":{
						"POSITION":40,
						"NORMAL":41,
						"TEXCOORD_0":42
					},
					"indices":3,
					"material":0
				}
			]
		},
		{
			"name":"billiard_ball014_billiard_ball_mat_0",
			"primitives":[
				{
					"attributes":{
						"POSITION":43,
						"NORMAL":44,
						"TEXCOORD_0":45
					},
					"indices":3,
					"material":0
				}
			]
		},
		{
			"name":"billiard_ball015_billiard_ball_mat_0",
			"primitives":[
				{
					"attributes":{
						"POSITION":46,
						"NORMAL":47,
						"TEXCOORD_0":48
					},
					"indices":3,
					"material":0
				}
			]
		},
		{
			"name":"ceiling_light_low_light_mat_0",
			"primitives":[
				{
					"attributes":{
						"POSITION":49,
						"NORMAL":50,
						"TEXCOORD_0":51
					},
					"indices":52,
					"material":4
				}
			]
		},
		{
			"name":"Cylinder.002",
			"primitives":[
				{
					"attributes":{
						"POSITION":53,
						"NORMAL":54,
						"TEXCOORD_0":55
					},
					"indices":56,
					"material":1
				}
			]
		},
		{
			"name":"pool_cue_cue_mat_0",
			"primitives":[
				{
					"attributes":{
						"POSITION":57,
						"NORMAL":58,
						"TEXCOORD_0":59
					},
					"indices":60,
					"material":2
				}
			]
		},
		{
			"name":"pool_cue001_cue_mat_0",
			"primitives":[
				{
					"attributes":{
						"POSITION":61,
						"NORMAL":62,
						"TEXCOORD_0":63
					},
					"indices":60,
					"material":2
				}
			]
		},
		{
			"name":"pooltable_low_pool_table_mat_0",
			"primitives":[
				{
					"attributes":{
						"POSITION":64,
						"NORMAL":65,
						"TEXCOORD_0":66
					},
					"indices":67,
					"material":3
				}
			]
		}
	],
	"textures":[
		{
			"sampler":0,
			"source":0
		},
		{
			"sampler":0,
			"source":1
		},
		{
			"sampler":0,
			"source":2
		},
		{
			"sampler":0,
			"source":3
		},
		{
			"sampler":0,
			"source":4
		},
		{
			"sampler":0,
			"source":5
		},
		{
			"sampler":0,
			"source":6
		},
		{
			"sampler":0,
			"source":7
		},
		{
			"sampler":0,
			"source":8
		},
		{
			"sampler":0,
			"source":9
		},
		{
			"sampler":0,
			"source":10
		},
		{
			"sampler":0,
			"source":11
		}
	],
	"images":[
		{
			"mimeType":"image/png",
			"name":"billiard_ball_mat_baseColor",
			"uri":"Textures/pool2/billiard_ball_mat_baseColor.png"
		},
		{
			"mimeType":"image/png",
			"name":"billiard_ball_mat_metallicRoughness",
			"uri":"Textures/pool2/billiard_ball_mat_metallicRoughness.png"
		},
		{
			"mimeType":"image/png",
			"name":"light_mat_emissive",
			"uri":"Textures/pool2/light_mat_emissive.png"
		},
		{
			"mimeType":"image/png",
			"name":"light_mat_baseColor",
			"uri":"Textures/pool2/light_mat_baseColor.png"
		},
		{
			"mimeType":"image/png",
			"name":"light_mat_metallicRoughness",
			"uri":"Textures/pool2/light_mat_metallicRoughness.png"
		},
		{
			"mimeType":"image/png",
			"name":"cue_mat_normal",
			"uri":"Textures/pool2/cue_mat_normal.png"
		},
		{
			"mimeType":"image/png",
			"name":"cue_mat_baseColor",
			"uri":"Textures/pool2/cue_mat_baseColor.png"
		},
		{
			"mimeType":"image/png",
			"name":"cue_mat_metallicRoughness",
			"uri":"Textures/pool2/cue_mat_metallicRoughness.png"
		},
		{
			"mimeType":"image/png",
			"name":"pool_table_mat_transmission",
			"uri":"Textures/pool2/pool_table_mat_transmission.png"
		},
		{
			"mimeType":"image/png",
			"name":"pool_table_mat_normal",
			"uri":"Textures/pool2/pool_table_mat_normal.png"
		},
		{
			"mimeType":"image/png",
			"name":"pool_table_mat_baseColor",
			"uri":"Textures/pool2/pool_table_mat_baseColor.png"
		},
		{
			"mimeType":"image/png",
			"name":"pool_table_mat_metallicRoughness",
			"uri":"Textures/pool2/pool_table_mat_metallicRoughness.png"
		}
	],
	"accessors":[
		{
			"bufferView":0,
			"componentType":5126,
			"count":114,
			"max":[
				28.57499885559082,
				28.57499885559082,
				57.150001525878906
			],
			"min":[
				-28.57499885559082,
				-28.57499885559082,
				1.9073486328125e-06
			],
			"type":"VEC3"
		},
		{
			"bufferView":1,
			"componentType":5126,
			"count":114,
			"type":"VEC3"
		},
		{
			"bufferView":2,
			"componentType":5126,
			"count":114,
			"type":"VEC2"
		},
		{
			"bufferView":3,
			"componentType":5123,
			"count":576,
			"type":"SCALAR"
		},
		{
			"bufferView":4,
			"componentType":5126,
			"count":114,
			"max":[
				28.57499885559082,
				28.57499885559082,
				57.150001525878906
			],
			"min":[
				-28.57499885559082,
				-28.57499885559082,
				1.9073486328125e-06
			],
			"type":"VEC3"
		},
		{
			"bufferView":5,
			"componentType":5126,
			"count":114,
			"type":"VEC3"
		},
		{
			"bufferView":6,
			"componentType":5126,
			"count":114,
			"type":"VEC2"
		},
		{
			"bufferView":7,
			"componentType":5126,
			"count":114,
			"max":[
				28.57499885559082,
				28.57499885559082,
				57.150001525878906
			],
			"min":[
				-28.57499885559082,
				-28.57499885559082,
				1.9073486328125e-06
			],
			"type":"VEC3"
		},
		{
			"bufferView":8,
			"componentType":5126,
			"count":114,
			"type":"VEC3"
		},
		{
			"bufferView":9,
			"componentType":5126,
			"count":114,
			"type":"VEC2"
		},
		{
			"bufferView":10,
			"componentType":5126,
			"count":114,
			"max":[
				28.57499885559082,
				28.57499885559082,
				57.150001525878906
			],
			"min":[
				-28.57499885559082,
				-28.57499885559082,
				1.9073486328125e-06
			],
			"type":"VEC3"
		},
		{
			"bufferView":11,
			"componentType":5126,
			"count":114,
			"type":"VEC3"
		},
		{
			"bufferView":12,
			"componentType":5126,
			"count":114,
			"type":"VEC2"
		},
		{
			"bufferView":13,
			"componentType":5126,
			"count":114,
			"max":[
				28.57499885559082,
				28.57499885559082,
				57.150001525878906
			],
			"min":[
				-28.57499885559082,
				-28.57499885559082,
				1.9073486328125e-06
			],
			"type":"VEC3"
		},
		{
			"bufferView":14,
			"componentType":5126,
			"count":114,
			"type":"VEC3"
		},
		{
			"bufferView":15,
			"componentType":5126,
			"count":114,
			"type":"VEC2"
		},
		{
			"bufferView":16,
			"componentType":5126,
			"count":114,
			"max":[
				28.57499885559082,
				28.57499885559082,
				57.150001525878906
			],
			"min":[
				-28.57499885559082,
				-28.57499885559082,
				1.9073486328125e-06
			],
			"type":"VEC3"
		},
		{
			"bufferView":17,
			"componentType":5126,
			"count":114,
			"type":"VEC3"
		},
		{
			"bufferView":18,
			"componentType":5126,
			"count":114,
			"type":"VEC2"
		},
		{
			"bufferView":19,
			"componentType":5126,
			"count":114,
			"max":[
				28.57499885559082,
				28.57499885559082,
				57.150001525878906
			],
			"min":[
				-28.57499885559082,
				-28.57499885559082,
				1.9073486328125e-06
			],
			"type":"VEC3"
		},
		{
			"bufferView":20,
			"componentType":5126,
			"count":114,
			"type":"VEC3"
		},
		{
			"bufferView":21,
			"componentType":5126,
			"count":114,
			"type":"VEC2"
		},
		{
			"bufferView":22,
			"componentType":5126,
			"count":114,
			"max":[
				28.57499885559082,
				28.57499885559082,
				57.150001525878906
			],
			"min":[
				-28.57499885559082,
				-28.57499885559082,
				1.9073486328125e-06
			],
			"type":"VEC3"
		},
		{
			"bufferView":23,
			"componentType":5126,
			"count":114,
			"type":"VEC3"
		},
		{
			"bufferView":24,
			"componentType":5126,
			"count":114,
			"type":"VEC2"
		},
		{
			"bufferView":25,
			"componentType":5126,
			"count":114,
			"max":[
				28.57499885559082,
				28.57499885559082,
				57.150001525878906
			],
			"min":[
				-28.57499885559082,
				-28.57499885559082,
				1.9073486328125e-06
			],
			"type":"VEC3"
		},
		{
			"bufferView":26,
			"componentType":5126,
			"count":114,
			"type":"VEC3"
		},
		{
			"bufferView":27,
			"componentType":5126,
			"count":114,
			"type":"VEC2"
		},
		{
			"bufferView":28,
			"componentType":5126,
			"count":114,
			"max":[
				28.57499885559082,
				28.57499885559082,
				57.150001525878906
			],
			"min":[
				-28.57499885559082,
				-28.57499885559082,
				1.9073486328125e-06
			],
			"type":"VEC3"
		},
		{
			"bufferView":29,
			"componentType":5126,
			"count":114,
			"type":"VEC3"
		},
		{
			"bufferView":30,
			"componentType":5126,
			"count":114,
			"type":"VEC2"
		},
		{
			"bufferView":31,
			"componentType":5126,
			"count":114,
			"max":[
				28.57499885559082,
				28.57499885559082,
				57.150001525878906
			],
			"min":[
				-28.57499885559082,
				-28.57499885559082,
				1.9073486328125e-06
			],
			"type":"VEC3"
		},
		{
			"bufferView":32,
			"componentType":5126,
			"count":114,
			"type":"VEC3"
		},
		{
			"bufferView":33,
			"componentType":5126,
			"count":114,
			"type":"VEC2"
		},
		{
			"bufferView":34,
			"componentType":5126,
			"count":114,
			"max":[
				28.57499885559082,
				28.57499885559082,
				57.150001525878906
			],
			"min":[
				-28.57499885559082,
				-28.57499885559082,
				1.9073486328125e-06
			],
			"type":"VEC3"
		},
		{
			"bufferView":35,
			"componentType":5126,
			"count":114,
			"type":"VEC3"
		},
		{
			"bufferView":36,
			"componentType":5126,
			"count":114,
			"type":"VEC2"
		},
		{
			"bufferView":37,
			"componentType":5126,
			"count":114,
			"max":[
				28.57499885559082,
				28.57499885559082,
				57.150001525878906
			],
			"min":[
				-28.57499885559082,
				-28.57499885559082,
				1.9073486328125e-06
			],
			"type":"VEC3"
		},
		{
			"bufferView":38,
			"componentType":5126,
			"count":114,
			"type":"VEC3"
		},
		{
			"bufferView":39,
			"componentType":5126,
			"count":114,
			"type":"VEC2"
		},
		{
			"bufferView":40,
			"componentType":5126,
			"count":114,
			"max":[
				28.57499885559082,
				28.57499885559082,
				57.150001525878906
			],
			"min":[
				-28.57499885559082,
				-28.57499885559082,
				1.9073486328125e-06
			],
			"type":"VEC3"
		},
		{
			"bufferView":41,
			"componentType":5126,
			"count":114,
			"type":"VEC3"
		},
		{
			"bufferView":42,
			"componentType":5126,
			"count":114,
			"type":"VEC2"
		},
		{
			"bufferView":43,
			"componentType":5126,
			"count":114,
			"max":[
				28.57499885559082,
				28.57499885559082,
				57.150001525878906
			],
			"min":[
				-28.57499885559082,
				-28.57499885559082,
				1.9073486328125e-06
			],
			"type":"VEC3"
		},
		{
			"bufferView":44,
			"componentType":5126,
			"count":114,
			"type":"VEC3"
		},
		{
			"bufferView":45,
			"componentType":5126,
			"count":114,
			"type":"VEC2"
		},
		{
			"bufferView":46,
			"componentType":5126,
			"count":114,
			"max":[
				28.57499885559082,
				28.57499885559082,
				57.150001525878906
			],
			"min":[
				-28.57499885559082,
				-28.57499885559082,
				1.9073486328125e-06
			],
			"type":"VEC3"
		},
		{
			"bufferView":47,
			"componentType":5126,
			"count":114,
			"type":"VEC3"
		},
		{
			"bufferView":48,
			"componentType":5126,
			"count":114,
			"type":"VEC2"
		},
		{
			"bufferView":49,
			"componentType":5126,
			"count":564,
			"max":[
				241.26406860351562,
				771.3253784179688,
				1090.8773193359375
			],
			"min":[
				-162.83029174804688,
				-93.27239990234375,
				-120.8772964477539
			],
			"type":"VEC3"
		},
		{
			"bufferView":50,
			"componentType":5126,
			"count":564,
			"type":"VEC3"
		},
		{
			"bufferView":51,
			"componentType":5126,
			"count":564,
			"type":"VEC2"
		},
		{
			"bufferView":52,
			"componentType":5123,
			"count":1992,
			"type":"SCALAR"
		},
		{
			"bufferView":53,
			"componentType":5126,
			"count":128,
			"max":[
				0.24789059162139893,
				0.3383289575576782,
				0.059071142226457596
			],
			"min":[
				-0.05964561551809311,
				-0.3383289575576782,
				-0.05656115710735321
			],
			"type":"VEC3"
		},
		{
			"bufferView":54,
			"componentType":5126,
			"count":128,
			"type":"VEC3"
		},
		{
			"bufferView":55,
			"componentType":5126,
			"count":128,
			"type":"VEC2"
		},
		{
			"bufferView":56,
			"componentType":5123,
			"count":192,
			"type":"SCALAR"
		},
		{
			"bufferView":57,
			"componentType":5126,
			"count":256,
			"max":[
				18.07058334350586,
				18.938161849975586,
				1453.0186767578125
			],
			"min":[
				-19.230308532714844,
				-18.938156127929688,
				-24.515594482421875
			],
			"type":"VEC3"
		},
		{
			"bufferView":58,
			"componentType":5126,
			"count":256,
			"type":"VEC3"
		},
		{
			"bufferView":59,
			"componentType":5126,
			"count":256,
			"type":"VEC2"
		},
		{
			"bufferView":60,
			"componentType":5123,
			"count":810,
			"type":"SCALAR"
		},
		{
			"bufferView":61,
			"componentType":5126,
			"count":256,
			"max":[
				18.07058334350586,
				18.938161849975586,
				1453.0186767578125
			],
			"min":[
				-19.230308532714844,
				-18.938156127929688,
				-24.515594482421875
			],
			"type":"VEC3"
		},
		{
			"bufferView":62,
			"componentType":5126,
			"count":256,
			"type":"VEC3"
		},
		{
			"bufferView":63,
			"componentType":5126,
			"count":256,
			"type":"VEC2"
		},
		{
			"bufferView":64,
			"componentType":5126,
			"count":14084,
			"max":[
				703.348876953125,
				1245.452880859375,
				653.8485107421875
			],
			"min":[
				-703.348876953125,
				-1245.6971435546875,
				-161.40341186523438
			],
			"type":"VEC3"
		},
		{
			"bufferView":65,
			"componentType":5126,
			"count":14084,
			"type":"VEC3"
		},
		{
			"bufferView":66,
			"componentType":5126,
			"count":14084,
			"type":"VEC2"
		},
		{
			"bufferView":67,
			"componentType":5123,
			"count":59862,
			"type":"SCALAR"
		}
	],
	"bufferViews":[
		{
			"buffer":0,
			"byteLength":1368,
			"byteOffset":0,
			"target":34962
		},
		{
			"buffer":0,
			"byteLength":1368,
			"byteOffset":1368,
			"target":34962
		},
		{
			"buffer":0,
			"byteLength":912,
			"byteOffset":2736,
			"target":34962
		},
		{
			"buffer":0,
			"byteLength":1152,
			"byteOffset":3648,
			"target":34963
		},
		{
			"buffer":0,
			"byteLength":1368,
			"byteOffset":4800,
			"target":34962
		},
		{
			"buffer":0,
			"byteLength":1368,
			"byteOffset":6168,
			"target":34962
		},
		{
			"buffer":0,
			"byteLength":912,
			"byteOffset":7536,
			"target":34962
		},
		{
			"buffer":0,
			"byteLength":1368,
			"byteOffset":8448,
			"target":34962
		},
		{
			"buffer":0,
			"byteLength":1368,
			"byteOffset":9816,
			"target":34962
		},
		{
			"buffer":0,
			"byteLength":912,
			"byteOffset":11184,
			"target":34962
		},
		{
			"buffer":0,
			"byteLength":1368,
			"byteOffset":12096,
			"target":34962
		},
		{
			"buffer":0,
			"byteLength":1368,
			"byteOffset":13464,
			"target":34962
		},
		{
			"buffer":0,
			"byteLength":912,
			"byteOffset":14832,
			"target":34962
		},
		{
			"buffer":0,
			"byteLength":1368,
			"byteOffset":15744,
			"target":34962
		},
		{
			"buffer":0,
			"byteLength":1368,
			"byteOffset":17112,
			"target":34962
		},
		{
			"buffer":0,
			"byteLength":912,
			"byteOffset":18480,
			"target":34962
		},
		{
			"buffer":0,
			"byteLength":1368,
			"byteOffset":19392,
			"target":34962
		},
		{
			"buffer":0,
			"byteLength":1368,
			"byteOffset":20760,
			"target":34962
		},
		{
			"buffer":0,
			"byteLength":912,
			"byteOffset":22128,
			"target":34962
		},
		{
			"buffer":0,
			"byteLength":1368,
			"byteOffset":23040,
			"target":34962
		},
		{
			"buffer":0,
			"byteLength":1368,
			"byteOffset":24408,
			"target":34962
		},
		{
			"buffer":0,
			"byteLength":912,
			"byteOffset":25776,
			"target":34962
		},
		{
			"buffer":0,
			"byteLength":1368,
			"byteOffset":26688,
			"target":34962
		},
		{
			"buffer":0,
			"byteLength":1368,
			"byteOffset":28056,
			"target":34962
		},
		{
			"buffer":0,
			"byteLength":912,
			"byteOffset":29424,
			"target":34962
		},
		{
			"buffer":0,
			"byteLength":1368,
			"byteOffset":30336,
			"target":34962
		},
		{
			"buffer":0,
			"byteLength":1368,
			"byteOffset":31704,
			"target":34962
		},
		{
			"buffer":0,
			"byteLength":912,
			"byteOffset":33072,
			"target":34962
		},
		{
			"buffer":0,
			"byteLength":1368,
			"byteOffset":33984,
			"target":34962
		},
		{
			"buffer":0,
			"byteLength":1368,
			"byteOffset":35352,
			"target":34962
		},
		{
			"buffer":0,
			"byteLength":912,
			"byteOffset":36720,
			"target":34962
		},
		{
			"buffer":0,
			"byteLength":1368,
			"byteOffset":37632,
			"target":34962
		},
		{
			"buffer":0,
			"byteLength":1368,
			"byteOffset":39000,
			"target":34962
		},
		{
			"buffer":0,
			"byteLength":912,
			"byteOffset":40368,
			"target":34962
		},
		{
			"buffer":0,
			"byteLength":1368,
			"byteOffset":41280,
			"target":34962
		},
		{
			"buffer":0,
			"byteLength":1368,
			"byteOffset":42648,
			"target":34962
		},
		{
			"buffer":0,
			"byteLength":912,
			"byteOffset":44016,
			"target":34962
		},
		{
			"buffer":0,
			"byteLength":1368,
			"byteOffset":44928,
			"target":34962
		},
		{
			"buffer":0,
			"byteLength":1368,
			"byteOffset":46296,
			"target":34962
		},
		{
			"buffer":0,
			"byteLength":912,
			"byteOffset":47664,
			"target":34962
		},
		{
			"buffer":0,
			"byteLength":1368,
			"byteOffset":48576,
			"target":34962
		},
		{
			"buffer":0,
			"byteLength":1368,
			"byteOffset":49944,
			"target":34962
		},
		{
			"buffer":0,
			"byteLength":912,
			"byteOffset":51312,
			"target":34962
		},
		{
			"buffer":0,
			"byteLength":1368,
			"byteOffset":52224,
			"target":34962
		},
		{
			"buffer":0,
			"byteLength":1368,
			"byteOffset":53592,
			"target":34962
		},
		{
			"buffer":0,
			"byteLength":912,
			"byteOffset":54960,
			"target":34962
		},
		{
			"buffer":0,
			"byteLength":1368,
			"byteOffset":55872,
			"target":34962
		},
		{
			"buffer":0,
			"byteLength":1368,
			"byteOffset":57240,
			"target":34962
		},
		{
			"buffer":0,
			"byteLength":912,
			"byteOffset":58608,
			"target":34962
		},
		{
			"buffer":0,
			"byteLength":6768,
			"byteOffset":59520,
			"target":34962
		},
		{
			"buffer":0,
			"byteLength":6768,
			"byteOffset":66288,
			"target":34962
		},
		{
			"buffer":0,
			"byteLength":4512,
			"byteOffset":73056,
			"target":34962
		},
		{
			"buffer":0,
			"byteLength":3984,
			"byteOffset":77568,
			"target":34963
		},
		{
			"buffer":0,
			"byteLength":1536,
			"byteOffset":81552,
			"target":34962
		},
		{
			"buffer":0,
			"byteLength":1536,
			"byteOffset":83088,
			"target":34962
		},
		{
			"buffer":0,
			"byteLength":1024,
			"byteOffset":84624,
			"target":34962
		},
		{
			"buffer":0,
			"byteLength":384,
			"byteOffset":85648,
			"target":34963
		},
		{
			"buffer":0,
			"byteLength":3072,
			"byteOffset":86032,
			"target":34962
		},
		{
			"buffer":0,
			"byteLength":3072,
			"byteOffset":89104,
			"target":34962
		},
		{
			"buffer":0,
			"byteLength":2048,
			"byteOffset":92176,
			"target":34962
		},
		{
			"buffer":0,
			"byteLength":1620,
			"byteOffset":94224,
			"target":34963
		},
		{
			"buffer":0,
			"byteLength":3072,
			"byteOffset":95844,
			"target":34962
		},
		{
			"buffer":0,
			"byteLength":3072,
			"byteOffset":98916,
			"target":34962
		},
		{
			"buffer":0,
			"byteLength":2048,
			"byteOffset":101988,
			"target":34962
		},
		{
			"buffer":0,
			"byteLength":169008,
			"byteOffset":104036,
			"target":34962
		},
		{
			"buffer":0,
			"byteLength":169008,
			"byteOffset":273044,
			"target":34962
		},
		{
			"buffer":0,
			"byteLength":112672,
			"byteOffset":442052,
			"target":34962
		},
		{
			"buffer":0,
			"byteLength":119724,
			"byteOffset":554724,
			"target":34963
		}
	],
	"samplers":[
		{
			"magFilter":9729,
			"minFilter":9987
		}
	],
	"buffers":[
		{
			"byteLength":674448,
			"uri":"scene.bin"
		}
	]
}
