{
  "accessors": [
    {
      "bufferView": 2,
      "componentType": 5126,
      "count": 4,
      "max": [
        1.0,
        1.0,
        0.0
      ],
      "min": [
        -1.0,
        -1.0,
        0.0
      ],
      "type": "VEC3"
    },
    {
      "bufferView": 2,
      "byteOffset": 48,
      "componentType": 5126,
      "count": 4,
      "max": [
        0.0,
        0.0,
        1.0
      ],
      "min": [
        0.0,
        0.0,
        1.0
      ],
      "type": "VEC3"
    },
    {
      "bufferView": 3,
      "componentType": 5126,
      "count": 4,
      "max": [
        1.0,
        0.0,
        0.0,
        1.0
      ],
      "min": [
        1.0,
        0.0,
        0.0,
        1.0
      ],
      "type": "VEC4"
    },
    {
      "bufferView": 1,
      "componentType": 5126,
      "count": 4,
      "max": [
        0.9999000430107117,
        0.9999000430107117
      ],
      "min": [
        9.998001041822135e-05,
        9.998001041822135e-05
      ],
      "type": "VEC2"
    },
    {
      "bufferView": 0,
      "componentType": 5125,
      "count": 6,
      "type": "SCALAR"
    },
    {
      "bufferView": 2,
      "byteOffset": 96,
      "componentType": 5126,
      "count": 27656,
      "max": [
        1.0600379705429077,
        1.4969569444656372,
        0.2601320147514343
      ],
      "min": [
        -0.930079996585846,
        0.8861610293388367,
        -1.157701015472412
      ],
      "type": "VEC3"
    },
    {
      "bufferView": 2,
      "byteOffset": 331968,
      "componentType": 5126,
      "count": 27656,
      "max": [
        0.9998992085456848,
        0.9999459385871887,
        0.9999691247940063
      ],
      "min": [
        -0.9999629855155945,
        -0.9999836087226868,
        -0.9999476075172424
      ],
      "type": "VEC3"
    },
    {
      "bufferView": 3,
      "byteOffset": 64,
      "componentType": 5126,
      "count": 27656,
      "max": [
        0.9999919533729553,
        0.9998183846473694,
        0.9997168183326721,
        1.0
      ],
      "min": [
        -0.9997420310974121,
        -0.9999648332595825,
        -0.9999979734420776,
        -1.0
      ],
      "type": "VEC4"
    },
    {
      "bufferView": 1,
      "byteOffset": 32,
      "componentType": 5126,
      "count": 27656,
      "max": [
        0.9976999759674072,
        0.9977999925613403
      ],
      "min": [
        0.002099999925121665,
        0.002199999988079071
      ],
      "type": "VEC2"
    },
    {
      "bufferView": 0,
      "byteOffset": 24,
      "componentType": 5125,
      "count": 102180,
      "type": "SCALAR"
    },
    {
      "bufferView": 2,
      "byteOffset": 663840,
      "componentType": 5126,
      "count": 8878,
      "max": [
        0.8568900227546692,
        1.9874299764633179,
        0.8452110290527344
      ],
      "min": [
        -1.4192010164260864,
        0.8175280094146729,
        -0.8750420212745667
      ],
      "type": "VEC3"
    },
    {
      "bufferView": 2,
      "byteOffset": 770376,
      "componentType": 5126,
      "count": 8878,
      "max": [
        0.9997434616088867,
        0.9996620416641235,
        0.9997864961624146
      ],
      "min": [
        -0.999823272228241,
        -0.9997439980506897,
        -0.9997859597206116
      ],
      "type": "VEC3"
    },
    {
      "bufferView": 3,
      "byteOffset": 442560,
      "componentType": 5126,
      "count": 8878,
      "max": [
        0.9999750256538391,
        0.9997724890708923,
        0.9999522566795349,
        1.0
      ],
      "min": [
        -0.9997566938400269,
        -0.9966923594474792,
        -0.9998031258583069,
        -1.0
      ],
      "type": "VEC4"
    },
    {
      "bufferView": 1,
      "byteOffset": 221280,
      "componentType": 5126,
      "count": 8878,
      "max": [
        0.9991000294685364,
        0.9958000183105469
      ],
      "min": [
        0.0008999999845400453,
        0.0008999999845400453
      ],
      "type": "VEC2"
    },
    {
      "bufferView": 0,
      "byteOffset": 408744,
      "componentType": 5125,
      "count": 35352,
      "type": "SCALAR"
    },
    {
      "bufferView": 2,
      "byteOffset": 876912,
      "componentType": 5126,
      "count": 24443,
      "max": [
        0.5735710263252258,
        2.164654016494751,
        0.490774005651474
      ],
      "min": [
        -0.6055480241775513,
        0.8976820111274719,
        -0.48016399145126343
      ],
      "type": "VEC3"
    },
    {
      "bufferView": 2,
      "byteOffset": 1170228,
      "componentType": 5126,
      "count": 24443,
      "max": [
        0.9998762011528015,
        0.9998829364776611,
        0.9998685121536255
      ],
      "min": [
        -0.9999107718467712,
        -0.9997307658195496,
        -0.9998363852500916
      ],
      "type": "VEC3"
    },
    {
      "bufferView": 3,
      "byteOffset": 584608,
      "componentType": 5126,
      "count": 24443,
      "max": [
        0.9997624158859253,
        0.9999725222587585,
        0.9995675086975098,
        1.0
      ],
      "min": [
        -0.9999489784240723,
        -0.9997429847717285,
        -0.9996501803398132,
        -1.0
      ],
      "type": "VEC4"
    },
    {
      "bufferView": 1,
      "byteOffset": 292304,
      "componentType": 5126,
      "count": 24443,
      "max": [
        0.9991000294685364,
        0.9962999820709229
      ],
      "min": [
        0.0008999999845400453,
        0.0008999999845400453
      ],
      "type": "VEC2"
    },
    {
      "bufferView": 0,
      "byteOffset": 550152,
      "componentType": 5125,
      "count": 129006,
      "type": "SCALAR"
    },
    {
      "bufferView": 2,
      "byteOffset": 1463544,
      "componentType": 5126,
      "count": 5238,
      "max": [
        0.4840260148048401,
        2.2758429050445557,
        0.5232189893722534
      ],
      "min": [
        -0.649740993976593,
        0.747327983379364,
        -0.521826982498169
      ],
      "type": "VEC3"
    },
    {
      "bufferView": 2,
      "byteOffset": 1526400,
      "componentType": 5126,
      "count": 5238,
      "max": [
        0.9999876022338867,
        0.9998210668563843,
        0.9996694326400757
      ],
      "min": [
        -0.999887228012085,
        -0.9999631643295288,
        -0.9999487400054932
      ],
      "type": "VEC3"
    },
    {
      "bufferView": 3,
      "byteOffset": 975696,
      "componentType": 5126,
      "count": 5238,
      "max": [
        0.9991629123687744,
        0.9999569058418274,
        0.9999688267707825,
        1.0
      ],
      "min": [
        -0.9999305605888367,
        -0.999948263168335,
        -0.9998763799667358,
        -1.0
      ],
      "type": "VEC4"
    },
    {
      "bufferView": 1,
      "byteOffset": 487848,
      "componentType": 5126,
      "count": 5238,
      "max": [
        0.9961000084877014,
        0.9980999827384949
      ],
      "min": [
        0.005499999970197678,
        0.006500000134110451
      ],
      "type": "VEC2"
    },
    {
      "bufferView": 0,
      "byteOffset": 1066176,
      "componentType": 5125,
      "count": 25542,
      "type": "SCALAR"
    },
    {
      "bufferView": 2,
      "byteOffset": 1589256,
      "componentType": 5126,
      "count": 13629,
      "max": [
        0.6736639738082886,
        2.3252549171447754,
        0.5341290235519409
      ],
      "min": [
        -0.8269469738006592,
        0.001500000013038516,
        -0.9195719957351685
      ],
      "type": "VEC3"
    },
    {
      "bufferView": 2,
      "byteOffset": 1752804,
      "componentType": 5126,
      "count": 13629,
      "max": [
        1.0,
        1.0,
        1.0
      ],
      "min": [
        -1.0,
        -1.0,
        -1.0
      ],
      "type": "VEC3"
    },
    {
      "bufferView": 3,
      "byteOffset": 1059504,
      "componentType": 5126,
      "count": 13629,
      "max": [
        0.9995149970054626,
        0.999804675579071,
        0.9992392063140869,
        1.0
      ],
      "min": [
        -0.9996561408042908,
        -0.9999390840530396,
        -0.9999781847000122,
        -1.0
      ],
      "type": "VEC4"
    },
    {
      "bufferView": 1,
      "byteOffset": 529752,
      "componentType": 5126,
      "count": 13629,
      "max": [
        0.9991000294685364,
        0.9973999857902527
      ],
      "min": [
        0.0008999999845400453,
        0.0008999999845400453
      ],
      "type": "VEC2"
    },
    {
      "bufferView": 0,
      "byteOffset": 1168344,
      "componentType": 5125,
      "count": 63666,
      "type": "SCALAR"
    }
  ],
  "asset": {
    "extras": {
      "author": "TooManyDemons (https://sketchfab.com/toomanydemons)",
      "license": "CC-BY-4.0 (http://creativecommons.org/licenses/by/4.0/)",
      "source": "https://sketchfab.com/3d-models/dreadroamer-b5de35069fd94e6eaf2309a38e6c6a8e",
      "title": "DreadRoamer"
    },
    "generator": "Sketchfab-12.66.0",
    "version": "2.0"
  },
  "bufferViews": [
    {
      "buffer": 0,
      "byteLength": 1423008,
      "name": "floatBufferViews",
      "target": 34963
    },
    {
      "buffer": 0,
      "byteLength": 638784,
      "byteOffset": 1423008,
      "byteStride": 8,
      "name": "floatBufferViews",
      "target": 34962
    },
    {
      "buffer": 0,
      "byteLength": 1916352,
      "byteOffset": 2061792,
      "byteStride": 12,
      "name": "floatBufferViews",
      "target": 34962
    },
    {
      "buffer": 0,
      "byteLength": 1277568,
      "byteOffset": 3978144,
      "byteStride": 16,
      "name": "floatBufferViews",
      "target": 34962
    }
  ],
  "buffers": [
    {
      "byteLength": 5255712,
      "uri": "scene.bin"
    }
  ],
  "images": [
    {
      "uri": "dreadroamer/Ground_baseColor.png"
    },
    {
      "uri": "dreadroamer/Ground_metallicRoughness.png"
    },
    {
      "uri": "dreadroamer/Ground_normal.png"
    },
    {
      "uri": "dreadroamer/MAT_Bullets.003_baseColor.png"
    },
    {
      "uri": "dreadroamer/MAT_Bullets.003_metallicRoughness.png"
    },
    {
      "uri": "dreadroamer/MAT_Bullets.003_normal.png"
    },
    {
      "uri": "dreadroamer/MAT_Mech2.003_baseColor.png"
    },
    {
      "uri": "dreadroamer/MAT_Mech2.003_metallicRoughness.png"
    },
    {
      "uri": "dreadroamer/MAT_Mech2.003_normal.png"
    },
    {
      "uri": "dreadroamer/MAT_Plating.003_baseColor.png"
    },
    {
      "uri": "dreadroamer/MAT_Plating.003_metallicRoughness.png"
    },
    {
      "uri": "dreadroamer/MAT_Plating.003_normal.png"
    },
    {
      "uri": "dreadroamer/MAT_Body.003_baseColor.png"
    },
    {
      "uri": "dreadroamer/MAT_Body.003_metallicRoughness.png"
    },
    {
      "uri": "dreadroamer/MAT_Body.003_emissive.png"
    },
    {
      "uri": "dreadroamer/MAT_Body.003_normal.png"
    },
    {
      "uri": "dreadroamer/MAT_Mech1.003_baseColor.png"
    },
    {
      "uri": "dreadroamer/MAT_Mech1.003_metallicRoughness.png"
    },
    {
      "uri": "dreadroamer/MAT_Mech1.003_normal.png"
    }
  ],
  "materials": [
    {
      "alphaMode": "BLEND",
      "doubleSided": true,
      "name": "Ground",
      "normalTexture": {
        "index": 2
      },
      "pbrMetallicRoughness": {
        "baseColorTexture": {
          "index": 0
        },
        "metallicRoughnessTexture": {
          "index": 1
        }
      }
    },
    {
      "name": "MAT_Bullets.003",
      "normalTexture": {
        "index": 5
      },
      "occlusionTexture": {
        "index": 4
      },
      "pbrMetallicRoughness": {
        "baseColorTexture": {
          "index": 3
        },
        "metallicRoughnessTexture": {
          "index": 4
        }
      }
    },
    {
      "name": "MAT_Mech2.003",
      "normalTexture": {
        "index": 8
      },
      "occlusionTexture": {
        "index": 7
      },
      "pbrMetallicRoughness": {
        "baseColorTexture": {
          "index": 6
        },
        "metallicRoughnessTexture": {
          "index": 7
        }
      }
    },
    {
      "name": "MAT_Plating.003",
      "normalTexture": {
        "index": 11
      },
      "occlusionTexture": {
        "index": 10
      },
      "pbrMetallicRoughness": {
        "baseColorTexture": {
          "index": 9
        },
        "metallicRoughnessTexture": {
          "index": 10
        }
      }
    },
    {
      "emissiveFactor": [
        1.0,
        1.0,
        1.0
      ],
      "emissiveTexture": {
        "index": 14
      },
      "name": "MAT_Body.003",
      "normalTexture": {
        "index": 15
      },
      "occlusionTexture": {
        "index": 13
      },
      "pbrMetallicRoughness": {
        "baseColorTexture": {
          "index": 12
        },
        "metallicRoughnessTexture": {
          "index": 13
        }
      }
    },
    {
      "name": "MAT_Mech1.003",
      "normalTexture": {
        "index": 18
      },
      "occlusionTexture": {
        "index": 17
      },
      "pbrMetallicRoughness": {
        "baseColorTexture": {
          "index": 16
        },
        "metallicRoughnessTexture": {
          "index": 17
        }
      }
    }
  ],
  "meshes": [
    {
      "name": "Plane_Ground_0",
      "primitives": [
        {
          "attributes": {
            "NORMAL": 1,
            "POSITION": 0,
            "TANGENT": 2,
            "TEXCOORD_0": 3
          },
          "indices": 4,
          "material": 0,
          "mode": 4
        }
      ]
    },
    {
      "name": "Body_Mesh.002_MAT_Bullets.003_0",
      "primitives": [
        {
          "attributes": {
            "NORMAL": 6,
            "POSITION": 5,
            "TANGENT": 7,
            "TEXCOORD_0": 8
          },
          "indices": 9,
          "material": 1,
          "mode": 4
        }
      ]
    },
    {
      "name": "Body_Mesh.002_MAT_Mech2.003_0",
      "primitives": [
        {
          "attributes": {
            "NORMAL": 11,
            "POSITION": 10,
            "TANGENT": 12,
            "TEXCOORD_0": 13
          },
          "indices": 14,
          "material": 2,
          "mode": 4
        }
      ]
    },
    {
      "name": "Body_Mesh.002_MAT_Plating.003_0",
      "primitives": [
        {
          "attributes": {
            "NORMAL": 16,
            "POSITION": 15,
            "TANGENT": 17,
            "TEXCOORD_0": 18
          },
          "indices": 19,
          "material": 3,
          "mode": 4
        }
      ]
    },
    {
      "name": "Body_Mesh.002_MAT_Body.003_0",
      "primitives": [
        {
          "attributes": {
            "NORMAL": 21,
            "POSITION": 20,
            "TANGENT": 22,
            "TEXCOORD_0": 23
          },
          "indices": 24,
          "material": 4,
          "mode": 4
        }
      ]
    },
    {
      "name": "Body_Mesh.002_MAT_Mech1.003_0",
      "primitives": [
        {
          "attributes": {
            "NORMAL": 26,
            "POSITION": 25,
            "TANGENT": 27,
            "TEXCOORD_0": 28
          },
          "indices": 29,
          "material": 5,
          "mode": 4
        }
      ]
    }
  ],
  "nodes": [
    {
      "children": [
        1
      ],
      "matrix": [
        0.01014101505279541,
        0.0,
        0.0,
        0.0,
        0.0,
        2.2517576809367524e-18,
        -0.01014101505279541,
        0.0,
        0.0,
        0.01014101505279541,
        2.2517576809367524e-18,
        0.0,
        0.0,
        0.0,
        0.0,
        1.0
      ],
      "name": "Sketchfab_model"
    },
    {
      "children": [
        2
      ],
      "matrix": [
        1.0,
        0.0,
        0.0,
        0.0,
        0.0,
        0.0,
        1.0,
        0.0,
        0.0,
        -1.0,
        0.0,
        0.0,
        0.0,
        0.0,
        0.0,
        1.0
      ],
      "name": "6bd3f300f474424893f9b31bdf371b7a.fbx"
    },
    {
      "children": [
        3,
        5
      ],
      "name": "RootNode"
    },
    {
      "children": [
        4
      ],
      "matrix": [
        190.0,
        0.0,
        0.0,
        0.0,
        0.0,
        -3.095492908444797e-05,
        -189.9999999999975,
        0.0,
        0.0,
        189.9999999999975,
        -3.095492908444797e-05,
        0.0,
        0.0,
        0.0,
        0.0,
        1.0
      ],
      "name": "Plane"
    },
    {
      "mesh": 0,
      "name": "Plane_Ground_0"
    },
    {
      "children": [
        6,
        7,
        8,
        9,
        10
      ],
      "matrix": [
        100.0,
        0.0,
        0.0,
        0.0,
        0.0,
        99.99999999999866,
        1.6292067073209114e-05,
        0.0,
        0.0,
        -1.6292067073209114e-05,
        99.99999999999866,
        0.0,
        0.0,
        0.0,
        0.0,
        1.0
      ],
      "name": "Body_Mesh.002"
    },
    {
      "mesh": 1,
      "name": "Body_Mesh.002_MAT_Bullets.003_0"
    },
    {
      "mesh": 2,
      "name": "Body_Mesh.002_MAT_Mech2.003_0"
    },
    {
      "mesh": 3,
      "name": "Body_Mesh.002_MAT_Plating.003_0"
    },
    {
      "mesh": 4,
      "name": "Body_Mesh.002_MAT_Body.003_0"
    },
    {
      "mesh": 5,
      "name": "Body_Mesh.002_MAT_Mech1.003_0"
    }
  ],
  "samplers": [
    {
      "magFilter": 9729,
      "minFilter": 9987,
      "wrapS": 10497,
      "wrapT": 10497
    }
  ],
  "scene": 0,
  "scenes": [
    {
      "name": "Sketchfab_Scene",
      "nodes": [
        0
      ]
    }
  ],
  "textures": [
    {
      "sampler": 0,
      "source": 0
    },
    {
      "sampler": 0,
      "source": 1
    },
    {
      "sampler": 0,
      "source": 2
    },
    {
      "sampler": 0,
      "source": 3
    },
    {
      "sampler": 0,
      "source": 4
    },
    {
      "sampler": 0,
      "source": 5
    },
    {
      "sampler": 0,
      "source": 6
    },
    {
      "sampler": 0,
      "source": 7
    },
    {
      "sampler": 0,
      "source": 8
    },
    {
      "sampler": 0,
      "source": 9
    },
    {
      "sampler": 0,
      "source": 10
    },
    {
      "sampler": 0,
      "source": 11
    },
    {
      "sampler": 0,
      "source": 12
    },
    {
      "sampler": 0,
      "source": 13
    },
    {
      "sampler": 0,
      "source": 14
    },
    {
      "sampler": 0,
      "source": 15
    },
    {
      "sampler": 0,
      "source": 16
    },
    {
      "sampler": 0,
      "source": 17
    },
    {
      "sampler": 0,
      "source": 18
    }
  ]
}
