{
	"asset":{
		"generator":"Khronos glTF Blender I/O v4.5.47",
		"version":"2.0"
	},
	"scene":0,
	"scenes":[
		{
			"name":"Scene",
			"nodes":[
				23
			]
		}
	],
	"nodes":[
		{
			"mesh":0,
			"name":"Object_5"
		},
		{
			"children":[
				0
			],
			"name":"01_leather_moto_helmet_002_2"
		},
		{
			"children":[
				1
			],
			"name":"01_leather_moto_helmet_003_0"
		},
		{
			"mesh":1,
			"name":"Object_7"
		},
		{
			"children":[
				3
			],
			"name":"Object001_3"
		},
		{
			"mesh":2,
			"name":"Object_9"
		},
		{
			"children":[
				5
			],
			"name":"Object002_4"
		},
		{
			"mesh":3,
			"name":"Object_11"
		},
		{
			"children":[
				7
			],
			"name":"Object003_5"
		},
		{
			"mesh":4,
			"name":"Object_13"
		},
		{
			"children":[
				9
			],
			"name":"Object004_6"
		},
		{
			"mesh":5,
			"name":"Object_15"
		},
		{
			"children":[
				11
			],
			"name":"Object005_7"
		},
		{
			"mesh":6,
			"name":"Object_17"
		},
		{
			"children":[
				13
			],
			"name":"Object006_8"
		},
		{
			"mesh":7,
			"name":"Object_19"
		},
		{
			"children":[
				15
			],
			"name":"Object007_9"
		},
		{
			"mesh":8,
			"name":"Object_21"
		},
		{
			"children":[
				17
			],
			"name":"Object008_10"
		},
		{
			"mesh":9,
			"name":"Object_23"
		},
		{
			"children":[
				19
			],
			"name":"Object009_11"
		},
		{
			"children":[
				2,
				4,
				6,
				8,
				10,
				12,
				14,
				16,
				18,
				20
			],
			"name":"GLTF_SceneRootNode"
		},
		{
			"children":[
				21
			],
			"name":"root",
			"rotation":[
				-0.6533768773078918,
				0.2703675925731659,
				-0.2703675627708435,
				0.6533769369125366
			]
		},
		{
			"children":[
				22
			],
			"name":"Sketchfab_model"
		}
	],
	"materials":[
		{
			"doubleSided":true,
			"name":"vray_Brass_Fingerprints.001",
			"pbrMetallicRoughness":{
				"baseColorFactor":[
					0.1333329975605011,
					0.09019610285758972,
					0.050980400294065475,
					1
				],
				"metallicRoughnessTexture":{
					"index":0
				},
				"roughnessFactor":0.5714303255081177
			}
		},
		{
			"doubleSided":true,
			"name":"vray_01_Leather.001",
			"normalTexture":{
				"index":1,
				"scale":0.8457168340682983
			},
			"pbrMetallicRoughness":{
				"baseColorTexture":{
					"index":2
				},
				"metallicFactor":0,
				"metallicRoughnessTexture":{
					"index":3
				},
				"roughnessFactor":0.05333349481225014
			}
		},
		{
			"doubleSided":true,
			"name":"vray_Leather_Full_Grain_Black.001",
			"pbrMetallicRoughness":{
				"baseColorTexture":{
					"index":4
				},
				"metallicFactor":0,
				"metallicRoughnessTexture":{
					"index":5
				},
				"roughnessFactor":0.36419159173965454
			}
		},
		{
			"doubleSided":true,
			"name":"Material_4.001",
			"pbrMetallicRoughness":{
				"baseColorFactor":[
					0,
					0,
					0,
					1
				],
				"metallicFactor":0,
				"roughnessFactor":0.6800000071525574
			}
		},
		{
			"doubleSided":true,
			"name":"vray_Acrylic_Opaque_Black_Dirty.001",
			"normalTexture":{
				"index":6,
				"scale":0.30000001192092896
			},
			"pbrMetallicRoughness":{
				"baseColorTexture":{
					"index":7
				},
				"metallicFactor":0,
				"roughnessFactor":0
			}
		}
	],
	"meshes":[
		{
			"name":"Object_0.001",
			"primitives":[
				{
					"attributes":{
						"POSITION":0,
						"NORMAL":1,
						"TEXCOORD_0":2,
						"TEXCOORD_1":3
					},
					"indices":4,
					"material":0
				}
			]
		},
		{
			"name":"Object_1.001",
			"primitives":[
				{
					"attributes":{
						"POSITION":5,
						"NORMAL":6,
						"TEXCOORD_0":7,
						"TEXCOORD_1":8,
						"TEXCOORD_2":9,
						"TEXCOORD_3":10
					},
					"indices":11,
					"material":1
				}
			]
		},
		{
			"name":"Object_2.001",
			"primitives":[
				{
					"attributes":{
						"POSITION":12,
						"NORMAL":13,
						"TEXCOORD_0":14,
						"TEXCOORD_1":15,
						"TEXCOORD_2":16
					},
					"indices":17,
					"material":2
				}
			]
		},
		{
			"name":"Object_3.001",
			"primitives":[
				{
					"attributes":{
						"POSITION":18,
						"NORMAL":19,
						"TEXCOORD_0":20
					},
					"indices":21,
					"material":3
				}
			]
		},
		{
			"name":"Object_4.001",
			"primitives":[
				{
					"attributes":{
						"POSITION":22,
						"NORMAL":23,
						"TEXCOORD_0":24,
						"TEXCOORD_1":25,
						"TEXCOORD_2":26,
						"TEXCOORD_3":27
					},
					"indices":28,
					"material":1
				}
			]
		},
		{
			"name":"Object_5.001",
			"primitives":[
				{
					"attributes":{
						"POSITION":29,
						"NORMAL":30,
						"TEXCOORD_0":31
					},
					"indices":32,
					"material":3
				}
			]
		},
		{
			"name":"Object_6.001",
			"primitives":[
				{
					"attributes":{
						"POSITION":33,
						"NORMAL":34,
						"TEXCOORD_0":35,
						"TEXCOORD_1":36
					},
					"indices":37,
					"material":0
				}
			]
		},
		{
			"name":"Object_7.001",
			"primitives":[
				{
					"attributes":{
						"POSITION":38,
						"NORMAL":39,
						"TEXCOORD_0":40,
						"TEXCOORD_1":41
					},
					"indices":42,
					"material":0
				}
			]
		},
		{
			"name":"Object_8.001",
			"primitives":[
				{
					"attributes":{
						"POSITION":43,
						"NORMAL":44,
						"TEXCOORD_0":45,
						"TEXCOORD_1":46
					},
					"indices":47,
					"material":4
				}
			]
		},
		{
			"name":"Object_9.001",
			"primitives":[
				{
					"attributes":{
						"POSITION":48,
						"NORMAL":49,
						"TEXCOORD_0":50,
						"TEXCOORD_1":51
					},
					"indices":52,
					"material":4
				}
			]
		}
	],
	"textures":[
		{
			"sampler":0,
			"source":0
		},
		{
			"sampler":0,
			"source":1
		},
		{
			"sampler":0,
			"source":2
		},
		{
			"sampler":0,
			"source":3
		},
		{
			"sampler":0,
			"source":4
		},
		{
			"sampler":0,
			"source":5
		},
		{
			"sampler":0,
			"source":6
		},
		{
			"sampler":0,
			"source":7
		}
	],
	"images":[
		{
			"mimeType":"image/png",
			"name":"vray_Brass_Fingerprints_metallicRoughness",
			"uri":"helmet/vray_Brass_Fingerprints_metallicRoughness.png"
		},
		{
			"mimeType":"image/png",
			"name":"vray_01_Leather_normal",
			"uri":"helmet/vray_01_Leather_normal.png"
		},
		{
			"mimeType":"image/png",
			"name":"vray_01_Leather_baseColor",
			"uri":"helmet/vray_01_Leather_baseColor.png"
		},
		{
			"mimeType":"image/png",
			"name":"vray_01_Leather_metallicRoughness",
			"uri":"helmet/vray_01_Leather_metallicRoughness.png"
		},
		{
			"mimeType":"image/png",
			"name":"vray_Leather_Full_Grain_Black_baseColor",
			"uri":"helmet/vray_Leather_Full_Grain_Black_baseColor.png"
		},
		{
			"mimeType":"image/png",
			"name":"vray_Leather_Full_Grain_Black_metallicRoughness",
			"uri":"helmet/vray_Leather_Full_Grain_Black_metallicRoughness.png"
		},
		{
			"mimeType":"image/png",
			"name":"vray_Acrylic_Opaque_Black_Dirty_normal",
			"uri":"helmet/vray_Acrylic_Opaque_Black_Dirty_normal.png"
		},
		{
			"mimeType":"image/png",
			"name":"vray_Acrylic_Opaque_Black_Dirty_baseColor",
			"uri":"helmet/vray_Acrylic_Opaque_Black_Dirty_baseColor.png"
		}
	],
	"accessors":[
		{
			"bufferView":0,
			"componentType":5126,
			"count":16941,
			"max":[
				0.31742632389068604,
				0.6638253927230835,
				0.3063352704048157
			],
			"min":[
				-0.30709224939346313,
				0.019987335428595543,
				-0.3181832730770111
			],
			"type":"VEC3"
		},
		{
			"bufferView":1,
			"componentType":5126,
			"count":16941,
			"type":"VEC3"
		},
		{
			"bufferView":2,
			"componentType":5126,
			"count":16941,
			"type":"VEC2"
		},
		{
			"bufferView":3,
			"componentType":5126,
			"count":16941,
			"type":"VEC2"
		},
		{
			"bufferView":4,
			"componentType":5123,
			"count":84192,
			"type":"SCALAR"
		},
		{
			"bufferView":5,
			"componentType":5126,
			"count":5164,
			"max":[
				0.3624722957611084,
				0.662484884262085,
				0.3068993389606476
			],
			"min":[
				-0.30765676498413086,
				0,
				-0.3632296621799469
			],
			"type":"VEC3"
		},
		{
			"bufferView":6,
			"componentType":5126,
			"count":5164,
			"type":"VEC3"
		},
		{
			"bufferView":7,
			"componentType":5126,
			"count":5164,
			"type":"VEC2"
		},
		{
			"bufferView":8,
			"componentType":5126,
			"count":5164,
			"type":"VEC2"
		},
		{
			"bufferView":9,
			"componentType":5126,
			"count":5164,
			"type":"VEC2"
		},
		{
			"bufferView":10,
			"componentType":5126,
			"count":5164,
			"type":"VEC2"
		},
		{
			"bufferView":11,
			"componentType":5123,
			"count":29376,
			"type":"SCALAR"
		},
		{
			"bufferView":12,
			"componentType":5126,
			"count":2787,
			"max":[
				0.19398555159568787,
				0.6422803997993469,
				0.2854889929294586
			],
			"min":[
				-0.2862458825111389,
				0.06269605457782745,
				-0.19474247097969055
			],
			"type":"VEC3"
		},
		{
			"bufferView":13,
			"componentType":5126,
			"count":2787,
			"type":"VEC3"
		},
		{
			"bufferView":14,
			"componentType":5126,
			"count":2787,
			"type":"VEC2"
		},
		{
			"bufferView":15,
			"componentType":5126,
			"count":2787,
			"type":"VEC2"
		},
		{
			"bufferView":16,
			"componentType":5126,
			"count":2787,
			"type":"VEC2"
		},
		{
			"bufferView":17,
			"componentType":5123,
			"count":12294,
			"type":"SCALAR"
		},
		{
			"bufferView":18,
			"componentType":5126,
			"count":5876,
			"max":[
				0.35313019156455994,
				0.4548441171646118,
				0.340535044670105
			],
			"min":[
				-0.3397776782512665,
				0.12843993306159973,
				-0.35388708114624023
			],
			"type":"VEC3"
		},
		{
			"bufferView":19,
			"componentType":5126,
			"count":5876,
			"type":"VEC3"
		},
		{
			"bufferView":20,
			"componentType":5126,
			"count":5876,
			"type":"VEC2"
		},
		{
			"bufferView":21,
			"componentType":5123,
			"count":31632,
			"type":"SCALAR"
		},
		{
			"bufferView":22,
			"componentType":5126,
			"count":5018,
			"max":[
				0.3176875412464142,
				0.6635655760765076,
				0.30833324790000916
			],
			"min":[
				-0.3085351288318634,
				0.004504299256950617,
				-0.3184445798397064
			],
			"type":"VEC3"
		},
		{
			"bufferView":23,
			"componentType":5126,
			"count":5018,
			"type":"VEC3"
		},
		{
			"bufferView":24,
			"componentType":5126,
			"count":5018,
			"type":"VEC2"
		},
		{
			"bufferView":25,
			"componentType":5126,
			"count":5018,
			"type":"VEC2"
		},
		{
			"bufferView":26,
			"componentType":5126,
			"count":5018,
			"type":"VEC2"
		},
		{
			"bufferView":27,
			"componentType":5126,
			"count":5018,
			"type":"VEC2"
		},
		{
			"bufferView":28,
			"componentType":5123,
			"count":27648,
			"type":"SCALAR"
		},
		{
			"bufferView":29,
			"componentType":5126,
			"count":2746,
			"max":[
				0.3148394227027893,
				0.5988367795944214,
				0.29315534234046936
			],
			"min":[
				-0.2920999526977539,
				0.006852912716567516,
				-0.31378406286239624
			],
			"type":"VEC3"
		},
		{
			"bufferView":30,
			"componentType":5126,
			"count":2746,
			"type":"VEC3"
		},
		{
			"bufferView":31,
			"componentType":5126,
			"count":2746,
			"type":"VEC2"
		},
		{
			"bufferView":32,
			"componentType":5123,
			"count":15744,
			"type":"SCALAR"
		},
		{
			"bufferView":33,
			"componentType":5126,
			"count":2305,
			"max":[
				-0.11871631443500519,
				0.44709426164627075,
				0.25081494450569153
			],
			"min":[
				-0.2500576376914978,
				0.418032705783844,
				0.11947360634803772
			],
			"type":"VEC3"
		},
		{
			"bufferView":34,
			"componentType":5126,
			"count":2305,
			"type":"VEC3"
		},
		{
			"bufferView":35,
			"componentType":5126,
			"count":2305,
			"type":"VEC2"
		},
		{
			"bufferView":36,
			"componentType":5126,
			"count":2305,
			"type":"VEC2"
		},
		{
			"bufferView":37,
			"componentType":5123,
			"count":13056,
			"type":"SCALAR"
		},
		{
			"bufferView":38,
			"componentType":5126,
			"count":10038,
			"max":[
				0.1029021218419075,
				0.3796502947807312,
				0.35756438970565796
			],
			"min":[
				-0.3580920994281769,
				0.3094140887260437,
				-0.10365905612707138
			],
			"type":"VEC3"
		},
		{
			"bufferView":39,
			"componentType":5126,
			"count":10038,
			"type":"VEC3"
		},
		{
			"bufferView":40,
			"componentType":5126,
			"count":10038,
			"type":"VEC2"
		},
		{
			"bufferView":41,
			"componentType":5126,
			"count":10038,
			"type":"VEC2"
		},
		{
			"bufferView":42,
			"componentType":5123,
			"count":56736,
			"type":"SCALAR"
		},
		{
			"bufferView":43,
			"componentType":5126,
			"count":4673,
			"max":[
				0.044090479612350464,
				0.45292776823043823,
				0.3632296621799469
			],
			"min":[
				-0.3624722957611084,
				0.22499209642410278,
				-0.04333316534757614
			],
			"type":"VEC3"
		},
		{
			"bufferView":44,
			"componentType":5126,
			"count":4673,
			"type":"VEC3"
		},
		{
			"bufferView":45,
			"componentType":5126,
			"count":4673,
			"type":"VEC2"
		},
		{
			"bufferView":46,
			"componentType":5126,
			"count":4673,
			"type":"VEC2"
		},
		{
			"bufferView":47,
			"componentType":5123,
			"count":26352,
			"type":"SCALAR"
		},
		{
			"bufferView":48,
			"componentType":5126,
			"count":2220,
			"max":[
				-0.0015922450693324208,
				0.4285534620285034,
				0.35382530093193054
			],
			"min":[
				-0.353067010641098,
				0.2592422366142273,
				0.002350501948967576
			],
			"type":"VEC3"
		},
		{
			"bufferView":49,
			"componentType":5126,
			"count":2220,
			"type":"VEC3"
		},
		{
			"bufferView":50,
			"componentType":5126,
			"count":2220,
			"type":"VEC2"
		},
		{
			"bufferView":51,
			"componentType":5126,
			"count":2220,
			"type":"VEC2"
		},
		{
			"bufferView":52,
			"componentType":5123,
			"count":12576,
			"type":"SCALAR"
		}
	],
	"bufferViews":[
		{
			"buffer":0,
			"byteLength":203292,
			"byteOffset":0,
			"target":34962
		},
		{
			"buffer":0,
			"byteLength":203292,
			"byteOffset":203292,
			"target":34962
		},
		{
			"buffer":0,
			"byteLength":135528,
			"byteOffset":406584,
			"target":34962
		},
		{
			"buffer":0,
			"byteLength":135528,
			"byteOffset":542112,
			"target":34962
		},
		{
			"buffer":0,
			"byteLength":168384,
			"byteOffset":677640,
			"target":34963
		},
		{
			"buffer":0,
			"byteLength":61968,
			"byteOffset":846024,
			"target":34962
		},
		{
			"buffer":0,
			"byteLength":61968,
			"byteOffset":907992,
			"target":34962
		},
		{
			"buffer":0,
			"byteLength":41312,
			"byteOffset":969960,
			"target":34962
		},
		{
			"buffer":0,
			"byteLength":41312,
			"byteOffset":1011272,
			"target":34962
		},
		{
			"buffer":0,
			"byteLength":41312,
			"byteOffset":1052584,
			"target":34962
		},
		{
			"buffer":0,
			"byteLength":41312,
			"byteOffset":1093896,
			"target":34962
		},
		{
			"buffer":0,
			"byteLength":58752,
			"byteOffset":1135208,
			"target":34963
		},
		{
			"buffer":0,
			"byteLength":33444,
			"byteOffset":1193960,
			"target":34962
		},
		{
			"buffer":0,
			"byteLength":33444,
			"byteOffset":1227404,
			"target":34962
		},
		{
			"buffer":0,
			"byteLength":22296,
			"byteOffset":1260848,
			"target":34962
		},
		{
			"buffer":0,
			"byteLength":22296,
			"byteOffset":1283144,
			"target":34962
		},
		{
			"buffer":0,
			"byteLength":22296,
			"byteOffset":1305440,
			"target":34962
		},
		{
			"buffer":0,
			"byteLength":24588,
			"byteOffset":1327736,
			"target":34963
		},
		{
			"buffer":0,
			"byteLength":70512,
			"byteOffset":1352324,
			"target":34962
		},
		{
			"buffer":0,
			"byteLength":70512,
			"byteOffset":1422836,
			"target":34962
		},
		{
			"buffer":0,
			"byteLength":47008,
			"byteOffset":1493348,
			"target":34962
		},
		{
			"buffer":0,
			"byteLength":63264,
			"byteOffset":1540356,
			"target":34963
		},
		{
			"buffer":0,
			"byteLength":60216,
			"byteOffset":1603620,
			"target":34962
		},
		{
			"buffer":0,
			"byteLength":60216,
			"byteOffset":1663836,
			"target":34962
		},
		{
			"buffer":0,
			"byteLength":40144,
			"byteOffset":1724052,
			"target":34962
		},
		{
			"buffer":0,
			"byteLength":40144,
			"byteOffset":1764196,
			"target":34962
		},
		{
			"buffer":0,
			"byteLength":40144,
			"byteOffset":1804340,
			"target":34962
		},
		{
			"buffer":0,
			"byteLength":40144,
			"byteOffset":1844484,
			"target":34962
		},
		{
			"buffer":0,
			"byteLength":55296,
			"byteOffset":1884628,
			"target":34963
		},
		{
			"buffer":0,
			"byteLength":32952,
			"byteOffset":1939924,
			"target":34962
		},
		{
			"buffer":0,
			"byteLength":32952,
			"byteOffset":1972876,
			"target":34962
		},
		{
			"buffer":0,
			"byteLength":21968,
			"byteOffset":2005828,
			"target":34962
		},
		{
			"buffer":0,
			"byteLength":31488,
			"byteOffset":2027796,
			"target":34963
		},
		{
			"buffer":0,
			"byteLength":27660,
			"byteOffset":2059284,
			"target":34962
		},
		{
			"buffer":0,
			"byteLength":27660,
			"byteOffset":2086944,
			"target":34962
		},
		{
			"buffer":0,
			"byteLength":18440,
			"byteOffset":2114604,
			"target":34962
		},
		{
			"buffer":0,
			"byteLength":18440,
			"byteOffset":2133044,
			"target":34962
		},
		{
			"buffer":0,
			"byteLength":26112,
			"byteOffset":2151484,
			"target":34963
		},
		{
			"buffer":0,
			"byteLength":120456,
			"byteOffset":2177596,
			"target":34962
		},
		{
			"buffer":0,
			"byteLength":120456,
			"byteOffset":2298052,
			"target":34962
		},
		{
			"buffer":0,
			"byteLength":80304,
			"byteOffset":2418508,
			"target":34962
		},
		{
			"buffer":0,
			"byteLength":80304,
			"byteOffset":2498812,
			"target":34962
		},
		{
			"buffer":0,
			"byteLength":113472,
			"byteOffset":2579116,
			"target":34963
		},
		{
			"buffer":0,
			"byteLength":56076,
			"byteOffset":2692588,
			"target":34962
		},
		{
			"buffer":0,
			"byteLength":56076,
			"byteOffset":2748664,
			"target":34962
		},
		{
			"buffer":0,
			"byteLength":37384,
			"byteOffset":2804740,
			"target":34962
		},
		{
			"buffer":0,
			"byteLength":37384,
			"byteOffset":2842124,
			"target":34962
		},
		{
			"buffer":0,
			"byteLength":52704,
			"byteOffset":2879508,
			"target":34963
		},
		{
			"buffer":0,
			"byteLength":26640,
			"byteOffset":2932212,
			"target":34962
		},
		{
			"buffer":0,
			"byteLength":26640,
			"byteOffset":2958852,
			"target":34962
		},
		{
			"buffer":0,
			"byteLength":17760,
			"byteOffset":2985492,
			"target":34962
		},
		{
			"buffer":0,
			"byteLength":17760,
			"byteOffset":3003252,
			"target":34962
		},
		{
			"buffer":0,
			"byteLength":25152,
			"byteOffset":3021012,
			"target":34963
		}
	],
	"samplers":[
		{
			"magFilter":9729,
			"minFilter":9987
		}
	],
	"buffers":[
		{
			"byteLength":3046164,
			"uri":"scene.bin"
		}
	]
}
