{
  "accessors": [
    {
      "bufferView": 2,
      "componentType": 5126,
      "count": 1556,
      "max": [
        3.5355300903320313,
        0.09859000146389008,
        0.14618000388145447
      ],
      "min": [
        -5.174860000610352,
        -1.6298999786376953,
        -2.4045701026916504
      ],
      "type": "VEC3"
    },
    {
      "bufferView": 2,
      "byteOffset": 18672,
      "componentType": 5126,
      "count": 1556,
      "max": [
        1.0,
        1.0,
        1.0
      ],
      "min": [
        -1.0,
        -1.0,
        -1.0
      ],
      "type": "VEC3"
    },
    {
      "bufferView": 0,
      "componentType": 5125,
      "count": 8748,
      "type": "SCALAR"
    },
    {
      "bufferView": 2,
      "byteOffset": 37344,
      "componentType": 5126,
      "count": 8827,
      "max": [
        12.094260215759277,
        105.7670669555664,
        -3.421260118484497
      ],
      "min": [
        -12.094260215759277,
        17.747989654541016,
        -14.708470344543457
      ],
      "type": "VEC3"
    },
    {
      "bufferView": 2,
      "byteOffset": 143268,
      "componentType": 5126,
      "count": 8827,
      "max": [
        1.0,
        1.0,
        1.0
      ],
      "min": [
        -1.0,
        -1.0,
        -0.0001500000071246177
      ],
      "type": "VEC3"
    },
    {
      "bufferView": 1,
      "componentType": 5126,
      "count": 8827,
      "max": [
        6.467810153961182,
        7.035359859466553
      ],
      "min": [
        0.42625001072883606,
        0.37070998549461365
      ],
      "type": "VEC2"
    },
    {
      "bufferView": 0,
      "byteOffset": 34992,
      "componentType": 5125,
      "count": 33480,
      "type": "SCALAR"
    },
    {
      "bufferView": 2,
      "byteOffset": 249192,
      "componentType": 5126,
      "count": 65532,
      "max": [
        2.297960042953491,
        1.3828500509262085,
        4.609489917755127
      ],
      "min": [
        -2.273329973220825,
        -1.562999963760376,
        3.2067201137542725
      ],
      "type": "VEC3"
    },
    {
      "bufferView": 2,
      "byteOffset": 1035576,
      "componentType": 5126,
      "count": 65532,
      "max": [
        1.0,
        1.0,
        1.0
      ],
      "min": [
        -1.0,
        -1.0,
        -1.0
      ],
      "type": "VEC3"
    },
    {
      "bufferView": 0,
      "byteOffset": 168912,
      "componentType": 5125,
      "count": 326577,
      "type": "SCALAR"
    },
    {
      "bufferView": 2,
      "byteOffset": 1821960,
      "componentType": 5126,
      "count": 32072,
      "max": [
        2.2798399925231934,
        1.7106399536132813,
        4.603439807891846
      ],
      "min": [
        -2.273329973220825,
        -1.9452999830245972,
        3.2277700901031494
      ],
      "type": "VEC3"
    },
    {
      "bufferView": 2,
      "byteOffset": 2206824,
      "componentType": 5126,
      "count": 32072,
      "max": [
        1.0,
        1.0,
        0.9999136328697205
      ],
      "min": [
        -1.0,
        -1.0,
        -0.9999675154685974
      ],
      "type": "VEC3"
    },
    {
      "bufferView": 0,
      "byteOffset": 1475220,
      "componentType": 5125,
      "count": 140235,
      "type": "SCALAR"
    },
    {
      "bufferView": 2,
      "byteOffset": 2591688,
      "componentType": 5126,
      "count": 13359,
      "max": [
        2.5866000652313232,
        3.4547200202941895,
        4.328979969024658
      ],
      "min": [
        -2.5866000652313232,
        -0.3481299877166748,
        2.974600076675415
      ],
      "type": "VEC3"
    },
    {
      "bufferView": 2,
      "byteOffset": 2751996,
      "componentType": 5126,
      "count": 13359,
      "max": [
        0.9999895095825195,
        0.9917741417884827,
        1.0
      ],
      "min": [
        -0.9999895095825195,
        -0.9917728900909424,
        -1.0
      ],
      "type": "VEC3"
    },
    {
      "bufferView": 0,
      "byteOffset": 2036160,
      "componentType": 5125,
      "count": 25242,
      "type": "SCALAR"
    },
    {
      "bufferView": 2,
      "byteOffset": 2912304,
      "componentType": 5126,
      "count": 12009,
      "max": [
        12.071029663085938,
        92.02828216552734,
        -5.9994797706604
      ],
      "min": [
        -12.071029663085938,
        17.71101951599121,
        -6.047729969024658
      ],
      "type": "VEC3"
    },
    {
      "bufferView": 2,
      "byteOffset": 3056412,
      "componentType": 5126,
      "count": 12009,
      "max": [
        0.8923458456993103,
        0.4811684191226959,
        1.0
      ],
      "min": [
        -0.9422533512115479,
        -0.47994107007980347,
        -0.9983632564544678
      ],
      "type": "VEC3"
    },
    {
      "bufferView": 1,
      "byteOffset": 70616,
      "componentType": 5126,
      "count": 12009,
      "max": [
        0.9999600052833557,
        0.16373999416828156
      ],
      "min": [
        3.9999998989515007e-05,
        3.9999998989515007e-05
      ],
      "type": "VEC2"
    },
    {
      "bufferView": 0,
      "byteOffset": 2137128,
      "componentType": 5125,
      "count": 70584,
      "type": "SCALAR"
    },
    {
      "bufferView": 2,
      "byteOffset": 3200520,
      "componentType": 5126,
      "count": 4492,
      "max": [
        2.0114800930023193,
        3.7565300464630127,
        1.8370000123977661
      ],
      "min": [
        -2.0108399391174316,
        3.6305699348449707,
        -0.7510899901390076
      ],
      "type": "VEC3"
    },
    {
      "bufferView": 2,
      "byteOffset": 3254424,
      "componentType": 5126,
      "count": 4492,
      "max": [
        1.0,
        1.0,
        1.0
      ],
      "min": [
        -1.0,
        -1.0,
        -1.0
      ],
      "type": "VEC3"
    },
    {
      "bufferView": 3,
      "componentType": 5126,
      "count": 4492,
      "max": [
        1.0,
        1.0,
        0.003390013473108411,
        1.0
      ],
      "min": [
        -0.9281322360038757,
        -0.1003403291106224,
        -0.0033700154162943363,
        -1.0
      ],
      "type": "VEC4"
    },
    {
      "bufferView": 1,
      "byteOffset": 166688,
      "componentType": 5126,
      "count": 4492,
      "max": [
        1.0,
        1.0
      ],
      "min": [
        0.0,
        0.0
      ],
      "type": "VEC2"
    },
    {
      "bufferView": 0,
      "byteOffset": 2419464,
      "componentType": 5125,
      "count": 10566,
      "type": "SCALAR"
    },
    {
      "bufferView": 2,
      "byteOffset": 3308328,
      "componentType": 5126,
      "count": 221,
      "max": [
        0.10614000260829926,
        0.08701000362634659,
        0.9819700121879578
      ],
      "min": [
        0.06752999871969223,
        -0.08431000262498856,
        -0.9872499704360962
      ],
      "type": "VEC3"
    },
    {
      "bufferView": 2,
      "byteOffset": 3310980,
      "componentType": 5126,
      "count": 221,
      "max": [
        -0.007450106553733349,
        0.9999520182609558,
        0.0
      ],
      "min": [
        -1.0,
        -0.9997231364250183,
        -0.9968538880348206
      ],
      "type": "VEC3"
    },
    {
      "bufferView": 1,
      "byteOffset": 202624,
      "componentType": 5126,
      "count": 221,
      "max": [
        0.7089499831199646,
        0.8851000070571899
      ],
      "min": [
        0.3474099934101105,
        0.11334999650716782
      ],
      "type": "VEC2"
    },
    {
      "bufferView": 0,
      "byteOffset": 2461728,
      "componentType": 5125,
      "count": 1152,
      "type": "SCALAR"
    },
    {
      "bufferView": 2,
      "byteOffset": 3313632,
      "componentType": 5126,
      "count": 2218,
      "max": [
        0.10614000260829926,
        0.09926000237464905,
        1.1857800483703613
      ],
      "min": [
        -0.04941000044345856,
        -0.10565999895334244,
        -1.1336899995803833
      ],
      "type": "VEC3"
    },
    {
      "bufferView": 2,
      "byteOffset": 3340248,
      "componentType": 5126,
      "count": 2218,
      "max": [
        0.3669946491718292,
        0.9999893307685852,
        0.9997896552085876
      ],
      "min": [
        -1.0,
        -0.9999732375144958,
        -0.9999875426292419
      ],
      "type": "VEC3"
    },
    {
      "bufferView": 3,
      "byteOffset": 71872,
      "componentType": 5126,
      "count": 2218,
      "max": [
        0.9996998906135559,
        0.80406254529953,
        0.998331606388092,
        1.0
      ],
      "min": [
        -0.9999216794967651,
        -0.9999958276748657,
        -0.998599648475647,
        -1.0
      ],
      "type": "VEC4"
    },
    {
      "bufferView": 1,
      "byteOffset": 204392,
      "componentType": 5126,
      "count": 2218,
      "max": [
        0.7585099935531616,
        0.9634100198745728
      ],
      "min": [
        0.3045499920845032,
        0.015390000306069851
      ],
      "type": "VEC2"
    },
    {
      "bufferView": 0,
      "byteOffset": 2466336,
      "componentType": 5125,
      "count": 12576,
      "type": "SCALAR"
    },
    {
      "bufferView": 2,
      "byteOffset": 3366864,
      "componentType": 5126,
      "count": 234,
      "max": [
        0.04879999905824661,
        0.08752000331878662,
        0.9836999773979187
      ],
      "min": [
        0.04879999905824661,
        -0.08453000336885452,
        -0.9926000237464905
      ],
      "type": "VEC3"
    },
    {
      "bufferView": 2,
      "byteOffset": 3369672,
      "componentType": 5126,
      "count": 234,
      "max": [
        -1.0,
        0.0,
        0.0
      ],
      "min": [
        -1.0,
        0.0,
        0.0
      ],
      "type": "VEC3"
    },
    {
      "bufferView": 1,
      "byteOffset": 222136,
      "componentType": 5126,
      "count": 234,
      "max": [
        0.396369993686676,
        0.7088599801063538
      ],
      "min": [
        0.37057000398635864,
        0.4088599979877472
      ],
      "type": "VEC2"
    },
    {
      "bufferView": 0,
      "byteOffset": 2516640,
      "componentType": 5125,
      "count": 1152,
      "type": "SCALAR"
    },
    {
      "bufferView": 2,
      "byteOffset": 3372480,
      "componentType": 5126,
      "count": 1556,
      "max": [
        5.444859981536865,
        0.8637800216674805,
        1.121000051498413
      ],
      "min": [
        -3.2655200958251953,
        -0.8647099733352661,
        -1.4297499656677246
      ],
      "type": "VEC3"
    },
    {
      "bufferView": 2,
      "byteOffset": 3391152,
      "componentType": 5126,
      "count": 1556,
      "max": [
        1.0,
        1.0,
        1.0
      ],
      "min": [
        -1.0,
        -1.0,
        -1.0
      ],
      "type": "VEC3"
    },
    {
      "bufferView": 0,
      "byteOffset": 2521248,
      "componentType": 5125,
      "count": 8748,
      "type": "SCALAR"
    },
    {
      "bufferView": 2,
      "byteOffset": 3409824,
      "componentType": 5126,
      "count": 1556,
      "max": [
        5.444859981536865,
        0.8637800216674805,
        1.121000051498413
      ],
      "min": [
        -3.2655200958251953,
        -0.8647099733352661,
        -1.4297499656677246
      ],
      "type": "VEC3"
    },
    {
      "bufferView": 2,
      "byteOffset": 3428496,
      "componentType": 5126,
      "count": 1556,
      "max": [
        1.0,
        1.0,
        1.0
      ],
      "min": [
        -1.0,
        -1.0,
        -1.0
      ],
      "type": "VEC3"
    },
    {
      "bufferView": 0,
      "byteOffset": 2556240,
      "componentType": 5125,
      "count": 8748,
      "type": "SCALAR"
    },
    {
      "bufferView": 2,
      "byteOffset": 3447168,
      "componentType": 5126,
      "count": 4,
      "max": [
        0.4667400121688843,
        0.5,
        0.0
      ],
      "min": [
        -0.4667400121688843,
        -0.5,
        0.0
      ],
      "type": "VEC3"
    },
    {
      "bufferView": 2,
      "byteOffset": 3447216,
      "componentType": 5126,
      "count": 4,
      "max": [
        0.0,
        0.0,
        1.0
      ],
      "min": [
        0.0,
        0.0,
        1.0
      ],
      "type": "VEC3"
    },
    {
      "bufferView": 1,
      "byteOffset": 224008,
      "componentType": 5126,
      "count": 4,
      "max": [
        1.0,
        1.0
      ],
      "min": [
        0.0,
        0.0
      ],
      "type": "VEC2"
    },
    {
      "bufferView": 0,
      "byteOffset": 2591232,
      "componentType": 5125,
      "count": 6,
      "type": "SCALAR"
    },
    {
      "bufferView": 2,
      "byteOffset": 3447264,
      "componentType": 5126,
      "count": 4,
      "max": [
        0.4667400121688843,
        0.5,
        0.0
      ],
      "min": [
        -0.4667400121688843,
        -0.5,
        0.0
      ],
      "type": "VEC3"
    },
    {
      "bufferView": 2,
      "byteOffset": 3447312,
      "componentType": 5126,
      "count": 4,
      "max": [
        0.0,
        0.0,
        1.0
      ],
      "min": [
        0.0,
        0.0,
        1.0
      ],
      "type": "VEC3"
    },
    {
      "bufferView": 1,
      "byteOffset": 224040,
      "componentType": 5126,
      "count": 4,
      "max": [
        1.0,
        1.0
      ],
      "min": [
        0.0,
        0.0
      ],
      "type": "VEC2"
    },
    {
      "bufferView": 0,
      "byteOffset": 2591256,
      "componentType": 5125,
      "count": 6,
      "type": "SCALAR"
    },
    {
      "bufferView": 2,
      "byteOffset": 3447360,
      "componentType": 5126,
      "count": 4,
      "max": [
        0.4667400121688843,
        0.5,
        0.0
      ],
      "min": [
        -0.4667400121688843,
        -0.5,
        0.0
      ],
      "type": "VEC3"
    },
    {
      "bufferView": 2,
      "byteOffset": 3447408,
      "componentType": 5126,
      "count": 4,
      "max": [
        0.0,
        0.0,
        1.0
      ],
      "min": [
        0.0,
        0.0,
        1.0
      ],
      "type": "VEC3"
    },
    {
      "bufferView": 1,
      "byteOffset": 224072,
      "componentType": 5126,
      "count": 4,
      "max": [
        1.0,
        1.0
      ],
      "min": [
        0.0,
        0.0
      ],
      "type": "VEC2"
    },
    {
      "bufferView": 0,
      "byteOffset": 2591280,
      "componentType": 5125,
      "count": 6,
      "type": "SCALAR"
    },
    {
      "bufferView": 2,
      "byteOffset": 3447456,
      "componentType": 5126,
      "count": 4,
      "max": [
        0.2561100125312805,
        0.5,
        0.0
      ],
      "min": [
        -0.2561100125312805,
        -0.5,
        0.0
      ],
      "type": "VEC3"
    },
    {
      "bufferView": 2,
      "byteOffset": 3447504,
      "componentType": 5126,
      "count": 4,
      "max": [
        0.0,
        0.0,
        1.0
      ],
      "min": [
        0.0,
        0.0,
        1.0
      ],
      "type": "VEC3"
    },
    {
      "bufferView": 1,
      "byteOffset": 224104,
      "componentType": 5126,
      "count": 4,
      "max": [
        1.0,
        1.0
      ],
      "min": [
        0.0,
        0.0
      ],
      "type": "VEC2"
    },
    {
      "bufferView": 0,
      "byteOffset": 2591304,
      "componentType": 5125,
      "count": 6,
      "type": "SCALAR"
    },
    {
      "bufferView": 2,
      "byteOffset": 3447552,
      "componentType": 5126,
      "count": 4,
      "max": [
        0.2561100125312805,
        0.5,
        0.0
      ],
      "min": [
        -0.2561100125312805,
        -0.5,
        0.0
      ],
      "type": "VEC3"
    },
    {
      "bufferView": 2,
      "byteOffset": 3447600,
      "componentType": 5126,
      "count": 4,
      "max": [
        0.0,
        0.0,
        1.0
      ],
      "min": [
        0.0,
        0.0,
        1.0
      ],
      "type": "VEC3"
    },
    {
      "bufferView": 1,
      "byteOffset": 224136,
      "componentType": 5126,
      "count": 4,
      "max": [
        1.0,
        1.0
      ],
      "min": [
        0.0,
        0.0
      ],
      "type": "VEC2"
    },
    {
      "bufferView": 0,
      "byteOffset": 2591328,
      "componentType": 5125,
      "count": 6,
      "type": "SCALAR"
    },
    {
      "bufferView": 2,
      "byteOffset": 3447648,
      "componentType": 5126,
      "count": 4,
      "max": [
        0.2561100125312805,
        0.5,
        0.0
      ],
      "min": [
        -0.2561100125312805,
        -0.5,
        0.0
      ],
      "type": "VEC3"
    },
    {
      "bufferView": 2,
      "byteOffset": 3447696,
      "componentType": 5126,
      "count": 4,
      "max": [
        0.0,
        0.0,
        1.0
      ],
      "min": [
        0.0,
        0.0,
        1.0
      ],
      "type": "VEC3"
    },
    {
      "bufferView": 1,
      "byteOffset": 224168,
      "componentType": 5126,
      "count": 4,
      "max": [
        1.0,
        1.0
      ],
      "min": [
        0.0,
        0.0
      ],
      "type": "VEC2"
    },
    {
      "bufferView": 0,
      "byteOffset": 2591352,
      "componentType": 5125,
      "count": 6,
      "type": "SCALAR"
    },
    {
      "bufferView": 2,
      "byteOffset": 3447744,
      "componentType": 5126,
      "count": 4,
      "max": [
        0.7497699856758118,
        0.5,
        0.0
      ],
      "min": [
        -0.7497699856758118,
        -0.5,
        0.0
      ],
      "type": "VEC3"
    },
    {
      "bufferView": 2,
      "byteOffset": 3447792,
      "componentType": 5126,
      "count": 4,
      "max": [
        0.0,
        0.0,
        1.0
      ],
      "min": [
        0.0,
        0.0,
        1.0
      ],
      "type": "VEC3"
    },
    {
      "bufferView": 1,
      "byteOffset": 224200,
      "componentType": 5126,
      "count": 4,
      "max": [
        1.0,
        1.0
      ],
      "min": [
        0.0,
        0.0
      ],
      "type": "VEC2"
    },
    {
      "bufferView": 0,
      "byteOffset": 2591376,
      "componentType": 5125,
      "count": 6,
      "type": "SCALAR"
    },
    {
      "bufferView": 2,
      "byteOffset": 3447840,
      "componentType": 5126,
      "count": 4,
      "max": [
        0.2561100125312805,
        0.5,
        0.0
      ],
      "min": [
        -0.2561100125312805,
        -0.5,
        0.0
      ],
      "type": "VEC3"
    },
    {
      "bufferView": 2,
      "byteOffset": 3447888,
      "componentType": 5126,
      "count": 4,
      "max": [
        0.0,
        0.0,
        1.0
      ],
      "min": [
        0.0,
        0.0,
        1.0
      ],
      "type": "VEC3"
    },
    {
      "bufferView": 1,
      "byteOffset": 224232,
      "componentType": 5126,
      "count": 4,
      "max": [
        1.0,
        1.0
      ],
      "min": [
        0.0,
        0.0
      ],
      "type": "VEC2"
    },
    {
      "bufferView": 0,
      "byteOffset": 2591400,
      "componentType": 5125,
      "count": 6,
      "type": "SCALAR"
    },
    {
      "bufferView": 2,
      "byteOffset": 3447936,
      "componentType": 5126,
      "count": 4,
      "max": [
        0.3311299979686737,
        0.5,
        0.0
      ],
      "min": [
        -0.3311299979686737,
        -0.5,
        0.0
      ],
      "type": "VEC3"
    },
    {
      "bufferView": 2,
      "byteOffset": 3447984,
      "componentType": 5126,
      "count": 4,
      "max": [
        0.0,
        0.0,
        1.0
      ],
      "min": [
        0.0,
        0.0,
        1.0
      ],
      "type": "VEC3"
    },
    {
      "bufferView": 1,
      "byteOffset": 224264,
      "componentType": 5126,
      "count": 4,
      "max": [
        1.0,
        1.0
      ],
      "min": [
        0.0,
        0.0
      ],
      "type": "VEC2"
    },
    {
      "bufferView": 0,
      "byteOffset": 2591424,
      "componentType": 5125,
      "count": 6,
      "type": "SCALAR"
    },
    {
      "bufferView": 2,
      "byteOffset": 3448032,
      "componentType": 5126,
      "count": 4,
      "max": [
        0.3311299979686737,
        0.5,
        0.0
      ],
      "min": [
        -0.3311299979686737,
        -0.5,
        0.0
      ],
      "type": "VEC3"
    },
    {
      "bufferView": 2,
      "byteOffset": 3448080,
      "componentType": 5126,
      "count": 4,
      "max": [
        0.0,
        0.0,
        1.0
      ],
      "min": [
        0.0,
        0.0,
        1.0
      ],
      "type": "VEC3"
    },
    {
      "bufferView": 1,
      "byteOffset": 224296,
      "componentType": 5126,
      "count": 4,
      "max": [
        1.0,
        1.0
      ],
      "min": [
        0.0,
        0.0
      ],
      "type": "VEC2"
    },
    {
      "bufferView": 0,
      "byteOffset": 2591448,
      "componentType": 5125,
      "count": 6,
      "type": "SCALAR"
    },
    {
      "bufferView": 2,
      "byteOffset": 3448128,
      "componentType": 5126,
      "count": 4,
      "max": [
        0.3311299979686737,
        0.5,
        0.0
      ],
      "min": [
        -0.3311299979686737,
        -0.5,
        0.0
      ],
      "type": "VEC3"
    },
    {
      "bufferView": 2,
      "byteOffset": 3448176,
      "componentType": 5126,
      "count": 4,
      "max": [
        0.0,
        0.0,
        1.0
      ],
      "min": [
        0.0,
        0.0,
        1.0
      ],
      "type": "VEC3"
    },
    {
      "bufferView": 1,
      "byteOffset": 224328,
      "componentType": 5126,
      "count": 4,
      "max": [
        1.0,
        1.0
      ],
      "min": [
        0.0,
        0.0
      ],
      "type": "VEC2"
    },
    {
      "bufferView": 0,
      "byteOffset": 2591472,
      "componentType": 5125,
      "count": 6,
      "type": "SCALAR"
    },
    {
      "bufferView": 2,
      "byteOffset": 3448224,
      "componentType": 5126,
      "count": 4,
      "max": [
        0.3311299979686737,
        0.5,
        0.0
      ],
      "min": [
        -0.3311299979686737,
        -0.5,
        0.0
      ],
      "type": "VEC3"
    },
    {
      "bufferView": 2,
      "byteOffset": 3448272,
      "componentType": 5126,
      "count": 4,
      "max": [
        0.0,
        0.0,
        1.0
      ],
      "min": [
        0.0,
        0.0,
        1.0
      ],
      "type": "VEC3"
    },
    {
      "bufferView": 1,
      "byteOffset": 224360,
      "componentType": 5126,
      "count": 4,
      "max": [
        1.0,
        1.0
      ],
      "min": [
        0.0,
        0.0
      ],
      "type": "VEC2"
    },
    {
      "bufferView": 0,
      "byteOffset": 2591496,
      "componentType": 5125,
      "count": 6,
      "type": "SCALAR"
    },
    {
      "bufferView": 2,
      "byteOffset": 3448320,
      "componentType": 5126,
      "count": 4,
      "max": [
        0.3311299979686737,
        0.5,
        0.0
      ],
      "min": [
        -0.3311299979686737,
        -0.5,
        0.0
      ],
      "type": "VEC3"
    },
    {
      "bufferView": 2,
      "byteOffset": 3448368,
      "componentType": 5126,
      "count": 4,
      "max": [
        0.0,
        0.0,
        1.0
      ],
      "min": [
        0.0,
        0.0,
        1.0
      ],
      "type": "VEC3"
    },
    {
      "bufferView": 1,
      "byteOffset": 224392,
      "componentType": 5126,
      "count": 4,
      "max": [
        1.0,
        1.0
      ],
      "min": [
        0.0,
        0.0
      ],
      "type": "VEC2"
    },
    {
      "bufferView": 0,
      "byteOffset": 2591520,
      "componentType": 5125,
      "count": 6,
      "type": "SCALAR"
    },
    {
      "bufferView": 2,
      "byteOffset": 3448416,
      "componentType": 5126,
      "count": 4,
      "max": [
        0.3311299979686737,
        0.5,
        0.0
      ],
      "min": [
        -0.3311299979686737,
        -0.5,
        0.0
      ],
      "type": "VEC3"
    },
    {
      "bufferView": 2,
      "byteOffset": 3448464,
      "componentType": 5126,
      "count": 4,
      "max": [
        0.0,
        0.0,
        1.0
      ],
      "min": [
        0.0,
        0.0,
        1.0
      ],
      "type": "VEC3"
    },
    {
      "bufferView": 1,
      "byteOffset": 224424,
      "componentType": 5126,
      "count": 4,
      "max": [
        1.0,
        1.0
      ],
      "min": [
        0.0,
        0.0
      ],
      "type": "VEC2"
    },
    {
      "bufferView": 0,
      "byteOffset": 2591544,
      "componentType": 5125,
      "count": 6,
      "type": "SCALAR"
    },
    {
      "bufferView": 2,
      "byteOffset": 3448512,
      "componentType": 5126,
      "count": 4,
      "max": [
        0.3311299979686737,
        0.5,
        0.0
      ],
      "min": [
        -0.3311299979686737,
        -0.5,
        0.0
      ],
      "type": "VEC3"
    },
    {
      "bufferView": 2,
      "byteOffset": 3448560,
      "componentType": 5126,
      "count": 4,
      "max": [
        0.0,
        0.0,
        1.0
      ],
      "min": [
        0.0,
        0.0,
        1.0
      ],
      "type": "VEC3"
    },
    {
      "bufferView": 1,
      "byteOffset": 224456,
      "componentType": 5126,
      "count": 4,
      "max": [
        1.0,
        1.0
      ],
      "min": [
        0.0,
        0.0
      ],
      "type": "VEC2"
    },
    {
      "bufferView": 0,
      "byteOffset": 2591568,
      "componentType": 5125,
      "count": 6,
      "type": "SCALAR"
    },
    {
      "bufferView": 2,
      "byteOffset": 3448608,
      "componentType": 5126,
      "count": 4,
      "max": [
        0.2561100125312805,
        0.5,
        0.0
      ],
      "min": [
        -0.2561100125312805,
        -0.5,
        0.0
      ],
      "type": "VEC3"
    },
    {
      "bufferView": 2,
      "byteOffset": 3448656,
      "componentType": 5126,
      "count": 4,
      "max": [
        0.0,
        0.0,
        1.0
      ],
      "min": [
        0.0,
        0.0,
        1.0
      ],
      "type": "VEC3"
    },
    {
      "bufferView": 1,
      "byteOffset": 224488,
      "componentType": 5126,
      "count": 4,
      "max": [
        1.0,
        1.0
      ],
      "min": [
        0.0,
        0.0
      ],
      "type": "VEC2"
    },
    {
      "bufferView": 0,
      "byteOffset": 2591592,
      "componentType": 5125,
      "count": 6,
      "type": "SCALAR"
    },
    {
      "bufferView": 2,
      "byteOffset": 3448704,
      "componentType": 5126,
      "count": 4,
      "max": [
        0.2561100125312805,
        0.5,
        0.0
      ],
      "min": [
        -0.2561100125312805,
        -0.5,
        0.0
      ],
      "type": "VEC3"
    },
    {
      "bufferView": 2,
      "byteOffset": 3448752,
      "componentType": 5126,
      "count": 4,
      "max": [
        0.0,
        0.0,
        1.0
      ],
      "min": [
        0.0,
        0.0,
        1.0
      ],
      "type": "VEC3"
    },
    {
      "bufferView": 1,
      "byteOffset": 224520,
      "componentType": 5126,
      "count": 4,
      "max": [
        1.0,
        1.0
      ],
      "min": [
        0.0,
        0.0
      ],
      "type": "VEC2"
    },
    {
      "bufferView": 0,
      "byteOffset": 2591616,
      "componentType": 5125,
      "count": 6,
      "type": "SCALAR"
    },
    {
      "bufferView": 2,
      "byteOffset": 3448800,
      "componentType": 5126,
      "count": 2276,
      "max": [
        1.122040033340454,
        9.551019668579102,
        -0.21201999485492706
      ],
      "min": [
        -1.0336799621582031,
        -0.546750009059906,
        -9.854479789733887
      ],
      "type": "VEC3"
    },
    {
      "bufferView": 2,
      "byteOffset": 3476112,
      "componentType": 5126,
      "count": 2276,
      "max": [
        1.0,
        1.0,
        1.0
      ],
      "min": [
        -1.0,
        -1.0,
        -1.0
      ],
      "type": "VEC3"
    },
    {
      "bufferView": 1,
      "byteOffset": 224552,
      "componentType": 5126,
      "count": 2276,
      "max": [
        0.7376800179481506,
        0.9613800048828125
      ],
      "min": [
        0.33296000957489014,
        0.038759998977184296
      ],
      "type": "VEC2"
    },
    {
      "bufferView": 0,
      "byteOffset": 2591640,
      "componentType": 5125,
      "count": 12672,
      "type": "SCALAR"
    },
    {
      "bufferView": 2,
      "byteOffset": 3503424,
      "componentType": 5126,
      "count": 1676,
      "max": [
        0.8847200274467468,
        2.412750005722046,
        -1.4279899597167969
      ],
      "min": [
        -0.8969500064849854,
        -0.4698599874973297,
        -9.47389030456543
      ],
      "type": "VEC3"
    },
    {
      "bufferView": 2,
      "byteOffset": 3523536,
      "componentType": 5126,
      "count": 1676,
      "max": [
        1.0,
        1.0,
        1.0
      ],
      "min": [
        -1.0,
        -1.0,
        -0.8418295383453369
      ],
      "type": "VEC3"
    },
    {
      "bufferView": 1,
      "byteOffset": 242760,
      "componentType": 5126,
      "count": 1676,
      "max": [
        0.7063599824905396,
        0.6039100289344788
      ],
      "min": [
        0.3449299931526184,
        0.03874000161886215
      ],
      "type": "VEC2"
    },
    {
      "bufferView": 0,
      "byteOffset": 2642328,
      "componentType": 5125,
      "count": 9216,
      "type": "SCALAR"
    },
    {
      "bufferView": 2,
      "byteOffset": 3543648,
      "componentType": 5126,
      "count": 8118,
      "max": [
        0.768530011177063,
        0.024450000375509262,
        0.4388599991798401
      ],
      "min": [
        -0.7712900042533875,
        -0.3058300018310547,
        -0.39598000049591064
      ],
      "type": "VEC3"
    },
    {
      "bufferView": 2,
      "byteOffset": 3641064,
      "componentType": 5126,
      "count": 8118,
      "max": [
        1.0,
        1.0,
        1.0
      ],
      "min": [
        -1.0,
        -1.0,
        -1.0
      ],
      "type": "VEC3"
    },
    {
      "bufferView": 1,
      "byteOffset": 256168,
      "componentType": 5126,
      "count": 8118,
      "max": [
        0.6764000058174133,
        0.5253400206565857
      ],
      "min": [
        0.37358999252319336,
        0.46757999062538147
      ],
      "type": "VEC2"
    },
    {
      "bufferView": 0,
      "byteOffset": 2679192,
      "componentType": 5125,
      "count": 47424,
      "type": "SCALAR"
    },
    {
      "bufferView": 2,
      "byteOffset": 3738480,
      "componentType": 5126,
      "count": 8832,
      "max": [
        40.23899841308594,
        157.70123291015625,
        6.247779846191406
      ],
      "min": [
        -40.23899841308594,
        78.20072937011719,
        3.957819938659668
      ],
      "type": "VEC3"
    },
    {
      "bufferView": 2,
      "byteOffset": 3844464,
      "componentType": 5126,
      "count": 8832,
      "max": [
        1.0,
        1.0,
        1.0
      ],
      "min": [
        -1.0,
        -1.0,
        -1.0
      ],
      "type": "VEC3"
    },
    {
      "bufferView": 0,
      "byteOffset": 2868888,
      "componentType": 5125,
      "count": 52944,
      "type": "SCALAR"
    },
    {
      "bufferView": 2,
      "byteOffset": 3950448,
      "componentType": 5126,
      "count": 1928,
      "max": [
        39.99932861328125,
        157.47972106933594,
        6.203310012817383
      ],
      "min": [
        -39.99932861328125,
        78.34600830078125,
        4.002200126647949
      ],
      "type": "VEC3"
    },
    {
      "bufferView": 2,
      "byteOffset": 3973584,
      "componentType": 5126,
      "count": 1928,
      "max": [
        1.0,
        1.0,
        1.0
      ],
      "min": [
        -1.0,
        -1.0,
        -1.0
      ],
      "type": "VEC3"
    },
    {
      "bufferView": 0,
      "byteOffset": 3080664,
      "componentType": 5125,
      "count": 11520,
      "type": "SCALAR"
    },
    {
      "bufferView": 2,
      "byteOffset": 3996720,
      "componentType": 5126,
      "count": 8832,
      "max": [
        40.23899841308594,
        155.87879943847656,
        6.332819938659668
      ],
      "min": [
        -40.23899841308594,
        78.20072937011719,
        3.8727500438690186
      ],
      "type": "VEC3"
    },
    {
      "bufferView": 2,
      "byteOffset": 4102704,
      "componentType": 5126,
      "count": 8832,
      "max": [
        1.0,
        1.0,
        1.0
      ],
      "min": [
        -1.0,
        -1.0,
        -1.0
      ],
      "type": "VEC3"
    },
    {
      "bufferView": 0,
      "byteOffset": 3126744,
      "componentType": 5125,
      "count": 52944,
      "type": "SCALAR"
    },
    {
      "bufferView": 2,
      "byteOffset": 4208688,
      "componentType": 5126,
      "count": 1928,
      "max": [
        39.99932861328125,
        155.65728759765625,
        6.285009860992432
      ],
      "min": [
        -39.99932861328125,
        78.34600830078125,
        3.9203898906707764
      ],
      "type": "VEC3"
    },
    {
      "bufferView": 2,
      "byteOffset": 4231824,
      "componentType": 5126,
      "count": 1928,
      "max": [
        1.0,
        1.0,
        1.0
      ],
      "min": [
        -1.0,
        -1.0,
        -1.0
      ],
      "type": "VEC3"
    },
    {
      "bufferView": 0,
      "byteOffset": 3338520,
      "componentType": 5125,
      "count": 11520,
      "type": "SCALAR"
    },
    {
      "bufferView": 2,
      "byteOffset": 4254960,
      "componentType": 5126,
      "count": 221,
      "max": [
        0.10614000260829926,
        0.08701000362634659,
        0.9819700121879578
      ],
      "min": [
        0.06752999871969223,
        -0.08431000262498856,
        -0.9872499704360962
      ],
      "type": "VEC3"
    },
    {
      "bufferView": 2,
      "byteOffset": 4257612,
      "componentType": 5126,
      "count": 221,
      "max": [
        -0.007450106553733349,
        0.9999520182609558,
        0.0
      ],
      "min": [
        -1.0,
        -0.9997231364250183,
        -0.9968538880348206
      ],
      "type": "VEC3"
    },
    {
      "bufferView": 1,
      "byteOffset": 321112,
      "componentType": 5126,
      "count": 221,
      "max": [
        0.6874499917030334,
        0.9023000001907349
      ],
      "min": [
        0.3259100019931793,
        0.13054999709129333
      ],
      "type": "VEC2"
    },
    {
      "bufferView": 0,
      "byteOffset": 3384600,
      "componentType": 5125,
      "count": 1152,
      "type": "SCALAR"
    },
    {
      "bufferView": 2,
      "byteOffset": 4260264,
      "componentType": 5126,
      "count": 2218,
      "max": [
        0.10614000260829926,
        0.09926000237464905,
        1.1857800483703613
      ],
      "min": [
        -0.04941000044345856,
        -0.10565999895334244,
        -1.1336899995803833
      ],
      "type": "VEC3"
    },
    {
      "bufferView": 2,
      "byteOffset": 4286880,
      "componentType": 5126,
      "count": 2218,
      "max": [
        0.3669946491718292,
        0.9999893307685852,
        0.9997896552085876
      ],
      "min": [
        -1.0,
        -0.9999732375144958,
        -0.9999875426292419
      ],
      "type": "VEC3"
    },
    {
      "bufferView": 3,
      "byteOffset": 107360,
      "componentType": 5126,
      "count": 2218,
      "max": [
        0.9996998906135559,
        0.7983472347259521,
        0.9982174634933472,
        1.0
      ],
      "min": [
        -0.9999216794967651,
        -0.9999959468841553,
        -0.9986509680747986,
        -1.0
      ],
      "type": "VEC4"
    },
    {
      "bufferView": 1,
      "byteOffset": 322880,
      "componentType": 5126,
      "count": 2218,
      "max": [
        0.7370100021362305,
        0.9806100130081177
      ],
      "min": [
        0.283050000667572,
        0.032590001821517944
      ],
      "type": "VEC2"
    },
    {
      "bufferView": 0,
      "byteOffset": 3389208,
      "componentType": 5125,
      "count": 12576,
      "type": "SCALAR"
    },
    {
      "bufferView": 2,
      "byteOffset": 4313496,
      "componentType": 5126,
      "count": 234,
      "max": [
        0.04879999905824661,
        0.08752000331878662,
        0.9836999773979187
      ],
      "min": [
        0.04879999905824661,
        -0.08453000336885452,
        -0.9926000237464905
      ],
      "type": "VEC3"
    },
    {
      "bufferView": 2,
      "byteOffset": 4316304,
      "componentType": 5126,
      "count": 234,
      "max": [
        -1.0,
        0.0,
        0.0
      ],
      "min": [
        -1.0,
        0.0,
        0.0
      ],
      "type": "VEC3"
    },
    {
      "bufferView": 1,
      "byteOffset": 340624,
      "componentType": 5126,
      "count": 234,
      "max": [
        0.3748700022697449,
        0.726069986820221
      ],
      "min": [
        0.3490700125694275,
        0.4260700047016144
      ],
      "type": "VEC2"
    },
    {
      "bufferView": 0,
      "byteOffset": 3439512,
      "componentType": 5125,
      "count": 1152,
      "type": "SCALAR"
    },
    {
      "bufferView": 2,
      "byteOffset": 4319112,
      "componentType": 5126,
      "count": 221,
      "max": [
        0.10614000260829926,
        0.08701000362634659,
        0.9819700121879578
      ],
      "min": [
        0.06752999871969223,
        -0.08431000262498856,
        -0.9872499704360962
      ],
      "type": "VEC3"
    },
    {
      "bufferView": 2,
      "byteOffset": 4321764,
      "componentType": 5126,
      "count": 221,
      "max": [
        -0.007450106553733349,
        0.9999520182609558,
        0.0
      ],
      "min": [
        -1.0,
        -0.9997231364250183,
        -0.9968538880348206
      ],
      "type": "VEC3"
    },
    {
      "bufferView": 1,
      "byteOffset": 342496,
      "componentType": 5126,
      "count": 221,
      "max": [
        0.6677700281143188,
        0.8712000250816345
      ],
      "min": [
        0.31345999240875244,
        0.11486999690532684
      ],
      "type": "VEC2"
    },
    {
      "bufferView": 0,
      "byteOffset": 3444120,
      "componentType": 5125,
      "count": 1152,
      "type": "SCALAR"
    },
    {
      "bufferView": 2,
      "byteOffset": 4324416,
      "componentType": 5126,
      "count": 2218,
      "max": [
        0.10614000260829926,
        0.09926000237464905,
        1.1857800483703613
      ],
      "min": [
        -0.04941000044345856,
        -0.10565999895334244,
        -1.1336899995803833
      ],
      "type": "VEC3"
    },
    {
      "bufferView": 2,
      "byteOffset": 4351032,
      "componentType": 5126,
      "count": 2218,
      "max": [
        0.3669946491718292,
        0.9999893307685852,
        0.9997896552085876
      ],
      "min": [
        -1.0,
        -0.9999732375144958,
        -0.9999875426292419
      ],
      "type": "VEC3"
    },
    {
      "bufferView": 3,
      "byteOffset": 142848,
      "componentType": 5126,
      "count": 2218,
      "max": [
        0.9996930956840515,
        0.7003427147865295,
        0.9982953667640686,
        1.0
      ],
      "min": [
        -0.9999210238456726,
        -0.9999961853027344,
        -0.998619019985199,
        -1.0
      ],
      "type": "VEC4"
    },
    {
      "bufferView": 1,
      "byteOffset": 344264,
      "componentType": 5126,
      "count": 2218,
      "max": [
        0.7163400053977966,
        0.9479399919509888
      ],
      "min": [
        0.27145999670028687,
        0.018869999796152115
      ],
      "type": "VEC2"
    },
    {
      "bufferView": 0,
      "byteOffset": 3448728,
      "componentType": 5125,
      "count": 12576,
      "type": "SCALAR"
    },
    {
      "bufferView": 2,
      "byteOffset": 4377648,
      "componentType": 5126,
      "count": 234,
      "max": [
        0.04879999905824661,
        0.08752000331878662,
        0.9836999773979187
      ],
      "min": [
        0.04879999905824661,
        -0.08453000336885452,
        -0.9926000237464905
      ],
      "type": "VEC3"
    },
    {
      "bufferView": 2,
      "byteOffset": 4380456,
      "componentType": 5126,
      "count": 234,
      "max": [
        -1.0,
        0.0,
        0.0
      ],
      "min": [
        -1.0,
        0.0,
        0.0
      ],
      "type": "VEC3"
    },
    {
      "bufferView": 1,
      "byteOffset": 362008,
      "componentType": 5126,
      "count": 234,
      "max": [
        0.3614499866962433,
        0.6984800100326538
      ],
      "min": [
        0.33616000413894653,
        0.4044800102710724
      ],
      "type": "VEC2"
    },
    {
      "bufferView": 0,
      "byteOffset": 3499032,
      "componentType": 5125,
      "count": 1152,
      "type": "SCALAR"
    },
    {
      "bufferView": 2,
      "byteOffset": 4383264,
      "componentType": 5126,
      "count": 1180,
      "max": [
        2.1865999698638916,
        3.4586100578308105,
        4.261559963226318
      ],
      "min": [
        -2.1865999698638916,
        -0.19769999384880066,
        3.043179988861084
      ],
      "type": "VEC3"
    },
    {
      "bufferView": 2,
      "byteOffset": 4397424,
      "componentType": 5126,
      "count": 1180,
      "max": [
        0.8959614634513855,
        0.8408852815628052,
        0.9999899864196777
      ],
      "min": [
        -0.8959614634513855,
        -0.8448519110679626,
        -0.9999985694885254
      ],
      "type": "VEC3"
    },
    {
      "bufferView": 0,
      "byteOffset": 3503640,
      "componentType": 5125,
      "count": 2832,
      "type": "SCALAR"
    },
    {
      "bufferView": 2,
      "byteOffset": 4411584,
      "componentType": 5126,
      "count": 65532,
      "max": [
        31.18634033203125,
        107.96666717529297,
        16.878419876098633
      ],
      "min": [
        -25.990449905395508,
        -5.5,
        -5.800189971923828
      ],
      "type": "VEC3"
    },
    {
      "bufferView": 2,
      "byteOffset": 5197968,
      "componentType": 5126,
      "count": 65532,
      "max": [
        1.0,
        1.0,
        1.0
      ],
      "min": [
        -1.0,
        -1.0,
        -1.0
      ],
      "type": "VEC3"
    },
    {
      "bufferView": 3,
      "byteOffset": 178336,
      "componentType": 5126,
      "count": 65532,
      "max": [
        1.0,
        1.0,
        1.0,
        1.0
      ],
      "min": [
        -0.9991293549537659,
        -1.0,
        -1.0,
        -1.0
      ],
      "type": "VEC4"
    },
    {
      "bufferView": 1,
      "byteOffset": 363880,
      "componentType": 5126,
      "count": 65532,
      "max": [
        7.2286601066589355,
        7.902200222015381
      ],
      "min": [
        -2.7217400074005127,
        -0.01006999984383583
      ],
      "type": "VEC2"
    },
    {
      "bufferView": 0,
      "byteOffset": 3514968,
      "componentType": 5125,
      "count": 348804,
      "type": "SCALAR"
    },
    {
      "bufferView": 2,
      "byteOffset": 5984352,
      "componentType": 5126,
      "count": 34496,
      "max": [
        31.336950302124023,
        110.02071380615234,
        16.86100959777832
      ],
      "min": [
        -25.990449905395508,
        -5.5,
        -5.800189971923828
      ],
      "type": "VEC3"
    },
    {
      "bufferView": 2,
      "byteOffset": 6398304,
      "componentType": 5126,
      "count": 34496,
      "max": [
        1.0,
        1.0,
        1.0
      ],
      "min": [
        -1.0,
        -1.0,
        -1.0
      ],
      "type": "VEC3"
    },
    {
      "bufferView": 3,
      "byteOffset": 1226848,
      "componentType": 5126,
      "count": 34496,
      "max": [
        1.0,
        1.0,
        0.9998880624771118,
        1.0
      ],
      "min": [
        -0.9978150129318237,
        -1.0,
        -0.9999103546142578,
        -1.0
      ],
      "type": "VEC4"
    },
    {
      "bufferView": 1,
      "byteOffset": 888136,
      "componentType": 5126,
      "count": 34496,
      "max": [
        7.2286601066589355,
        7.902200222015381
      ],
      "min": [
        -2.416069984436035,
        -0.07011000066995621
      ],
      "type": "VEC2"
    },
    {
      "bufferView": 0,
      "byteOffset": 4910184,
      "componentType": 5125,
      "count": 155148,
      "type": "SCALAR"
    },
    {
      "bufferView": 2,
      "byteOffset": 6812256,
      "componentType": 5126,
      "count": 9540,
      "max": [
        24.469379425048828,
        101.63252258300781,
        13.46405029296875
      ],
      "min": [
        -24.469379425048828,
        1.0095000267028809,
        13.302359580993652
      ],
      "type": "VEC3"
    },
    {
      "bufferView": 2,
      "byteOffset": 6926736,
      "componentType": 5126,
      "count": 9540,
      "max": [
        1.0,
        1.0,
        0.0008200201555155218
      ],
      "min": [
        -1.0,
        -1.0,
        -1.0
      ],
      "type": "VEC3"
    },
    {
      "bufferView": 3,
      "byteOffset": 1778784,
      "componentType": 5126,
      "count": 9540,
      "max": [
        1.0,
        1.0,
        1.0,
        1.0
      ],
      "min": [
        -1.0,
        -1.0,
        -1.0,
        -1.0
      ],
      "type": "VEC4"
    },
    {
      "bufferView": 1,
      "byteOffset": 1164104,
      "componentType": 5126,
      "count": 9540,
      "max": [
        0.7531700134277344,
        0.9863899946212769
      ],
      "min": [
        0.3153899908065796,
        0.02222999930381775
      ],
      "type": "VEC2"
    },
    {
      "bufferView": 0,
      "byteOffset": 5530776,
      "componentType": 5125,
      "count": 53376,
      "type": "SCALAR"
    },
    {
      "bufferView": 2,
      "byteOffset": 7041216,
      "componentType": 5126,
      "count": 1457,
      "max": [
        29.974990844726563,
        93.52261352539063,
        -5.800189971923828
      ],
      "min": [
        -25.990449905395508,
        -5.5,
        -6.0888800621032715
      ],
      "type": "VEC3"
    },
    {
      "bufferView": 2,
      "byteOffset": 7058700,
      "componentType": 5126,
      "count": 1457,
      "max": [
        1.0,
        1.0,
        1.0
      ],
      "min": [
        -1.0,
        -1.0,
        -0.8368480801582336
      ],
      "type": "VEC3"
    },
    {
      "bufferView": 3,
      "byteOffset": 1931424,
      "componentType": 5126,
      "count": 1457,
      "max": [
        1.0,
        1.0,
        1.0,
        1.0
      ],
      "min": [
        -0.657469630241394,
        -1.0,
        -1.0,
        -1.0
      ],
      "type": "VEC4"
    },
    {
      "bufferView": 1,
      "byteOffset": 1240424,
      "componentType": 5126,
      "count": 1457,
      "max": [
        0.7969800233840942,
        0.9797700047492981
      ],
      "min": [
        0.26023000478744507,
        0.030060000717639923
      ],
      "type": "VEC2"
    },
    {
      "bufferView": 0,
      "byteOffset": 5744280,
      "componentType": 5125,
      "count": 7503,
      "type": "SCALAR"
    },
    {
      "bufferView": 2,
      "byteOffset": 7076184,
      "componentType": 5126,
      "count": 19182,
      "max": [
        25.990449905395508,
        110.02172088623047,
        -3.421260118484497
      ],
      "min": [
        -25.990449905395508,
        88.45033264160156,
        -7.519969940185547
      ],
      "type": "VEC3"
    },
    {
      "bufferView": 2,
      "byteOffset": 7306368,
      "componentType": 5126,
      "count": 19182,
      "max": [
        1.0,
        1.0,
        1.0
      ],
      "min": [
        -1.0,
        -1.0,
        -1.0
      ],
      "type": "VEC3"
    },
    {
      "bufferView": 1,
      "byteOffset": 1252080,
      "componentType": 5126,
      "count": 19182,
      "max": [
        6.875110149383545,
        7.177090167999268
      ],
      "min": [
        2.502690076828003,
        -0.01006999984383583
      ],
      "type": "VEC2"
    },
    {
      "bufferView": 0,
      "byteOffset": 5774292,
      "componentType": 5125,
      "count": 89328,
      "type": "SCALAR"
    }
  ],
  "asset": {
    "extras": {
      "author": "IPfuentes (https://sketchfab.com/IPfuentes)",
      "license": "CC-BY-4.0 (http://creativecommons.org/licenses/by/4.0/)",
      "source": "https://sketchfab.com/3d-models/swimming-pool-3d-scene-f45154da5a524dff9a2e94faa97a205e",
      "title": "Swimming Pool 3D Scene"
    },
    "generator": "Sketchfab-12.68.0",
    "version": "2.0"
  },
  "bufferViews": [
    {
      "buffer": 0,
      "byteLength": 6131604,
      "name": "floatBufferViews",
      "target": 34963
    },
    {
      "buffer": 0,
      "byteLength": 1405536,
      "byteOffset": 6131604,
      "byteStride": 8,
      "name": "floatBufferViews",
      "target": 34962
    },
    {
      "buffer": 0,
      "byteLength": 7536552,
      "byteOffset": 7537140,
      "byteStride": 12,
      "name": "floatBufferViews",
      "target": 34962
    },
    {
      "buffer": 0,
      "byteLength": 1954736,
      "byteOffset": 15073692,
      "byteStride": 16,
      "name": "floatBufferViews",
      "target": 34962
    }
  ],
  "buffers": [
    {
      "byteLength": 17028428,
      "uri": "scene.bin"
    }
  ],
  "extensionsUsed": [
    "KHR_materials_transmission"
  ],
  "images": [
    {
      "uri": "Textures/pool/floor_baseColor.png"
    },
    {
      "uri": "Textures/pool/floor_metallicRoughness.png"
    },
    {
      "uri": "Textures/pool/floor_normal.png"
    },
    {
      "uri": "Textures/pool/wood_baseColor.png"
    },
    {
      "uri": "Textures/pool/wood_metallicRoughness.png"
    },
    {
      "uri": "Textures/pool/wood_normal.png"
    },
    {
      "uri": "Textures/pool/wall_baseColor.png"
    },
    {
      "uri": "Textures/pool/wall_metallicRoughness.png"
    },
    {
      "uri": "Textures/pool/wall_normal.png"
    },
    {
      "uri": "Textures/pool/jumper_metallicRoughness.png"
    },
    {
      "uri": "Textures/pool/20-Free-Tree-PNG-Images-TabebuiaA01L_baseColor.png"
    },
    {
      "uri": "Textures/pool/tree_38_png_by_gd08-d314yfi_baseColor.png"
    },
    {
      "uri": "Textures/pool/bosque_baseColor.jpeg"
    },
    {
      "uri": "Textures/pool/96e5cc21ff8e88d76cab4abe347fedbc_baseColor.png"
    }
  ],
  "materials": [
    {
      "doubleSided": true,
      "name": "stairs",
      "pbrMetallicRoughness": {
        "baseColorFactor": [
          0.4590320122,
          0.4590320122,
          0.4590320122,
          1.0
        ],
        "metallicFactor": 0.0,
        "roughnessFactor": 0.1602515244
      }
    },
    {
      "doubleSided": true,
      "name": "floor",
      "normalTexture": {
        "index": 2
      },
      "pbrMetallicRoughness": {
        "baseColorTexture": {
          "index": 0
        },
        "metallicFactor": 0.1236661585,
        "metallicRoughnessTexture": {
          "index": 1
        },
        "roughnessFactor": 0.513910061
      }
    },
    {
      "doubleSided": true,
      "name": "wood",
      "normalTexture": {
        "index": 5,
        "scale": 0.763910061
      },
      "occlusionTexture": {
        "index": 4,
        "strength": 0.6968368902
      },
      "pbrMetallicRoughness": {
        "baseColorTexture": {
          "index": 3
        },
        "metallicFactor": 0.0,
        "metallicRoughnessTexture": {
          "index": 4
        }
      }
    },
    {
      "doubleSided": true,
      "name": "wall",
      "normalTexture": {
        "index": 8,
        "scale": 0.770007622
      },
      "occlusionTexture": {
        "index": 7,
        "strength": 0.6175685976
      },
      "pbrMetallicRoughness": {
        "baseColorTexture": {
          "index": 6
        },
        "metallicFactor": 0.0,
        "metallicRoughnessTexture": {
          "index": 7
        },
        "roughnessFactor": 0.501714939
      }
    },
    {
      "alphaMode": "BLEND",
      "doubleSided": true,
      "extensions": {
        "KHR_materials_transmission": {
          "transmissionFactor": 0.8214557927
        }
      },
      "name": "glass_windows",
      "pbrMetallicRoughness": {
        "baseColorFactor": [
          1.0,
          1.0,
          1.0,
          0.25
        ],
        "roughnessFactor": 0.6
      }
    },
    {
      "doubleSided": true,
      "name": "dark",
      "pbrMetallicRoughness": {
        "baseColorFactor": [
          0.2855180325,
          0.2855180325,
          0.2855180325,
          1.0
        ],
        "metallicFactor": 0.0,
        "roughnessFactor": 0.0504954268
      }
    },
    {
      "doubleSided": true,
      "name": "metal_lamps",
      "pbrMetallicRoughness": {
        "baseColorFactor": [
          0.1236661585,
          0.1236661585,
          0.1236661585,
          1.0
        ],
        "roughnessFactor": 0.0809832317
      }
    },
    {
      "doubleSided": true,
      "name": "lamps",
      "pbrMetallicRoughness": {
        "metallicFactor": 0.0,
        "roughnessFactor": 0.1663490854
      }
    },
    {
      "doubleSided": true,
      "name": "jumper",
      "pbrMetallicRoughness": {
        "baseColorFactor": [
          0.5443978659,
          0.5443978659,
          0.5443978659,
          1.0
        ],
        "metallicFactor": 0.3309832317,
        "metallicRoughnessTexture": {
          "index": 9
        }
      }
    },
    {
      "doubleSided": true,
      "name": "jumper_gray",
      "pbrMetallicRoughness": {
        "baseColorFactor": [
          0.27671802074227186,
          0.27671802074227186,
          0.27671802074227186,
          1.0
        ],
        "metallicFactor": 0.0,
        "roughnessFactor": 0.0
      }
    },
    {
      "doubleSided": true,
      "name": "jumper_black",
      "pbrMetallicRoughness": {
        "baseColorFactor": [
          0.0976076635,
          0.0923290028,
          0.0923290028,
          1.0
        ],
        "roughnessFactor": 0.1907393293
      }
    },
    {
      "alphaCutoff": 0.3763338415,
      "alphaMode": "MASK",
      "doubleSided": true,
      "name": "20-Free-Tree-PNG-Images-TabebuiaA01L",
      "pbrMetallicRoughness": {
        "baseColorTexture": {
          "index": 10
        },
        "metallicFactor": 0.0,
        "roughnessFactor": 0.0
      }
    },
    {
      "alphaCutoff": 0.2421875,
      "alphaMode": "MASK",
      "doubleSided": true,
      "name": "tree_38_png_by_gd08-d314yfi",
      "pbrMetallicRoughness": {
        "baseColorTexture": {
          "index": 11
        },
        "metallicFactor": 0.0,
        "roughnessFactor": 0.0
      }
    },
    {
      "doubleSided": true,
      "emissiveFactor": [
        0.2000762195,
        0.2000762195,
        0.2000762195
      ],
      "name": "bosque",
      "pbrMetallicRoughness": {
        "baseColorFactor": [
          0.7273246951,
          0.7273246951,
          0.7273246951,
          1.0
        ],
        "baseColorTexture": {
          "index": 12
        },
        "metallicFactor": 0.0,
        "roughnessFactor": 0.0
      }
    },
    {
      "alphaCutoff": 0.736089939,
      "alphaMode": "MASK",
      "doubleSided": true,
      "name": "96e5cc21ff8e88d76cab4abe347fedbc",
      "pbrMetallicRoughness": {
        "baseColorTexture": {
          "index": 13
        },
        "metallicFactor": 0.0,
        "roughnessFactor": 0.0
      }
    },
    {
      "doubleSided": true,
      "name": "metal",
      "pbrMetallicRoughness": {
        "baseColorFactor": [
          0.9834222561,
          0.9834222561,
          0.9834222561,
          1.0
        ],
        "roughnessFactor": 0.21169969509999997
      }
    },
    {
      "alphaMode": "BLEND",
      "doubleSided": true,
      "extensions": {
        "KHR_materials_transmission": {
          "transmissionFactor": 0.986089939
        }
      },
      "name": "water",
      "pbrMetallicRoughness": {
        "baseColorFactor": [
          1.0,
          1.0,
          1.0,
          0.25
        ],
        "roughnessFactor": 0.6
      }
    },
    {
      "doubleSided": true,
      "name": "metal_windows",
      "pbrMetallicRoughness": {
        "roughnessFactor": 0.6
      }
    },
    {
      "doubleSided": true,
      "name": "roof_holders",
      "pbrMetallicRoughness": {
        "roughnessFactor": 0.1907393293
      }
    },
    {
      "doubleSided": true,
      "emissiveFactor": [
        0.027157587245475536,
        0.3794274503260128,
        0.4439786585
      ],
      "name": "pool",
      "pbrMetallicRoughness": {
        "baseColorFactor": [
          0.2408375155,
          0.7076012527,
          0.6913997086,
          1.0
        ],
        "metallicFactor": 0.7578125,
        "roughnessFactor": 0.1114710366
      }
    }
  ],
  "meshes": [
    {
      "name": "ladder_2_0",
      "primitives": [
        {
          "attributes": {
            "NORMAL": 1,
            "POSITION": 0
          },
          "indices": 2,
          "material": 15,
          "mode": 4
        }
      ]
    },
    {
      "name": "pool_0",
      "primitives": [
        {
          "attributes": {
            "NORMAL": 4,
            "POSITION": 3,
            "TEXCOORD_0": 5
          },
          "indices": 6,
          "material": 19,
          "mode": 4
        }
      ]
    },
    {
      "name": "roof_holders_0",
      "primitives": [
        {
          "attributes": {
            "NORMAL": 8,
            "POSITION": 7
          },
          "indices": 9,
          "material": 18,
          "mode": 4
        }
      ]
    },
    {
      "name": "roof_holders_0",
      "primitives": [
        {
          "attributes": {
            "NORMAL": 11,
            "POSITION": 10
          },
          "indices": 12,
          "material": 18,
          "mode": 4
        }
      ]
    },
    {
      "name": "window_holders_0",
      "primitives": [
        {
          "attributes": {
            "NORMAL": 14,
            "POSITION": 13
          },
          "indices": 15,
          "material": 17,
          "mode": 4
        }
      ]
    },
    {
      "name": "WATER_0",
      "primitives": [
        {
          "attributes": {
            "NORMAL": 17,
            "POSITION": 16,
            "TEXCOORD_0": 18
          },
          "indices": 19,
          "material": 16,
          "mode": 4
        }
      ]
    },
    {
      "name": "doors_0",
      "primitives": [
        {
          "attributes": {
            "NORMAL": 21,
            "POSITION": 20,
            "TANGENT": 22,
            "TEXCOORD_0": 23
          },
          "indices": 24,
          "material": 2,
          "mode": 4
        }
      ]
    },
    {
      "name": "Cube.013_0",
      "primitives": [
        {
          "attributes": {
            "NORMAL": 26,
            "POSITION": 25,
            "TEXCOORD_0": 27
          },
          "indices": 28,
          "material": 5,
          "mode": 4
        }
      ]
    },
    {
      "name": "Cube.013_1",
      "primitives": [
        {
          "attributes": {
            "NORMAL": 30,
            "POSITION": 29,
            "TANGENT": 31,
            "TEXCOORD_0": 32
          },
          "indices": 33,
          "material": 2,
          "mode": 4
        }
      ]
    },
    {
      "name": "Cube.013_2",
      "primitives": [
        {
          "attributes": {
            "NORMAL": 35,
            "POSITION": 34,
            "TEXCOORD_0": 36
          },
          "indices": 37,
          "material": 4,
          "mode": 4
        }
      ]
    },
    {
      "name": "ladder_0",
      "primitives": [
        {
          "attributes": {
            "NORMAL": 39,
            "POSITION": 38
          },
          "indices": 40,
          "material": 15,
          "mode": 4
        }
      ]
    },
    {
      "name": "ladder_3_0",
      "primitives": [
        {
          "attributes": {
            "NORMAL": 42,
            "POSITION": 41
          },
          "indices": 43,
          "material": 15,
          "mode": 4
        }
      ]
    },
    {
      "name": "96e5cc21ff8e88d76cab4abe347fedbc_0",
      "primitives": [
        {
          "attributes": {
            "NORMAL": 45,
            "POSITION": 44,
            "TEXCOORD_0": 46
          },
          "indices": 47,
          "material": 14,
          "mode": 4
        }
      ]
    },
    {
      "name": "96e5cc21ff8e88d76cab4abe347fedbc.001_0",
      "primitives": [
        {
          "attributes": {
            "NORMAL": 49,
            "POSITION": 48,
            "TEXCOORD_0": 50
          },
          "indices": 51,
          "material": 14,
          "mode": 4
        }
      ]
    },
    {
      "name": "96e5cc21ff8e88d76cab4abe347fedbc.002_0",
      "primitives": [
        {
          "attributes": {
            "NORMAL": 53,
            "POSITION": 52,
            "TEXCOORD_0": 54
          },
          "indices": 55,
          "material": 14,
          "mode": 4
        }
      ]
    },
    {
      "name": "20-Free-Tree-PNG-Images-TabebuiaA01L_0",
      "primitives": [
        {
          "attributes": {
            "NORMAL": 57,
            "POSITION": 56,
            "TEXCOORD_0": 58
          },
          "indices": 59,
          "material": 11,
          "mode": 4
        }
      ]
    },
    {
      "name": "20-Free-Tree-PNG-Images-TabebuiaA01L.001_0",
      "primitives": [
        {
          "attributes": {
            "NORMAL": 61,
            "POSITION": 60,
            "TEXCOORD_0": 62
          },
          "indices": 63,
          "material": 11,
          "mode": 4
        }
      ]
    },
    {
      "name": "20-Free-Tree-PNG-Images-TabebuiaA01L.002_0",
      "primitives": [
        {
          "attributes": {
            "NORMAL": 65,
            "POSITION": 64,
            "TEXCOORD_0": 66
          },
          "indices": 67,
          "material": 11,
          "mode": 4
        }
      ]
    },
    {
      "name": "bosque_0",
      "primitives": [
        {
          "attributes": {
            "NORMAL": 69,
            "POSITION": 68,
            "TEXCOORD_0": 70
          },
          "indices": 71,
          "material": 13,
          "mode": 4
        }
      ]
    },
    {
      "name": "20-Free-Tree-PNG-Images-TabebuiaA01L.003_0",
      "primitives": [
        {
          "attributes": {
            "NORMAL": 73,
            "POSITION": 72,
            "TEXCOORD_0": 74
          },
          "indices": 75,
          "material": 11,
          "mode": 4
        }
      ]
    },
    {
      "name": "tree_38_png_by_gd08-d314yfi_0",
      "primitives": [
        {
          "attributes": {
            "NORMAL": 77,
            "POSITION": 76,
            "TEXCOORD_0": 78
          },
          "indices": 79,
          "material": 12,
          "mode": 4
        }
      ]
    },
    {
      "name": "tree_38_png_by_gd08-d314yfi.001_0",
      "primitives": [
        {
          "attributes": {
            "NORMAL": 81,
            "POSITION": 80,
            "TEXCOORD_0": 82
          },
          "indices": 83,
          "material": 12,
          "mode": 4
        }
      ]
    },
    {
      "name": "tree_38_png_by_gd08-d314yfi.002_0",
      "primitives": [
        {
          "attributes": {
            "NORMAL": 85,
            "POSITION": 84,
            "TEXCOORD_0": 86
          },
          "indices": 87,
          "material": 12,
          "mode": 4
        }
      ]
    },
    {
      "name": "tree_38_png_by_gd08-d314yfi.003_0",
      "primitives": [
        {
          "attributes": {
            "NORMAL": 89,
            "POSITION": 88,
            "TEXCOORD_0": 90
          },
          "indices": 91,
          "material": 12,
          "mode": 4
        }
      ]
    },
    {
      "name": "tree_38_png_by_gd08-d314yfi.004_0",
      "primitives": [
        {
          "attributes": {
            "NORMAL": 93,
            "POSITION": 92,
            "TEXCOORD_0": 94
          },
          "indices": 95,
          "material": 12,
          "mode": 4
        }
      ]
    },
    {
      "name": "tree_38_png_by_gd08-d314yfi.005_0",
      "primitives": [
        {
          "attributes": {
            "NORMAL": 97,
            "POSITION": 96,
            "TEXCOORD_0": 98
          },
          "indices": 99,
          "material": 12,
          "mode": 4
        }
      ]
    },
    {
      "name": "tree_38_png_by_gd08-d314yfi.006_0",
      "primitives": [
        {
          "attributes": {
            "NORMAL": 101,
            "POSITION": 100,
            "TEXCOORD_0": 102
          },
          "indices": 103,
          "material": 12,
          "mode": 4
        }
      ]
    },
    {
      "name": "20-Free-Tree-PNG-Images-TabebuiaA01L.004_0",
      "primitives": [
        {
          "attributes": {
            "NORMAL": 105,
            "POSITION": 104,
            "TEXCOORD_0": 106
          },
          "indices": 107,
          "material": 11,
          "mode": 4
        }
      ]
    },
    {
      "name": "20-Free-Tree-PNG-Images-TabebuiaA01L.005_0",
      "primitives": [
        {
          "attributes": {
            "NORMAL": 109,
            "POSITION": 108,
            "TEXCOORD_0": 110
          },
          "indices": 111,
          "material": 11,
          "mode": 4
        }
      ]
    },
    {
      "name": "Cube.010_0",
      "primitives": [
        {
          "attributes": {
            "NORMAL": 113,
            "POSITION": 112,
            "TEXCOORD_0": 114
          },
          "indices": 115,
          "material": 8,
          "mode": 4
        }
      ]
    },
    {
      "name": "Cube.010_1",
      "primitives": [
        {
          "attributes": {
            "NORMAL": 117,
            "POSITION": 116,
            "TEXCOORD_0": 118
          },
          "indices": 119,
          "material": 9,
          "mode": 4
        }
      ]
    },
    {
      "name": "Cube.010_2",
      "primitives": [
        {
          "attributes": {
            "NORMAL": 121,
            "POSITION": 120,
            "TEXCOORD_0": 122
          },
          "indices": 123,
          "material": 10,
          "mode": 4
        }
      ]
    },
    {
      "name": "lamps_0",
      "primitives": [
        {
          "attributes": {
            "NORMAL": 125,
            "POSITION": 124
          },
          "indices": 126,
          "material": 6,
          "mode": 4
        }
      ]
    },
    {
      "name": "lamps_1",
      "primitives": [
        {
          "attributes": {
            "NORMAL": 128,
            "POSITION": 127
          },
          "indices": 129,
          "material": 7,
          "mode": 4
        }
      ]
    },
    {
      "name": "Cylinder.001_0",
      "primitives": [
        {
          "attributes": {
            "NORMAL": 131,
            "POSITION": 130
          },
          "indices": 132,
          "material": 6,
          "mode": 4
        }
      ]
    },
    {
      "name": "Cylinder.001_1",
      "primitives": [
        {
          "attributes": {
            "NORMAL": 134,
            "POSITION": 133
          },
          "indices": 135,
          "material": 7,
          "mode": 4
        }
      ]
    },
    {
      "name": "Cube.001_0",
      "primitives": [
        {
          "attributes": {
            "NORMAL": 137,
            "POSITION": 136,
            "TEXCOORD_0": 138
          },
          "indices": 139,
          "material": 5,
          "mode": 4
        }
      ]
    },
    {
      "name": "Cube.001_1",
      "primitives": [
        {
          "attributes": {
            "NORMAL": 141,
            "POSITION": 140,
            "TANGENT": 142,
            "TEXCOORD_0": 143
          },
          "indices": 144,
          "material": 2,
          "mode": 4
        }
      ]
    },
    {
      "name": "Cube.001_2",
      "primitives": [
        {
          "attributes": {
            "NORMAL": 146,
            "POSITION": 145,
            "TEXCOORD_0": 147
          },
          "indices": 148,
          "material": 4,
          "mode": 4
        }
      ]
    },
    {
      "name": "Cube.009_0",
      "primitives": [
        {
          "attributes": {
            "NORMAL": 150,
            "POSITION": 149,
            "TEXCOORD_0": 151
          },
          "indices": 152,
          "material": 5,
          "mode": 4
        }
      ]
    },
    {
      "name": "Cube.009_1",
      "primitives": [
        {
          "attributes": {
            "NORMAL": 154,
            "POSITION": 153,
            "TANGENT": 155,
            "TEXCOORD_0": 156
          },
          "indices": 157,
          "material": 2,
          "mode": 4
        }
      ]
    },
    {
      "name": "Cube.009_2",
      "primitives": [
        {
          "attributes": {
            "NORMAL": 159,
            "POSITION": 158,
            "TEXCOORD_0": 160
          },
          "indices": 161,
          "material": 4,
          "mode": 4
        }
      ]
    },
    {
      "name": "glass_windows_0",
      "primitives": [
        {
          "attributes": {
            "NORMAL": 163,
            "POSITION": 162
          },
          "indices": 164,
          "material": 4,
          "mode": 4
        }
      ]
    },
    {
      "name": "Cube.000_0",
      "primitives": [
        {
          "attributes": {
            "NORMAL": 166,
            "POSITION": 165,
            "TANGENT": 167,
            "TEXCOORD_0": 168
          },
          "indices": 169,
          "material": 3,
          "mode": 4
        }
      ]
    },
    {
      "name": "Cube.000_0",
      "primitives": [
        {
          "attributes": {
            "NORMAL": 171,
            "POSITION": 170,
            "TANGENT": 172,
            "TEXCOORD_0": 173
          },
          "indices": 174,
          "material": 3,
          "mode": 4
        }
      ]
    },
    {
      "name": "wood_0",
      "primitives": [
        {
          "attributes": {
            "NORMAL": 176,
            "POSITION": 175,
            "TANGENT": 177,
            "TEXCOORD_0": 178
          },
          "indices": 179,
          "material": 2,
          "mode": 4
        }
      ]
    },
    {
      "name": "floor_0",
      "primitives": [
        {
          "attributes": {
            "NORMAL": 181,
            "POSITION": 180,
            "TANGENT": 182,
            "TEXCOORD_0": 183
          },
          "indices": 184,
          "material": 1,
          "mode": 4
        }
      ]
    },
    {
      "name": "stairs_0",
      "primitives": [
        {
          "attributes": {
            "NORMAL": 186,
            "POSITION": 185,
            "TEXCOORD_0": 187
          },
          "indices": 188,
          "material": 0,
          "mode": 4
        }
      ]
    }
  ],
  "nodes": [
    {
      "children": [
        1
      ],
      "matrix": [
        0.2072729915380478,
        0.0,
        0.0,
        0.0,
        0.0,
        4.602384951769518e-17,
        -0.2072729915380478,
        0.0,
        0.0,
        0.2072729915380478,
        4.602384951769518e-17,
        0.0,
        0.0,
        0.0,
        0.0,
        1.0
      ],
      "name": "Sketchfab_model"
    },
    {
      "children": [
        2,
        4,
        6,
        9,
        11,
        13,
        15,
        19,
        21,
        23,
        25,
        27,
        29,
        31,
        33,
        35,
        37,
        39,
        41,
        43,
        45,
        47,
        49,
        51,
        53,
        55,
        57,
        61,
        64,
        67,
        69,
        71,
        75,
        79,
        81,
        84,
        86,
        88
      ],
      "name": "Root"
    },
    {
      "children": [
        3
      ],
      "matrix": [
        0.0,
        0.0,
        -1.33012,
        0.0,
        -0.0,
        -1.33012,
        -0.0,
        0.0,
        -1.33012,
        0.0,
        -0.0,
        0.0,
        11.34769,
        36.55956,
        -6.350129999999999,
        1.0
      ],
      "name": "ladder_2"
    },
    {
      "mesh": 0,
      "name": "ladder_2_0"
    },
    {
      "children": [
        5
      ],
      "matrix": [
        1.0,
        0.0,
        0.0,
        0.0,
        0.0,
        1.0,
        0.0,
        0.0,
        0.0,
        0.0,
        1.0,
        0.0,
        0.0007500000000000002,
        2.98249,
        1.9973299999999998,
        1.0
      ],
      "name": "pool"
    },
    {
      "mesh": 1,
      "name": "pool_0"
    },
    {
      "children": [
        7,
        8
      ],
      "matrix": [
        5.53738,
        0.0,
        0.0,
        0.0,
        0.0,
        29.48127,
        0.0,
        0.0,
        0.0,
        0.0,
        5.53738,
        0.0,
        0.0,
        54.28837000000001,
        0.0,
        1.0
      ],
      "name": "roof_holders"
    },
    {
      "mesh": 2,
      "name": "roof_holders_0"
    },
    {
      "mesh": 3,
      "name": "roof_holders_0"
    },
    {
      "children": [
        10
      ],
      "matrix": [
        5.50905,
        0.0,
        0.0,
        0.0,
        0.0,
        29.330460000000002,
        0.0,
        0.0,
        0.0,
        0.0,
        5.50905,
        0.0,
        0.0007500000000000002,
        2.98249,
        1.80893,
        1.0
      ],
      "name": "window_holders"
    },
    {
      "mesh": 4,
      "name": "window_holders_0"
    },
    {
      "children": [
        12
      ],
      "matrix": [
        1.0,
        0.0,
        0.0,
        0.0,
        0.0,
        1.0,
        0.0,
        0.0,
        0.0,
        0.0,
        1.0,
        0.0,
        0.0007500000000000002,
        2.98249,
        1.9973299999999998,
        1.0
      ],
      "name": "WATER"
    },
    {
      "mesh": 5,
      "name": "WATER_0"
    },
    {
      "children": [
        14
      ],
      "matrix": [
        5.53738,
        0.0,
        0.0,
        0.0,
        0.0,
        29.48127,
        0.0,
        0.0,
        0.0,
        0.0,
        5.53738,
        0.0,
        0.0007500000000000002,
        2.62001,
        1.9973299999999998,
        1.0
      ],
      "name": "doors"
    },
    {
      "mesh": 6,
      "name": "doors_0"
    },
    {
      "children": [
        16,
        17,
        18
      ],
      "matrix": [
        5.53738,
        0.0,
        0.0,
        0.0,
        0.0,
        29.48127,
        0.0,
        0.0,
        0.0,
        0.0,
        5.53738,
        0.0,
        30.4702,
        43.1175,
        4.29105,
        1.0
      ],
      "name": "Cube.013"
    },
    {
      "mesh": 7,
      "name": "Cube.013_0"
    },
    {
      "mesh": 8,
      "name": "Cube.013_1"
    },
    {
      "mesh": 9,
      "name": "Cube.013_2"
    },
    {
      "children": [
        20
      ],
      "matrix": [
        0.0,
        0.0,
        -1.33012,
        0.0,
        -0.0,
        1.33012,
        -0.0,
        0.0,
        1.33012,
        0.0,
        0.0,
        0.0,
        -12.61967,
        38.928760000000004,
        -3.8104699999999996,
        1.0
      ],
      "name": "ladder"
    },
    {
      "mesh": 10,
      "name": "ladder_0"
    },
    {
      "children": [
        22
      ],
      "matrix": [
        0.0,
        0.0,
        -1.33012,
        0.0,
        2.77682,
        0.0,
        0.0,
        0.0,
        0.0,
        -1.33012,
        0.0,
        0.0,
        0.12322000000000002,
        108.4655,
        -3.25621,
        1.0
      ],
      "name": "ladder_3"
    },
    {
      "mesh": 11,
      "name": "ladder_3_0"
    },
    {
      "children": [
        24
      ],
      "matrix": [
        14.549269999999998,
        9.875150000000001,
        -11.50595,
        0.0,
        13.034909999999998,
        -0.0,
        16.482639999999993,
        0.0,
        7.74573,
        -18.54907,
        -6.125529999999999,
        0.0,
        -27.473239999999997,
        88.14206999999999,
        29.194670000000002,
        1.0
      ],
      "name": "96e5cc21ff8e88d76cab4abe347fedbc"
    },
    {
      "mesh": 12,
      "name": "96e5cc21ff8e88d76cab4abe347fedbc_0"
    },
    {
      "children": [
        26
      ],
      "matrix": [
        12.262480000000002,
        9.875150000000001,
        -13.9176,
        0.0,
        15.76704,
        0.0,
        13.89198,
        0.0,
        6.5283,
        -18.54907,
        -7.409440000000001,
        0.0,
        -24.609260000000003,
        43.79071000000001,
        31.166150000000002,
        1.0
      ],
      "name": "96e5cc21ff8e88d76cab4abe347fedbc.001"
    },
    {
      "mesh": 13,
      "name": "96e5cc21ff8e88d76cab4abe347fedbc.001_0"
    },
    {
      "children": [
        28
      ],
      "matrix": [
        -12.262480000000002,
        -9.875150000000001,
        -13.9176,
        0.0,
        -15.76704,
        -1.0000000000000004e-05,
        13.89198,
        0.0,
        -6.5283,
        18.54907,
        -7.409440000000001,
        0.0,
        27.468389999999996,
        144.81394999999998,
        31.166150000000002,
        1.0
      ],
      "name": "96e5cc21ff8e88d76cab4abe347fedbc.002"
    },
    {
      "mesh": 14,
      "name": "96e5cc21ff8e88d76cab4abe347fedbc.002_0"
    },
    {
      "children": [
        30
      ],
      "matrix": [
        12.293869999999998,
        13.45987,
        -15.95852,
        0.0,
        10.762450000000001,
        11.783199999999999,
        18.2293,
        0.0,
        17.88888,
        -16.3392,
        -0.0,
        0.0,
        -19.78682,
        100.82306999999999,
        27.30923,
        1.0
      ],
      "name": "20-Free-Tree-PNG-Images-TabebuiaA01L"
    },
    {
      "mesh": 15,
      "name": "20-Free-Tree-PNG-Images-TabebuiaA01L_0"
    },
    {
      "children": [
        32
      ],
      "matrix": [
        12.57464,
        15.836590000000001,
        -13.344009999999999,
        0.0,
        3.3267499999999997,
        13.863850000000001,
        19.588469999999997,
        0.0,
        20.439980000000002,
        -11.99907,
        5.02105,
        0.0,
        -19.78682,
        60.195840000000004,
        29.75805,
        1.0
      ],
      "name": "20-Free-Tree-PNG-Images-TabebuiaA01L.001"
    },
    {
      "mesh": 16,
      "name": "20-Free-Tree-PNG-Images-TabebuiaA01L.001_0"
    },
    {
      "children": [
        34
      ],
      "matrix": [
        12.57464,
        20.48427,
        3.04218,
        0.0,
        3.3267499999999997,
        -5.510979999999999,
        23.356870000000004,
        0.0,
        20.439980000000002,
        -11.70493,
        -5.67303,
        0.0,
        -19.78682,
        83.72336999999999,
        29.75805,
        1.0
      ],
      "name": "20-Free-Tree-PNG-Images-TabebuiaA01L.002"
    },
    {
      "mesh": 17,
      "name": "20-Free-Tree-PNG-Images-TabebuiaA01L.002_0"
    },
    {
      "children": [
        36
      ],
      "matrix": [
        28.118890000000004,
        0.0,
        0.0,
        0.0,
        0.0,
        -0.0,
        28.118890000000004,
        0.0,
        0.0,
        -28.118890000000004,
        -0.0,
        0.0,
        0.20256000000000002,
        147.00569,
        5.52334,
        1.0
      ],
      "name": "bosque"
    },
    {
      "mesh": 18,
      "name": "bosque_0"
    },
    {
      "children": [
        38
      ],
      "matrix": [
        22.67754,
        -5.30665,
        -6.6746,
        0.0,
        7.51572,
        3.4807300000000003,
        22.767960000000002,
        0.0,
        -4.028,
        -23.381739999999997,
        4.90421,
        0.0,
        -14.43479,
        152.57094,
        18.259729999999998,
        1.0
      ],
      "name": "20-Free-Tree-PNG-Images-TabebuiaA01L.003"
    },
    {
      "mesh": 19,
      "name": "20-Free-Tree-PNG-Images-TabebuiaA01L.003_0"
    },
    {
      "children": [
        40
      ],
      "matrix": [
        22.51632,
        0.0,
        0.0,
        0.0,
        0.0,
        -0.0,
        22.51632,
        0.0,
        0.0,
        -22.51632,
        -0.0,
        0.0,
        13.01677,
        158.97081,
        19.321970000000004,
        1.0
      ],
      "name": "tree_38_png_by_gd08-d314yfi"
    },
    {
      "mesh": 20,
      "name": "tree_38_png_by_gd08-d314yfi_0"
    },
    {
      "children": [
        42
      ],
      "matrix": [
        20.09915,
        0.0,
        -17.307660000000002,
        0.0,
        17.307660000000002,
        -0.0,
        20.09915,
        0.0,
        -0.0,
        -26.524160000000002,
        -0.0,
        0.0,
        -13.75667,
        158.97081,
        14.228789999999998,
        1.0
      ],
      "name": "tree_38_png_by_gd08-d314yfi.001"
    },
    {
      "mesh": 21,
      "name": "tree_38_png_by_gd08-d314yfi.001_0"
    },
    {
      "children": [
        44
      ],
      "matrix": [
        20.09915,
        0.0,
        -17.307660000000002,
        0.0,
        17.307660000000002,
        -0.0,
        20.09915,
        0.0,
        -0.0,
        -26.524160000000002,
        -0.0,
        0.0,
        4.87861,
        158.08472,
        19.762169999999998,
        1.0
      ],
      "name": "tree_38_png_by_gd08-d314yfi.002"
    },
    {
      "mesh": 22,
      "name": "tree_38_png_by_gd08-d314yfi.002_0"
    },
    {
      "children": [
        46
      ],
      "matrix": [
        20.09915,
        0.0,
        -17.307660000000002,
        0.0,
        17.307660000000002,
        -0.0,
        20.09915,
        0.0,
        -0.0,
        -26.524160000000002,
        -0.0,
        0.0,
        -21.895870000000002,
        81.73083,
        33.38292,
        1.0
      ],
      "name": "tree_38_png_by_gd08-d314yfi.003"
    },
    {
      "mesh": 23,
      "name": "tree_38_png_by_gd08-d314yfi.003_0"
    },
    {
      "children": [
        48
      ],
      "matrix": [
        20.09915,
        0.0,
        -17.307660000000002,
        0.0,
        17.307660000000002,
        -0.0,
        20.09915,
        0.0,
        -0.0,
        -26.524160000000002,
        -0.0,
        0.0,
        -21.895870000000002,
        157.59926,
        33.38292,
        1.0
      ],
      "name": "tree_38_png_by_gd08-d314yfi.004"
    },
    {
      "mesh": 24,
      "name": "tree_38_png_by_gd08-d314yfi.004_0"
    },
    {
      "children": [
        50
      ],
      "matrix": [
        23.62281,
        0.0,
        12.062080000000002,
        0.0,
        -12.062080000000002,
        -0.0,
        23.62281,
        0.0,
        0.0,
        -26.524160000000002,
        -0.0,
        0.0,
        27.957980000000003,
        157.59926,
        30.89891,
        1.0
      ],
      "name": "tree_38_png_by_gd08-d314yfi.005"
    },
    {
      "mesh": 25,
      "name": "tree_38_png_by_gd08-d314yfi.005_0"
    },
    {
      "children": [
        52
      ],
      "matrix": [
        23.62281,
        0.0,
        12.062080000000002,
        0.0,
        -12.062080000000002,
        -0.0,
        23.62281,
        0.0,
        0.0,
        -26.524160000000002,
        -0.0,
        0.0,
        27.957980000000003,
        81.73083,
        30.89891,
        1.0
      ],
      "name": "tree_38_png_by_gd08-d314yfi.006"
    },
    {
      "mesh": 26,
      "name": "tree_38_png_by_gd08-d314yfi.006_0"
    },
    {
      "children": [
        54
      ],
      "matrix": [
        1.9386599999999998,
        20.48427,
        12.791319999999997,
        0.0,
        -20.36463,
        -5.510979999999999,
        11.911859999999999,
        0.0,
        12.98095,
        -11.70493,
        16.77711,
        0.0,
        32.11121,
        83.72336999999999,
        31.480649999999997,
        1.0
      ],
      "name": "20-Free-Tree-PNG-Images-TabebuiaA01L.004"
    },
    {
      "mesh": 27,
      "name": "20-Free-Tree-PNG-Images-TabebuiaA01L.004_0"
    },
    {
      "children": [
        56
      ],
      "matrix": [
        19.422369999999997,
        13.45987,
        5.346509999999999,
        0.0,
        -12.80606,
        11.783199999999999,
        16.85653,
        0.0,
        6.764469999999999,
        -16.3392,
        16.560619999999997,
        0.0,
        34.3782,
        100.82306999999999,
        30.554660000000002,
        1.0
      ],
      "name": "20-Free-Tree-PNG-Images-TabebuiaA01L.005"
    },
    {
      "mesh": 28,
      "name": "20-Free-Tree-PNG-Images-TabebuiaA01L.005_0"
    },
    {
      "children": [
        58,
        59,
        60
      ],
      "matrix": [
        0.91248,
        0.0,
        0.0,
        0.0,
        0.0,
        1.0484,
        0.0,
        0.0,
        0.0,
        0.0,
        0.15766000000000002,
        0.0,
        0.13889,
        15.395710000000001,
        -2.29407,
        1.0
      ],
      "name": "Cube.010"
    },
    {
      "mesh": 29,
      "name": "Cube.010_0"
    },
    {
      "mesh": 30,
      "name": "Cube.010_1"
    },
    {
      "mesh": 31,
      "name": "Cube.010_2"
    },
    {
      "children": [
        62,
        63
      ],
      "matrix": [
        0.3383300000000001,
        0.0,
        0.0,
        0.0,
        0.0,
        0.3383300000000001,
        0.0,
        0.0,
        0.0,
        0.0,
        1.36864,
        0.0,
        0.0,
        0.0,
        0.0,
        1.0
      ],
      "name": "lamps"
    },
    {
      "mesh": 32,
      "name": "lamps_0"
    },
    {
      "mesh": 33,
      "name": "lamps_1"
    },
    {
      "children": [
        65,
        66
      ],
      "matrix": [
        0.3383300000000001,
        0.0,
        0.0,
        0.0,
        0.0,
        0.3383300000000001,
        0.0,
        0.0,
        0.0,
        0.0,
        1.36864,
        0.0,
        0.0,
        51.95556,
        0.0,
        1.0
      ],
      "name": "Cylinder.001"
    },
    {
      "mesh": 34,
      "name": "Cylinder.001_0"
    },
    {
      "mesh": 35,
      "name": "Cylinder.001_1"
    },
    {
      "children": [
        68
      ],
      "matrix": [
        3.1845600000000003,
        0.0,
        0.0,
        0.0,
        0.0,
        1.51477,
        -2.80123,
        0.0,
        0.0,
        2.80123,
        1.51477,
        0.0,
        0.3139700000000001,
        31.119370000000004,
        5.854499999999999,
        1.0
      ],
      "name": "Point"
    },
    {
      "name": "Point"
    },
    {
      "children": [
        70
      ],
      "matrix": [
        1.0,
        -9.000000000000003e-05,
        0.0029000000000000007,
        0.0,
        -0.0021900000000000005,
        0.6323200000000001,
        0.77471,
        0.0,
        -0.0019000000000000006,
        -0.77471,
        0.63231,
        0.0,
        -24.85459,
        57.63007,
        59.3535,
        1.0
      ],
      "name": "Sun.002"
    },
    {
      "name": "Sun.002"
    },
    {
      "children": [
        72,
        73,
        74
      ],
      "matrix": [
        5.53738,
        0.0,
        0.0,
        0.0,
        0.0,
        31.78387,
        0.0,
        0.0,
        0.0,
        0.0,
        5.53738,
        0.0,
        30.90436,
        37.097550000000005,
        4.29105,
        1.0
      ],
      "name": "Cube.001"
    },
    {
      "mesh": 36,
      "name": "Cube.001_0"
    },
    {
      "mesh": 37,
      "name": "Cube.001_1"
    },
    {
      "mesh": 38,
      "name": "Cube.001_2"
    },
    {
      "children": [
        76,
        77,
        78
      ],
      "matrix": [
        5.53738,
        0.0,
        0.0,
        0.0,
        0.0,
        29.92794,
        0.0,
        0.0,
        0.0,
        0.0,
        5.53738,
        0.0,
        30.90436,
        48.80735,
        4.29105,
        1.0
      ],
      "name": "Cube.009"
    },
    {
      "mesh": 39,
      "name": "Cube.009_0"
    },
    {
      "mesh": 40,
      "name": "Cube.009_1"
    },
    {
      "mesh": 41,
      "name": "Cube.009_2"
    },
    {
      "children": [
        80
      ],
      "matrix": [
        5.50905,
        0.0,
        0.0,
        0.0,
        0.0,
        29.330460000000002,
        0.0,
        0.0,
        0.0,
        0.0,
        5.50905,
        0.0,
        0.0007500000000000002,
        2.98249,
        1.80893,
        1.0
      ],
      "name": "glass_windows"
    },
    {
      "mesh": 42,
      "name": "glass_windows_0"
    },
    {
      "children": [
        82,
        83
      ],
      "matrix": [
        1.0,
        0.0,
        0.0,
        0.0,
        0.0,
        1.0,
        0.0,
        0.0,
        0.0,
        0.0,
        1.0,
        0.0,
        0.0007500000000000002,
        2.98249,
        1.9973299999999998,
        1.0
      ],
      "name": "Cube.000"
    },
    {
      "mesh": 43,
      "name": "Cube.000_0"
    },
    {
      "mesh": 44,
      "name": "Cube.000_0"
    },
    {
      "children": [
        85
      ],
      "matrix": [
        1.0,
        0.0,
        0.0,
        0.0,
        0.0,
        1.0,
        0.0,
        0.0,
        0.0,
        0.0,
        1.0,
        0.0,
        0.0007500000000000002,
        2.98249,
        1.9973299999999998,
        1.0
      ],
      "name": "wood"
    },
    {
      "mesh": 45,
      "name": "wood_0"
    },
    {
      "children": [
        87
      ],
      "matrix": [
        1.0,
        0.0,
        0.0,
        0.0,
        0.0,
        1.0,
        0.0,
        0.0,
        0.0,
        0.0,
        1.0,
        0.0,
        0.0007500000000000002,
        2.98249,
        1.9973299999999998,
        1.0
      ],
      "name": "floor"
    },
    {
      "mesh": 46,
      "name": "floor_0"
    },
    {
      "children": [
        89
      ],
      "matrix": [
        1.0,
        0.0,
        0.0,
        0.0,
        0.0,
        1.0,
        0.0,
        0.0,
        0.0,
        0.0,
        1.0,
        0.0,
        0.0007500000000000002,
        2.98249,
        1.9973299999999998,
        1.0
      ],
      "name": "stairs"
    },
    {
      "mesh": 47,
      "name": "stairs_0"
    }
  ],
  "samplers": [
    {
      "magFilter": 9729,
      "minFilter": 9987,
      "wrapS": 10497,
      "wrapT": 10497
    }
  ],
  "scene": 0,
  "scenes": [
    {
      "name": "Sketchfab_Scene",
      "nodes": [
        0
      ]
    }
  ],
  "textures": [
    {
      "sampler": 0,
      "source": 0
    },
    {
      "sampler": 0,
      "source": 1
    },
    {
      "sampler": 0,
      "source": 2
    },
    {
      "sampler": 0,
      "source": 3
    },
    {
      "sampler": 0,
      "source": 4
    },
    {
      "sampler": 0,
      "source": 5
    },
    {
      "sampler": 0,
      "source": 6
    },
    {
      "sampler": 0,
      "source": 7
    },
    {
      "sampler": 0,
      "source": 8
    },
    {
      "sampler": 0,
      "source": 9
    },
    {
      "sampler": 0,
      "source": 10
    },
    {
      "sampler": 0,
      "source": 11
    },
    {
      "sampler": 0,
      "source": 12
    },
    {
      "sampler": 0,
      "source": 13
    }
  ]
}
